<svg width="423" height="264" viewBox="0 0 423 264" fill="none" xmlns="http://www.w3.org/2000/svg">
<g clip-path="url(#clip0_1026_394)">
<rect width="423" height="264" fill="#CBDCFF"/>
<path fill-rule="evenodd" clip-rule="evenodd" d="M877.578 364.868C897.694 364.868 914 381.174 914 401.289L914 552.578C914 572.694 897.693 589 877.578 589C857.463 589 841.157 572.694 841.157 552.578L841.157 401.289C841.157 381.174 857.463 364.868 877.578 364.868Z" fill="#193718"/>
<path fill-rule="evenodd" clip-rule="evenodd" d="M689.868 -52.5785C689.868 -72.6936 706.174 -89 726.289 -89L877.579 -89C897.694 -89 914 -72.6935 914 -52.5785C914 -32.4635 897.694 -16.157 877.579 -16.157L726.289 -16.157C706.174 -16.157 689.868 -32.4635 689.868 -52.5785Z" fill="#193718"/>
<path fill-rule="evenodd" clip-rule="evenodd" d="M460.132 552.578C460.132 572.694 443.826 589 423.711 589L272.421 589C252.306 589 236 572.693 236 552.578C236 532.463 252.306 516.157 272.421 516.157L423.711 516.157C443.826 516.157 460.132 532.463 460.132 552.578Z" fill="#193718"/>
<path fill-rule="evenodd" clip-rule="evenodd" d="M272.421 135.132C252.306 135.132 236 118.826 236 98.7107L236 -52.5786C236 -72.6936 252.307 -89 272.422 -89C292.537 -89 308.843 -72.6936 308.843 -52.5785L308.843 98.7107C308.843 118.826 292.536 135.132 272.421 135.132Z" fill="#193718"/>
<path fill-rule="evenodd" clip-rule="evenodd" d="M726.289 -89C746.404 -89 762.711 -72.6935 762.711 -52.5785L762.711 98.7107C762.711 118.826 746.404 135.132 726.289 135.132C706.174 135.132 689.868 118.826 689.868 98.7107L689.868 -52.5785C689.868 -72.6936 706.174 -89 726.289 -89Z" fill="#193718"/>
<path fill-rule="evenodd" clip-rule="evenodd" d="M762.711 401.289C762.711 421.404 746.404 437.711 726.289 437.711L575 437.711C554.885 437.711 538.578 421.404 538.579 401.289C538.579 381.174 554.885 364.868 575 364.868L726.289 364.868C746.404 364.868 762.711 381.174 762.711 401.289Z" fill="#193718"/>
<path fill-rule="evenodd" clip-rule="evenodd" d="M423.711 589C403.596 589 387.289 572.693 387.289 552.578L387.289 401.289C387.289 381.174 403.596 364.868 423.711 364.868C443.826 364.868 460.132 381.174 460.132 401.289L460.132 552.578C460.132 572.694 443.826 589 423.711 589Z" fill="#193718"/>
<path fill-rule="evenodd" clip-rule="evenodd" d="M387.289 98.7107C387.289 78.5957 403.596 62.2893 423.711 62.2893L575 62.2893C595.115 62.2893 611.421 78.5958 611.421 98.7108C611.421 118.826 595.115 135.132 575 135.132L423.711 135.132C403.596 135.132 387.289 118.826 387.289 98.7107Z" fill="#193718"/>
<path fill-rule="evenodd" clip-rule="evenodd" d="M762.711 552.578C762.711 572.694 746.404 589 726.289 589C622.623 589 538.578 504.956 538.579 401.289C538.579 381.174 554.885 364.868 575 364.868C595.115 364.868 611.421 381.174 611.421 401.289C611.421 464.726 662.853 516.157 726.289 516.157C746.404 516.157 762.711 532.463 762.711 552.578Z" fill="#193718"/>
<path fill-rule="evenodd" clip-rule="evenodd" d="M877.578 62.2893C897.694 62.2893 914 78.5957 914 98.7107C914 202.377 829.956 286.421 726.289 286.421C706.174 286.421 689.868 270.115 689.868 250C689.868 229.885 706.174 213.579 726.289 213.579C789.726 213.579 841.157 162.147 841.157 98.7107C841.157 78.5957 857.463 62.2893 877.578 62.2893Z" fill="#193718"/>
<path fill-rule="evenodd" clip-rule="evenodd" d="M272.421 437.711C252.306 437.711 236 421.404 236 401.289C236 297.623 320.044 213.578 423.711 213.579C443.826 213.579 460.132 229.885 460.132 250C460.132 270.115 443.826 286.421 423.711 286.421C360.274 286.421 308.843 337.853 308.843 401.289C308.843 421.404 292.536 437.711 272.421 437.711Z" fill="#193718"/>
<path fill-rule="evenodd" clip-rule="evenodd" d="M387.289 -52.5785C387.289 -72.6936 403.596 -89 423.711 -89C527.377 -89 611.422 -4.95556 611.421 98.7108C611.421 118.826 595.115 135.132 575 135.132C554.885 135.132 538.579 118.826 538.579 98.7108C538.579 35.2745 487.147 -16.157 423.711 -16.157C403.596 -16.1571 387.289 -32.4635 387.289 -52.5785Z" fill="#193718"/>
</g>
<defs>
<clipPath id="clip0_1026_394">
<rect width="423" height="264" fill="white"/>
</clipPath>
</defs>
</svg>
