<svg width="354" height="354" viewBox="0 0 354 354" fill="none" xmlns="http://www.w3.org/2000/svg">
<path fill-rule="evenodd" clip-rule="evenodd" d="M53.8297 33.7578C51.3103 33.7578 49.2679 31.7154 49.2679 29.196L49.2679 4.56194C49.2679 2.04249 51.3103 8.02509e-05 53.8297 8.00306e-05C56.3492 7.98104e-05 58.3916 2.04249 58.3916 4.56194L58.3916 29.196C58.3916 31.7154 56.3492 33.7578 53.8297 33.7578Z" fill="#51DA4C"/>
<path fill-rule="evenodd" clip-rule="evenodd" d="M53.8297 156.93C51.3103 156.93 49.2679 154.887 49.2679 152.368L49.2679 127.734C49.2679 125.214 51.3103 123.172 53.8297 123.172C56.3492 123.172 58.3916 125.214 58.3916 127.734L58.3916 152.368C58.3916 154.887 56.3492 156.93 53.8297 156.93Z" fill="#51DA4C"/>
<path fill-rule="evenodd" clip-rule="evenodd" d="M53.8297 280.098C51.3103 280.098 49.2679 278.055 49.2679 275.536L49.2679 250.902C49.2679 248.382 51.3103 246.34 53.8297 246.34C56.3492 246.34 58.3916 248.382 58.3916 250.902L58.3916 275.536C58.3916 278.055 56.3492 280.098 53.8297 280.098Z" fill="#51DA4C"/>
<path fill-rule="evenodd" clip-rule="evenodd" d="M177 33.7578C174.48 33.7578 172.438 31.7154 172.438 29.196L172.438 4.56194C172.438 2.04249 174.48 8.02509e-05 177 8.00306e-05C179.519 7.98104e-05 181.562 2.04249 181.562 4.56194L181.562 29.196C181.562 31.7154 179.519 33.7578 177 33.7578Z" fill="#51DA4C"/>
<path fill-rule="evenodd" clip-rule="evenodd" d="M177 156.93C174.48 156.93 172.438 154.887 172.438 152.368L172.438 127.734C172.438 125.214 174.48 123.172 177 123.172C179.519 123.172 181.562 125.214 181.562 127.734L181.562 152.368C181.562 154.887 179.519 156.93 177 156.93Z" fill="#51DA4C"/>
<path fill-rule="evenodd" clip-rule="evenodd" d="M177 280.098C174.48 280.098 172.438 278.055 172.438 275.536L172.438 250.902C172.438 248.382 174.48 246.34 177 246.34C179.519 246.34 181.562 248.382 181.562 250.902L181.562 275.536C181.562 278.055 179.519 280.098 177 280.098Z" fill="#51DA4C"/>
<path fill-rule="evenodd" clip-rule="evenodd" d="M300.171 33.7578C297.651 33.7578 295.609 31.7154 295.609 29.196L295.609 4.56194C295.609 2.04249 297.651 8.02509e-05 300.171 8.00306e-05C302.69 7.98104e-05 304.732 2.04249 304.732 4.56194L304.732 29.196C304.732 31.7154 302.69 33.7578 300.171 33.7578Z" fill="#51DA4C"/>
<path fill-rule="evenodd" clip-rule="evenodd" d="M300.171 156.93C297.651 156.93 295.609 154.887 295.609 152.368L295.609 127.734C295.609 125.214 297.651 123.172 300.171 123.172C302.69 123.172 304.732 125.214 304.732 127.734L304.732 152.368C304.732 154.887 302.69 156.93 300.171 156.93Z" fill="#51DA4C"/>
<path fill-rule="evenodd" clip-rule="evenodd" d="M300.171 280.098C297.651 280.098 295.609 278.055 295.609 275.536L295.609 250.902C295.609 248.382 297.651 246.34 300.171 246.34C302.69 246.34 304.732 248.382 304.732 250.902L304.732 275.536C304.732 278.055 302.69 280.098 300.171 280.098Z" fill="#51DA4C"/>
<path fill-rule="evenodd" clip-rule="evenodd" d="M53.8294 73.9023C56.3489 73.9023 58.3913 75.9448 58.3913 78.4642L58.3913 103.098C58.3913 105.618 56.3489 107.66 53.8294 107.66C51.31 107.66 49.2676 105.618 49.2676 103.098L49.2676 78.4642C49.2676 75.9448 51.31 73.9023 53.8294 73.9023Z" fill="#51DA4C"/>
<path fill-rule="evenodd" clip-rule="evenodd" d="M53.8294 197.07C56.3489 197.07 58.3913 199.113 58.3913 201.632L58.3913 226.266C58.3913 228.786 56.3489 230.828 53.8294 230.828C51.31 230.828 49.2676 228.786 49.2676 226.266L49.2676 201.632C49.2676 199.113 51.31 197.07 53.8294 197.07Z" fill="#51DA4C"/>
<path fill-rule="evenodd" clip-rule="evenodd" d="M53.8294 320.242C56.3489 320.242 58.3913 322.285 58.3913 324.804L58.3913 349.438C58.3913 351.958 56.3489 354 53.8294 354C51.31 354 49.2676 351.958 49.2676 349.438L49.2676 324.804C49.2676 322.285 51.31 320.242 53.8294 320.242Z" fill="#51DA4C"/>
<path fill-rule="evenodd" clip-rule="evenodd" d="M177 73.9023C179.52 73.9023 181.562 75.9448 181.562 78.4642L181.562 103.098C181.562 105.618 179.52 107.66 177 107.66C174.481 107.66 172.438 105.618 172.438 103.098L172.438 78.4642C172.438 75.9448 174.481 73.9023 177 73.9023Z" fill="#51DA4C"/>
<path fill-rule="evenodd" clip-rule="evenodd" d="M177 197.07C179.52 197.07 181.562 199.113 181.562 201.632L181.562 226.266C181.562 228.786 179.52 230.828 177 230.828C174.481 230.828 172.438 228.786 172.438 226.266L172.438 201.632C172.438 199.113 174.481 197.07 177 197.07Z" fill="#51DA4C"/>
<path fill-rule="evenodd" clip-rule="evenodd" d="M177 320.242C179.52 320.242 181.562 322.285 181.562 324.804L181.562 349.438C181.562 351.958 179.52 354 177 354C174.481 354 172.438 351.958 172.438 349.438L172.438 324.804C172.438 322.285 174.481 320.242 177 320.242Z" fill="#51DA4C"/>
<path fill-rule="evenodd" clip-rule="evenodd" d="M300.17 73.9023C302.69 73.9023 304.732 75.9448 304.732 78.4642L304.732 103.098C304.732 105.618 302.69 107.66 300.17 107.66C297.651 107.66 295.608 105.618 295.608 103.098L295.608 78.4642C295.608 75.9448 297.651 73.9023 300.17 73.9023Z" fill="#51DA4C"/>
<path fill-rule="evenodd" clip-rule="evenodd" d="M300.17 197.07C302.69 197.07 304.732 199.113 304.732 201.632L304.732 226.266C304.732 228.786 302.69 230.828 300.17 230.828C297.651 230.828 295.608 228.786 295.608 226.266L295.608 201.632C295.608 199.113 297.651 197.07 300.17 197.07Z" fill="#51DA4C"/>
<path fill-rule="evenodd" clip-rule="evenodd" d="M300.17 320.242C302.69 320.242 304.732 322.285 304.732 324.804L304.732 349.438C304.732 351.958 302.69 354 300.17 354C297.651 354 295.608 351.958 295.608 349.438L295.608 324.804C295.608 322.285 297.651 320.242 300.17 320.242Z" fill="#51DA4C"/>
<path fill-rule="evenodd" clip-rule="evenodd" d="M107.66 103.097C107.66 105.616 105.618 107.659 103.098 107.659L78.4643 107.659C75.9448 107.659 73.9024 105.616 73.9024 103.097C73.9024 100.578 75.9448 98.5352 78.4643 98.5352L103.098 98.5352C105.618 98.5352 107.66 100.578 107.66 103.097Z" fill="#51DA4C"/>
<path fill-rule="evenodd" clip-rule="evenodd" d="M107.66 226.269C107.66 228.788 105.618 230.831 103.098 230.831L78.4643 230.831C75.9448 230.831 73.9024 228.788 73.9024 226.269C73.9024 223.749 75.9448 221.707 78.4643 221.707L103.098 221.707C105.618 221.707 107.66 223.749 107.66 226.269Z" fill="#51DA4C"/>
<path fill-rule="evenodd" clip-rule="evenodd" d="M107.66 349.437C107.66 351.956 105.618 353.999 103.098 353.999L78.4643 353.999C75.9448 353.999 73.9024 351.956 73.9024 349.437C73.9024 346.917 75.9448 344.875 78.4643 344.875L103.098 344.875C105.618 344.875 107.66 346.917 107.66 349.437Z" fill="#51DA4C"/>
<path fill-rule="evenodd" clip-rule="evenodd" d="M230.83 103.097C230.83 105.616 228.788 107.659 226.268 107.659L201.634 107.659C199.115 107.659 197.072 105.616 197.072 103.097C197.072 100.578 199.115 98.5352 201.634 98.5352L226.268 98.5352C228.788 98.5352 230.83 100.578 230.83 103.097Z" fill="#51DA4C"/>
<path fill-rule="evenodd" clip-rule="evenodd" d="M230.83 226.269C230.83 228.788 228.788 230.831 226.268 230.831L201.634 230.831C199.115 230.831 197.072 228.788 197.072 226.269C197.072 223.749 199.115 221.707 201.634 221.707L226.268 221.707C228.788 221.707 230.83 223.749 230.83 226.269Z" fill="#51DA4C"/>
<path fill-rule="evenodd" clip-rule="evenodd" d="M230.83 349.437C230.83 351.956 228.788 353.999 226.268 353.999L201.634 353.999C199.115 353.999 197.072 351.956 197.072 349.437C197.072 346.917 199.115 344.875 201.634 344.875L226.268 344.875C228.788 344.875 230.83 346.917 230.83 349.437Z" fill="#51DA4C"/>
<path fill-rule="evenodd" clip-rule="evenodd" d="M354 103.097C354 105.616 351.958 107.659 349.438 107.659L324.804 107.659C322.285 107.659 320.242 105.616 320.242 103.097C320.242 100.578 322.285 98.5352 324.804 98.5352L349.438 98.5352C351.958 98.5352 354 100.578 354 103.097Z" fill="#51DA4C"/>
<path fill-rule="evenodd" clip-rule="evenodd" d="M354 226.269C354 228.788 351.958 230.831 349.438 230.831L324.804 230.831C322.285 230.831 320.242 228.788 320.242 226.269C320.242 223.749 322.285 221.707 324.804 221.707L349.438 221.707C351.958 221.707 354 223.749 354 226.269Z" fill="#51DA4C"/>
<path fill-rule="evenodd" clip-rule="evenodd" d="M354 349.437C354 351.956 351.958 353.999 349.438 353.999L324.804 353.999C322.285 353.999 320.242 351.956 320.242 349.437C320.242 346.917 322.285 344.875 324.804 344.875L349.438 344.875C351.958 344.875 354 346.917 354 349.437Z" fill="#51DA4C"/>
<path fill-rule="evenodd" clip-rule="evenodd" d="M5.98215e-07 4.56314C9.286e-07 2.0437 2.04241 0.00128868 4.56186 0.00128901L29.1959 0.00129224C31.7153 0.00129257 33.7577 2.04371 33.7577 4.56315C33.7577 7.08259 31.7153 9.125 29.1959 9.125L4.56186 9.125C2.04241 9.125 2.6783e-07 7.08259 5.98215e-07 4.56314Z" fill="#51DA4C"/>
<path fill-rule="evenodd" clip-rule="evenodd" d="M5.98215e-07 127.731C9.286e-07 125.212 2.04241 123.169 4.56186 123.169L29.1959 123.169C31.7153 123.169 33.7577 125.212 33.7577 127.731C33.7577 130.251 31.7153 132.293 29.1959 132.293L4.56186 132.293C2.04241 132.293 2.6783e-07 130.251 5.98215e-07 127.731Z" fill="#51DA4C"/>
<path fill-rule="evenodd" clip-rule="evenodd" d="M5.98215e-07 250.903C9.286e-07 248.384 2.04241 246.341 4.56186 246.341L29.1959 246.341C31.7153 246.341 33.7577 248.384 33.7577 250.903C33.7577 253.422 31.7153 255.465 29.1959 255.465L4.56186 255.465C2.04241 255.465 2.6783e-07 253.422 5.98215e-07 250.903Z" fill="#51DA4C"/>
<path fill-rule="evenodd" clip-rule="evenodd" d="M123.17 4.56314C123.17 2.0437 125.212 0.00128868 127.732 0.00128901L152.366 0.00129224C154.885 0.00129257 156.928 2.04371 156.928 4.56315C156.928 7.08259 154.885 9.125 152.366 9.125L127.732 9.125C125.212 9.125 123.17 7.08259 123.17 4.56314Z" fill="#51DA4C"/>
<path fill-rule="evenodd" clip-rule="evenodd" d="M123.17 127.731C123.17 125.212 125.212 123.169 127.732 123.169L152.366 123.169C154.885 123.169 156.928 125.212 156.928 127.731C156.928 130.251 154.885 132.293 152.366 132.293L127.732 132.293C125.212 132.293 123.17 130.251 123.17 127.731Z" fill="#51DA4C"/>
<path fill-rule="evenodd" clip-rule="evenodd" d="M123.17 250.903C123.17 248.384 125.212 246.341 127.732 246.341L152.366 246.341C154.885 246.341 156.928 248.384 156.928 250.903C156.928 253.422 154.885 255.465 152.366 255.465L127.732 255.465C125.212 255.465 123.17 253.422 123.17 250.903Z" fill="#51DA4C"/>
<path fill-rule="evenodd" clip-rule="evenodd" d="M246.34 4.56314C246.34 2.0437 248.382 0.00128868 250.902 0.00128901L275.536 0.00129224C278.055 0.00129257 280.098 2.04371 280.098 4.56315C280.098 7.08259 278.055 9.125 275.536 9.125L250.902 9.125C248.382 9.125 246.34 7.08259 246.34 4.56314Z" fill="#51DA4C"/>
<path fill-rule="evenodd" clip-rule="evenodd" d="M246.34 127.731C246.34 125.212 248.382 123.169 250.902 123.169L275.536 123.169C278.055 123.169 280.098 125.212 280.098 127.731C280.098 130.251 278.055 132.293 275.536 132.293L250.902 132.293C248.382 132.293 246.34 130.251 246.34 127.731Z" fill="#51DA4C"/>
<path fill-rule="evenodd" clip-rule="evenodd" d="M246.34 250.903C246.34 248.384 248.382 246.341 250.902 246.341L275.536 246.341C278.055 246.341 280.098 248.384 280.098 250.903C280.098 253.422 278.055 255.465 275.536 255.465L250.902 255.465C248.382 255.465 246.34 253.422 246.34 250.903Z" fill="#51DA4C"/>
<path fill-rule="evenodd" clip-rule="evenodd" d="M103.098 33.7578C100.579 33.7578 98.5364 31.7154 98.5364 29.196L98.5364 4.56194C98.5364 2.04249 100.579 8.02509e-05 103.098 8.00306e-05C105.618 7.98104e-05 107.66 2.04249 107.66 4.56194L107.66 29.196C107.66 31.7154 105.618 33.7578 103.098 33.7578Z" fill="#51DA4C"/>
<path fill-rule="evenodd" clip-rule="evenodd" d="M103.098 156.93C100.579 156.93 98.5364 154.887 98.5364 152.368L98.5364 127.734C98.5364 125.214 100.579 123.172 103.098 123.172C105.618 123.172 107.66 125.214 107.66 127.734L107.66 152.368C107.66 154.887 105.618 156.93 103.098 156.93Z" fill="#51DA4C"/>
<path fill-rule="evenodd" clip-rule="evenodd" d="M103.098 280.098C100.579 280.098 98.5364 278.055 98.5364 275.536L98.5364 250.902C98.5364 248.382 100.579 246.34 103.098 246.34C105.618 246.34 107.66 248.382 107.66 250.902L107.66 275.536C107.66 278.055 105.618 280.098 103.098 280.098Z" fill="#51DA4C"/>
<path fill-rule="evenodd" clip-rule="evenodd" d="M226.268 33.7578C223.749 33.7578 221.706 31.7154 221.706 29.196L221.706 4.56194C221.706 2.04249 223.749 8.02509e-05 226.268 8.00306e-05C228.788 7.98104e-05 230.83 2.04249 230.83 4.56194L230.83 29.196C230.83 31.7154 228.788 33.7578 226.268 33.7578Z" fill="#51DA4C"/>
<path fill-rule="evenodd" clip-rule="evenodd" d="M226.268 156.93C223.749 156.93 221.706 154.887 221.706 152.368L221.706 127.734C221.706 125.214 223.749 123.172 226.268 123.172C228.788 123.172 230.83 125.214 230.83 127.734L230.83 152.368C230.83 154.887 228.788 156.93 226.268 156.93Z" fill="#51DA4C"/>
<path fill-rule="evenodd" clip-rule="evenodd" d="M226.268 280.098C223.749 280.098 221.706 278.055 221.706 275.536L221.706 250.902C221.706 248.382 223.749 246.34 226.268 246.34C228.788 246.34 230.83 248.382 230.83 250.902L230.83 275.536C230.83 278.055 228.788 280.098 226.268 280.098Z" fill="#51DA4C"/>
<path fill-rule="evenodd" clip-rule="evenodd" d="M349.438 33.7578C346.919 33.7578 344.876 31.7154 344.876 29.196L344.876 4.56194C344.876 2.04249 346.919 8.02509e-05 349.438 8.00306e-05C351.958 7.98104e-05 354 2.04249 354 4.56194L354 29.196C354 31.7154 351.958 33.7578 349.438 33.7578Z" fill="#51DA4C"/>
<path fill-rule="evenodd" clip-rule="evenodd" d="M349.438 156.93C346.919 156.93 344.876 154.887 344.876 152.368L344.876 127.734C344.876 125.214 346.919 123.172 349.438 123.172C351.958 123.172 354 125.214 354 127.734L354 152.368C354 154.887 351.958 156.93 349.438 156.93Z" fill="#51DA4C"/>
<path fill-rule="evenodd" clip-rule="evenodd" d="M349.438 280.098C346.919 280.098 344.876 278.055 344.876 275.536L344.876 250.902C344.876 248.382 346.919 246.34 349.438 246.34C351.958 246.34 354 248.382 354 250.902L354 275.536C354 278.055 351.958 280.098 349.438 280.098Z" fill="#51DA4C"/>
<path fill-rule="evenodd" clip-rule="evenodd" d="M4.56186 73.9023C7.0813 73.9023 9.12371 75.9448 9.12371 78.4642L9.12371 103.098C9.12371 105.618 7.0813 107.66 4.56186 107.66C2.04241 107.66 0 105.618 0 103.098L0 78.4642C0 75.9448 2.04241 73.9023 4.56186 73.9023Z" fill="#51DA4C"/>
<path fill-rule="evenodd" clip-rule="evenodd" d="M4.56186 197.07C7.0813 197.07 9.12371 199.113 9.12371 201.632L9.12371 226.266C9.12371 228.786 7.0813 230.828 4.56186 230.828C2.04241 230.828 0 228.786 0 226.266L0 201.632C0 199.113 2.04241 197.07 4.56186 197.07Z" fill="#51DA4C"/>
<path fill-rule="evenodd" clip-rule="evenodd" d="M4.56186 320.242C7.0813 320.242 9.12371 322.285 9.12371 324.804L9.12371 349.438C9.12371 351.958 7.0813 354 4.56186 354C2.04241 354 0 351.958 0 349.438L0 324.804C0 322.285 2.04241 320.242 4.56186 320.242Z" fill="#51DA4C"/>
<path fill-rule="evenodd" clip-rule="evenodd" d="M127.732 73.9023C130.251 73.9023 132.294 75.9448 132.294 78.4642L132.294 103.098C132.294 105.618 130.251 107.66 127.732 107.66C125.212 107.66 123.17 105.618 123.17 103.098L123.17 78.4642C123.17 75.9448 125.212 73.9023 127.732 73.9023Z" fill="#51DA4C"/>
<path fill-rule="evenodd" clip-rule="evenodd" d="M127.732 197.07C130.251 197.07 132.294 199.113 132.294 201.632L132.294 226.266C132.294 228.786 130.251 230.828 127.732 230.828C125.212 230.828 123.17 228.786 123.17 226.266L123.17 201.632C123.17 199.113 125.212 197.07 127.732 197.07Z" fill="#51DA4C"/>
<path fill-rule="evenodd" clip-rule="evenodd" d="M127.732 320.242C130.251 320.242 132.294 322.285 132.294 324.804L132.294 349.438C132.294 351.958 130.251 354 127.732 354C125.212 354 123.17 351.958 123.17 349.438L123.17 324.804C123.17 322.285 125.212 320.242 127.732 320.242Z" fill="#51DA4C"/>
<path fill-rule="evenodd" clip-rule="evenodd" d="M250.902 73.9023C253.421 73.9023 255.464 75.9448 255.464 78.4642L255.464 103.098C255.464 105.618 253.421 107.66 250.902 107.66C248.382 107.66 246.34 105.618 246.34 103.098L246.34 78.4642C246.34 75.9448 248.382 73.9023 250.902 73.9023Z" fill="#51DA4C"/>
<path fill-rule="evenodd" clip-rule="evenodd" d="M250.902 197.07C253.421 197.07 255.464 199.113 255.464 201.632L255.464 226.266C255.464 228.786 253.421 230.828 250.902 230.828C248.382 230.828 246.34 228.786 246.34 226.266L246.34 201.632C246.34 199.113 248.382 197.07 250.902 197.07Z" fill="#51DA4C"/>
<path fill-rule="evenodd" clip-rule="evenodd" d="M250.902 320.242C253.421 320.242 255.464 322.285 255.464 324.804L255.464 349.438C255.464 351.958 253.421 354 250.902 354C248.382 354 246.34 351.958 246.34 349.438L246.34 324.804C246.34 322.285 248.382 320.242 250.902 320.242Z" fill="#51DA4C"/>
<path fill-rule="evenodd" clip-rule="evenodd" d="M83.0254 78.4642C83.0254 80.9836 80.983 83.0261 78.4635 83.0261L53.8295 83.0261C51.3101 83.0261 49.2677 80.9836 49.2677 78.4642C49.2677 75.9448 51.3101 73.9023 53.8295 73.9023L78.4635 73.9023C80.983 73.9023 83.0254 75.9448 83.0254 78.4642Z" fill="#51DA4C"/>
<path fill-rule="evenodd" clip-rule="evenodd" d="M83.0254 201.632C83.0254 204.152 80.983 206.194 78.4635 206.194L53.8295 206.194C51.3101 206.194 49.2677 204.152 49.2677 201.632C49.2677 199.113 51.3101 197.07 53.8295 197.07L78.4635 197.07C80.983 197.07 83.0254 199.113 83.0254 201.632Z" fill="#51DA4C"/>
<path fill-rule="evenodd" clip-rule="evenodd" d="M83.0254 324.804C83.0254 327.323 80.983 329.366 78.4635 329.366L53.8295 329.366C51.3101 329.366 49.2677 327.323 49.2677 324.804C49.2677 322.285 51.3101 320.242 53.8295 320.242L78.4635 320.242C80.983 320.242 83.0254 322.285 83.0254 324.804Z" fill="#51DA4C"/>
<path fill-rule="evenodd" clip-rule="evenodd" d="M206.196 78.4642C206.196 80.9836 204.154 83.0261 201.634 83.0261L177 83.0261C174.481 83.0261 172.439 80.9836 172.439 78.4642C172.439 75.9448 174.481 73.9023 177 73.9023L201.634 73.9023C204.154 73.9023 206.196 75.9448 206.196 78.4642Z" fill="#51DA4C"/>
<path fill-rule="evenodd" clip-rule="evenodd" d="M206.196 201.632C206.196 204.152 204.154 206.194 201.634 206.194L177 206.194C174.481 206.194 172.439 204.152 172.439 201.632C172.439 199.113 174.481 197.07 177 197.07L201.634 197.07C204.154 197.07 206.196 199.113 206.196 201.632Z" fill="#51DA4C"/>
<path fill-rule="evenodd" clip-rule="evenodd" d="M206.196 324.804C206.196 327.323 204.154 329.366 201.634 329.366L177 329.366C174.481 329.366 172.439 327.323 172.439 324.804C172.439 322.285 174.481 320.242 177 320.242L201.634 320.242C204.154 320.242 206.196 322.285 206.196 324.804Z" fill="#51DA4C"/>
<path fill-rule="evenodd" clip-rule="evenodd" d="M329.366 78.4642C329.366 80.9836 327.324 83.0261 324.804 83.0261L300.17 83.0261C297.651 83.0261 295.608 80.9836 295.608 78.4642C295.608 75.9448 297.651 73.9023 300.17 73.9023L324.804 73.9023C327.324 73.9023 329.366 75.9448 329.366 78.4642Z" fill="#51DA4C"/>
<path fill-rule="evenodd" clip-rule="evenodd" d="M329.366 201.632C329.366 204.152 327.324 206.194 324.804 206.194L300.17 206.194C297.651 206.194 295.608 204.152 295.608 201.632C295.608 199.113 297.651 197.07 300.17 197.07L324.804 197.07C327.324 197.07 329.366 199.113 329.366 201.632Z" fill="#51DA4C"/>
<path fill-rule="evenodd" clip-rule="evenodd" d="M329.366 324.804C329.366 327.323 327.324 329.366 324.804 329.366L300.17 329.366C297.651 329.366 295.608 327.323 295.608 324.804C295.608 322.285 297.651 320.242 300.17 320.242L324.804 320.242C327.324 320.242 329.366 322.285 329.366 324.804Z" fill="#51DA4C"/>
<path fill-rule="evenodd" clip-rule="evenodd" d="M107.66 53.8314C107.66 56.3508 105.618 58.3932 103.098 58.3932L78.4643 58.3932C75.9448 58.3932 73.9024 56.3508 73.9024 53.8314C73.9024 51.3119 75.9448 49.2695 78.4643 49.2695L103.098 49.2695C105.618 49.2695 107.66 51.3119 107.66 53.8314Z" fill="#51DA4C"/>
<path fill-rule="evenodd" clip-rule="evenodd" d="M107.66 176.999C107.66 179.519 105.618 181.561 103.098 181.561L78.4643 181.561C75.9448 181.561 73.9024 179.519 73.9024 176.999C73.9024 174.48 75.9448 172.437 78.4643 172.437L103.098 172.437C105.618 172.437 107.66 174.48 107.66 176.999Z" fill="#51DA4C"/>
<path fill-rule="evenodd" clip-rule="evenodd" d="M107.66 300.171C107.66 302.691 105.618 304.733 103.098 304.733L78.4643 304.733C75.9448 304.733 73.9024 302.691 73.9024 300.171C73.9024 297.652 75.9448 295.609 78.4643 295.609L103.098 295.609C105.618 295.609 107.66 297.652 107.66 300.171Z" fill="#51DA4C"/>
<path fill-rule="evenodd" clip-rule="evenodd" d="M230.83 53.8314C230.83 56.3508 228.788 58.3932 226.268 58.3932L201.634 58.3932C199.115 58.3932 197.072 56.3508 197.072 53.8314C197.072 51.3119 199.115 49.2695 201.634 49.2695L226.268 49.2695C228.788 49.2695 230.83 51.3119 230.83 53.8314Z" fill="#51DA4C"/>
<path fill-rule="evenodd" clip-rule="evenodd" d="M230.83 176.999C230.83 179.519 228.788 181.561 226.268 181.561L201.634 181.561C199.115 181.561 197.072 179.519 197.072 176.999C197.072 174.48 199.115 172.437 201.634 172.437L226.268 172.437C228.788 172.437 230.83 174.48 230.83 176.999Z" fill="#51DA4C"/>
<path fill-rule="evenodd" clip-rule="evenodd" d="M230.83 300.171C230.83 302.691 228.788 304.733 226.268 304.733L201.634 304.733C199.115 304.733 197.072 302.691 197.072 300.171C197.072 297.652 199.115 295.609 201.634 295.609L226.268 295.609C228.788 295.609 230.83 297.652 230.83 300.171Z" fill="#51DA4C"/>
<path fill-rule="evenodd" clip-rule="evenodd" d="M354 53.8314C354 56.3508 351.958 58.3932 349.438 58.3932L324.804 58.3932C322.285 58.3932 320.242 56.3508 320.242 53.8314C320.242 51.3119 322.285 49.2695 324.804 49.2695L349.438 49.2695C351.958 49.2695 354 51.3119 354 53.8314Z" fill="#51DA4C"/>
<path fill-rule="evenodd" clip-rule="evenodd" d="M354 176.999C354 179.519 351.958 181.561 349.438 181.561L324.804 181.561C322.285 181.561 320.242 179.519 320.242 176.999C320.242 174.48 322.285 172.437 324.804 172.437L349.438 172.437C351.958 172.437 354 174.48 354 176.999Z" fill="#51DA4C"/>
<path fill-rule="evenodd" clip-rule="evenodd" d="M354 300.171C354 302.691 351.958 304.733 349.438 304.733L324.804 304.733C322.285 304.733 320.242 302.691 320.242 300.171C320.242 297.652 322.285 295.609 324.804 295.609L349.438 295.609C351.958 295.609 354 297.652 354 300.171Z" fill="#51DA4C"/>
<path fill-rule="evenodd" clip-rule="evenodd" d="M33.7578 53.8314C33.7578 56.3508 31.7154 58.3932 29.196 58.3932L4.56194 58.3932C2.04249 58.3932 7.93223e-05 56.3508 7.94324e-05 53.8314C7.95425e-05 51.3119 2.04249 49.2695 4.56194 49.2695L29.196 49.2695C31.7154 49.2695 33.7578 51.3119 33.7578 53.8314Z" fill="#51DA4C"/>
<path fill-rule="evenodd" clip-rule="evenodd" d="M33.7578 176.999C33.7578 179.519 31.7154 181.561 29.196 181.561L4.56194 181.561C2.04249 181.561 7.93223e-05 179.519 7.94324e-05 176.999C7.95425e-05 174.48 2.04249 172.437 4.56194 172.437L29.196 172.437C31.7154 172.437 33.7578 174.48 33.7578 176.999Z" fill="#51DA4C"/>
<path fill-rule="evenodd" clip-rule="evenodd" d="M33.7578 300.171C33.7578 302.691 31.7154 304.733 29.196 304.733L4.56194 304.733C2.04249 304.733 7.93223e-05 302.691 7.94324e-05 300.171C7.95425e-05 297.652 2.04249 295.609 4.56194 295.609L29.196 295.609C31.7154 295.609 33.7578 297.652 33.7578 300.171Z" fill="#51DA4C"/>
<path fill-rule="evenodd" clip-rule="evenodd" d="M156.928 53.8314C156.928 56.3508 154.885 58.3932 152.366 58.3932L127.732 58.3932C125.212 58.3932 123.17 56.3508 123.17 53.8314C123.17 51.3119 125.212 49.2695 127.732 49.2695L152.366 49.2695C154.885 49.2695 156.928 51.3119 156.928 53.8314Z" fill="#51DA4C"/>
<path fill-rule="evenodd" clip-rule="evenodd" d="M156.928 176.999C156.928 179.519 154.885 181.561 152.366 181.561L127.732 181.561C125.212 181.561 123.17 179.519 123.17 176.999C123.17 174.48 125.212 172.437 127.732 172.437L152.366 172.437C154.885 172.437 156.928 174.48 156.928 176.999Z" fill="#51DA4C"/>
<path fill-rule="evenodd" clip-rule="evenodd" d="M156.928 300.171C156.928 302.691 154.885 304.733 152.366 304.733L127.732 304.733C125.212 304.733 123.17 302.691 123.17 300.171C123.17 297.652 125.212 295.609 127.732 295.609L152.366 295.609C154.885 295.609 156.928 297.652 156.928 300.171Z" fill="#51DA4C"/>
<path fill-rule="evenodd" clip-rule="evenodd" d="M280.098 53.8314C280.098 56.3508 278.055 58.3932 275.536 58.3932L250.902 58.3932C248.382 58.3932 246.34 56.3508 246.34 53.8314C246.34 51.3119 248.382 49.2695 250.902 49.2695L275.536 49.2695C278.055 49.2695 280.098 51.3119 280.098 53.8314Z" fill="#51DA4C"/>
<path fill-rule="evenodd" clip-rule="evenodd" d="M280.098 176.999C280.098 179.519 278.055 181.561 275.536 181.561L250.902 181.561C248.382 181.561 246.34 179.519 246.34 176.999C246.34 174.48 248.382 172.437 250.902 172.437L275.536 172.437C278.055 172.437 280.098 174.48 280.098 176.999Z" fill="#51DA4C"/>
<path fill-rule="evenodd" clip-rule="evenodd" d="M280.098 300.171C280.098 302.691 278.055 304.733 275.536 304.733L250.902 304.733C248.382 304.733 246.34 302.691 246.34 300.171C246.34 297.652 248.382 295.609 250.902 295.609L275.536 295.609C278.055 295.609 280.098 297.652 280.098 300.171Z" fill="#51DA4C"/>
<path fill-rule="evenodd" clip-rule="evenodd" d="M24.6338 29.196C24.6338 26.6765 26.6762 24.6341 29.1956 24.6341L53.8297 24.6341C56.3491 24.6341 58.3915 26.6765 58.3915 29.196C58.3915 31.7154 56.3491 33.7578 53.8297 33.7578L29.1956 33.7578C26.6762 33.7578 24.6338 31.7154 24.6338 29.196Z" fill="#51DA4C"/>
<path fill-rule="evenodd" clip-rule="evenodd" d="M24.6338 152.368C24.6338 149.848 26.6762 147.806 29.1956 147.806L53.8297 147.806C56.3491 147.806 58.3915 149.848 58.3915 152.368C58.3915 154.887 56.3491 156.93 53.8297 156.93L29.1956 156.93C26.6762 156.93 24.6338 154.887 24.6338 152.368Z" fill="#51DA4C"/>
<path fill-rule="evenodd" clip-rule="evenodd" d="M24.6338 275.536C24.6338 273.016 26.6762 270.974 29.1956 270.974L53.8297 270.974C56.3491 270.974 58.3915 273.016 58.3915 275.536C58.3915 278.055 56.3491 280.098 53.8297 280.098L29.1956 280.098C26.6762 280.098 24.6338 278.055 24.6338 275.536Z" fill="#51DA4C"/>
<path fill-rule="evenodd" clip-rule="evenodd" d="M147.804 29.196C147.804 26.6765 149.846 24.6341 152.366 24.6341L177 24.6341C179.519 24.6341 181.561 26.6765 181.561 29.196C181.561 31.7154 179.519 33.7578 177 33.7578L152.366 33.7578C149.846 33.7578 147.804 31.7154 147.804 29.196Z" fill="#51DA4C"/>
<path fill-rule="evenodd" clip-rule="evenodd" d="M147.804 152.368C147.804 149.848 149.846 147.806 152.366 147.806L177 147.806C179.519 147.806 181.561 149.848 181.561 152.368C181.561 154.887 179.519 156.93 177 156.93L152.366 156.93C149.846 156.93 147.804 154.887 147.804 152.368Z" fill="#51DA4C"/>
<path fill-rule="evenodd" clip-rule="evenodd" d="M147.804 275.536C147.804 273.016 149.846 270.974 152.366 270.974L177 270.974C179.519 270.974 181.561 273.016 181.561 275.536C181.561 278.055 179.519 280.098 177 280.098L152.366 280.098C149.846 280.098 147.804 278.055 147.804 275.536Z" fill="#51DA4C"/>
<path fill-rule="evenodd" clip-rule="evenodd" d="M270.975 29.196C270.975 26.6765 273.017 24.6341 275.536 24.6341L300.17 24.6341C302.69 24.6341 304.732 26.6765 304.732 29.196C304.732 31.7154 302.69 33.7578 300.17 33.7578L275.536 33.7578C273.017 33.7578 270.975 31.7154 270.975 29.196Z" fill="#51DA4C"/>
<path fill-rule="evenodd" clip-rule="evenodd" d="M270.975 152.368C270.975 149.848 273.017 147.806 275.536 147.806L300.17 147.806C302.69 147.806 304.732 149.848 304.732 152.368C304.732 154.887 302.69 156.93 300.17 156.93L275.536 156.93C273.017 156.93 270.975 154.887 270.975 152.368Z" fill="#51DA4C"/>
<path fill-rule="evenodd" clip-rule="evenodd" d="M270.975 275.536C270.975 273.016 273.017 270.974 275.536 270.974L300.17 270.974C302.69 270.974 304.732 273.016 304.732 275.536C304.732 278.055 302.69 280.098 300.17 280.098L275.536 280.098C273.017 280.098 270.975 278.055 270.975 275.536Z" fill="#51DA4C"/>
<path fill-rule="evenodd" clip-rule="evenodd" d="M73.9023 4.56314C73.9023 2.0437 75.9448 0.00128841 78.4642 0.00128841L103.098 0.00128841C105.618 0.00128841 107.66 2.0437 107.66 4.56314C107.66 7.08259 105.618 9.125 103.098 9.125L78.4642 9.125C75.9448 9.125 73.9023 7.08259 73.9023 4.56314Z" fill="#51DA4C"/>
<path fill-rule="evenodd" clip-rule="evenodd" d="M73.9023 127.731C73.9023 125.212 75.9448 123.169 78.4642 123.169L103.098 123.169C105.618 123.169 107.66 125.212 107.66 127.731C107.66 130.251 105.618 132.293 103.098 132.293L78.4642 132.293C75.9448 132.293 73.9023 130.251 73.9023 127.731Z" fill="#51DA4C"/>
<path fill-rule="evenodd" clip-rule="evenodd" d="M73.9023 250.903C73.9023 248.384 75.9448 246.341 78.4642 246.341L103.098 246.341C105.618 246.341 107.66 248.384 107.66 250.903C107.66 253.422 105.618 255.465 103.098 255.465L78.4642 255.465C75.9448 255.465 73.9023 253.422 73.9023 250.903Z" fill="#51DA4C"/>
<path fill-rule="evenodd" clip-rule="evenodd" d="M197.072 4.56314C197.072 2.0437 199.115 0.00128841 201.634 0.00128841L226.268 0.00128841C228.788 0.00128841 230.83 2.0437 230.83 4.56314C230.83 7.08259 228.788 9.125 226.268 9.125L201.634 9.125C199.115 9.125 197.072 7.08259 197.072 4.56314Z" fill="#51DA4C"/>
<path fill-rule="evenodd" clip-rule="evenodd" d="M197.072 127.731C197.072 125.212 199.115 123.169 201.634 123.169L226.268 123.169C228.788 123.169 230.83 125.212 230.83 127.731C230.83 130.251 228.788 132.293 226.268 132.293L201.634 132.293C199.115 132.293 197.072 130.251 197.072 127.731Z" fill="#51DA4C"/>
<path fill-rule="evenodd" clip-rule="evenodd" d="M197.072 250.903C197.072 248.384 199.115 246.341 201.634 246.341L226.268 246.341C228.788 246.341 230.83 248.384 230.83 250.903C230.83 253.422 228.788 255.465 226.268 255.465L201.634 255.465C199.115 255.465 197.072 253.422 197.072 250.903Z" fill="#51DA4C"/>
<path fill-rule="evenodd" clip-rule="evenodd" d="M320.242 4.56314C320.242 2.0437 322.285 0.00128841 324.804 0.00128841L349.438 0.00128841C351.958 0.00128841 354 2.0437 354 4.56314C354 7.08259 351.958 9.125 349.438 9.125L324.804 9.125C322.285 9.125 320.242 7.08259 320.242 4.56314Z" fill="#51DA4C"/>
<path fill-rule="evenodd" clip-rule="evenodd" d="M320.242 127.731C320.242 125.212 322.285 123.169 324.804 123.169L349.438 123.169C351.958 123.169 354 125.212 354 127.731C354 130.251 351.958 132.293 349.438 132.293L324.804 132.293C322.285 132.293 320.242 130.251 320.242 127.731Z" fill="#51DA4C"/>
<path fill-rule="evenodd" clip-rule="evenodd" d="M320.242 250.903C320.242 248.384 322.285 246.341 324.804 246.341L349.438 246.341C351.958 246.341 354 248.384 354 250.903C354 253.422 351.958 255.465 349.438 255.465L324.804 255.465C322.285 255.465 320.242 253.422 320.242 250.903Z" fill="#51DA4C"/>
<path fill-rule="evenodd" clip-rule="evenodd" d="M33.7578 103.097C33.7578 105.616 31.7154 107.659 29.196 107.659L4.56193 107.659C2.04249 107.659 7.90127e-05 105.616 7.9233e-05 103.097C7.94533e-05 100.578 2.04249 98.5352 4.56194 98.5352L29.196 98.5352C31.7154 98.5352 33.7578 100.578 33.7578 103.097Z" fill="#51DA4C"/>
<path fill-rule="evenodd" clip-rule="evenodd" d="M33.7578 226.269C33.7578 228.788 31.7154 230.831 29.196 230.831L4.56193 230.831C2.04249 230.831 7.90127e-05 228.788 7.9233e-05 226.269C7.94533e-05 223.749 2.04249 221.707 4.56194 221.707L29.196 221.707C31.7154 221.707 33.7578 223.749 33.7578 226.269Z" fill="#51DA4C"/>
<path fill-rule="evenodd" clip-rule="evenodd" d="M33.7578 349.437C33.7578 351.956 31.7154 353.999 29.196 353.999L4.56193 353.999C2.04249 353.999 7.90127e-05 351.956 7.9233e-05 349.437C7.94533e-05 346.917 2.04249 344.875 4.56194 344.875L29.196 344.875C31.7154 344.875 33.7578 346.917 33.7578 349.437Z" fill="#51DA4C"/>
<path fill-rule="evenodd" clip-rule="evenodd" d="M156.928 103.097C156.928 105.616 154.885 107.659 152.366 107.659L127.732 107.659C125.212 107.659 123.17 105.616 123.17 103.097C123.17 100.578 125.212 98.5352 127.732 98.5352L152.366 98.5352C154.885 98.5352 156.928 100.578 156.928 103.097Z" fill="#51DA4C"/>
<path fill-rule="evenodd" clip-rule="evenodd" d="M156.928 226.269C156.928 228.788 154.885 230.831 152.366 230.831L127.732 230.831C125.212 230.831 123.17 228.788 123.17 226.269C123.17 223.749 125.212 221.707 127.732 221.707L152.366 221.707C154.885 221.707 156.928 223.749 156.928 226.269Z" fill="#51DA4C"/>
<path fill-rule="evenodd" clip-rule="evenodd" d="M156.928 349.437C156.928 351.956 154.885 353.999 152.366 353.999L127.732 353.999C125.212 353.999 123.17 351.956 123.17 349.437C123.17 346.917 125.212 344.875 127.732 344.875L152.366 344.875C154.885 344.875 156.928 346.917 156.928 349.437Z" fill="#51DA4C"/>
<path fill-rule="evenodd" clip-rule="evenodd" d="M280.098 103.097C280.098 105.616 278.055 107.659 275.536 107.659L250.902 107.659C248.382 107.659 246.34 105.616 246.34 103.097C246.34 100.578 248.382 98.5352 250.902 98.5352L275.536 98.5352C278.055 98.5352 280.098 100.578 280.098 103.097Z" fill="#51DA4C"/>
<path fill-rule="evenodd" clip-rule="evenodd" d="M280.098 226.269C280.098 228.788 278.055 230.831 275.536 230.831L250.902 230.831C248.382 230.831 246.34 228.788 246.34 226.269C246.34 223.749 248.382 221.707 250.902 221.707L275.536 221.707C278.055 221.707 280.098 223.749 280.098 226.269Z" fill="#51DA4C"/>
<path fill-rule="evenodd" clip-rule="evenodd" d="M280.098 349.437C280.098 351.956 278.055 353.999 275.536 353.999L250.902 353.999C248.382 353.999 246.34 351.956 246.34 349.437C246.34 346.917 248.382 344.875 250.902 344.875L275.536 344.875C278.055 344.875 280.098 346.917 280.098 349.437Z" fill="#51DA4C"/>
<path fill-rule="evenodd" clip-rule="evenodd" d="M53.8297 107.66C51.3103 107.66 49.2679 105.618 49.2679 103.098L49.2679 78.4643C49.2679 75.9448 51.3103 73.9024 53.8298 73.9024C56.3492 73.9024 58.3916 75.9448 58.3916 78.4643L58.3916 103.098C58.3916 105.618 56.3492 107.66 53.8297 107.66Z" fill="#51DA4C"/>
<path fill-rule="evenodd" clip-rule="evenodd" d="M53.8297 230.832C51.3103 230.832 49.2679 228.79 49.2679 226.27L49.2679 201.636C49.2679 199.117 51.3103 197.074 53.8298 197.074C56.3492 197.074 58.3916 199.117 58.3916 201.636L58.3916 226.27C58.3916 228.79 56.3492 230.832 53.8297 230.832Z" fill="#51DA4C"/>
<path fill-rule="evenodd" clip-rule="evenodd" d="M53.8297 354C51.3103 354 49.2679 351.958 49.2679 349.438L49.2679 324.804C49.2679 322.285 51.3103 320.242 53.8298 320.242C56.3492 320.242 58.3916 322.285 58.3916 324.804L58.3916 349.438C58.3916 351.958 56.3492 354 53.8297 354Z" fill="#51DA4C"/>
<path fill-rule="evenodd" clip-rule="evenodd" d="M177 107.66C174.48 107.66 172.438 105.618 172.438 103.098L172.438 78.4643C172.438 75.9448 174.48 73.9024 177 73.9024C179.519 73.9024 181.562 75.9448 181.562 78.4643L181.562 103.098C181.562 105.618 179.519 107.66 177 107.66Z" fill="#51DA4C"/>
<path fill-rule="evenodd" clip-rule="evenodd" d="M177 230.832C174.48 230.832 172.438 228.79 172.438 226.27L172.438 201.636C172.438 199.117 174.48 197.074 177 197.074C179.519 197.074 181.562 199.117 181.562 201.636L181.562 226.27C181.562 228.79 179.519 230.832 177 230.832Z" fill="#51DA4C"/>
<path fill-rule="evenodd" clip-rule="evenodd" d="M177 354C174.48 354 172.438 351.958 172.438 349.438L172.438 324.804C172.438 322.285 174.48 320.242 177 320.242C179.519 320.242 181.562 322.285 181.562 324.804L181.562 349.438C181.562 351.958 179.519 354 177 354Z" fill="#51DA4C"/>
<path fill-rule="evenodd" clip-rule="evenodd" d="M300.171 107.66C297.651 107.66 295.609 105.618 295.609 103.098L295.609 78.4643C295.609 75.9448 297.651 73.9024 300.171 73.9024C302.69 73.9024 304.732 75.9448 304.732 78.4643L304.732 103.098C304.732 105.618 302.69 107.66 300.171 107.66Z" fill="#51DA4C"/>
<path fill-rule="evenodd" clip-rule="evenodd" d="M300.171 230.832C297.651 230.832 295.609 228.79 295.609 226.27L295.609 201.636C295.609 199.117 297.651 197.074 300.171 197.074C302.69 197.074 304.732 199.117 304.732 201.636L304.732 226.27C304.732 228.79 302.69 230.832 300.171 230.832Z" fill="#51DA4C"/>
<path fill-rule="evenodd" clip-rule="evenodd" d="M300.171 354C297.651 354 295.609 351.958 295.609 349.438L295.609 324.804C295.609 322.285 297.651 320.242 300.171 320.242C302.69 320.242 304.732 322.285 304.732 324.804L304.732 349.438C304.732 351.958 302.69 354 300.171 354Z" fill="#51DA4C"/>
<path fill-rule="evenodd" clip-rule="evenodd" d="M53.8294 9.97025e-07C56.3489 1.54767e-06 58.3913 2.04241 58.3913 4.56186L58.3913 29.1959C58.3913 31.7153 56.3489 33.7577 53.8294 33.7577C51.31 33.7577 49.2676 31.7153 49.2676 29.1959L49.2676 4.56186C49.2676 2.04241 51.31 4.46383e-07 53.8294 9.97025e-07Z" fill="#51DA4C"/>
<path fill-rule="evenodd" clip-rule="evenodd" d="M53.8294 123.172C56.3489 123.172 58.3913 125.214 58.3913 127.734L58.3913 152.368C58.3913 154.887 56.3489 156.93 53.8294 156.93C51.31 156.93 49.2676 154.887 49.2676 152.368L49.2676 127.734C49.2676 125.214 51.31 123.172 53.8294 123.172Z" fill="#51DA4C"/>
<path fill-rule="evenodd" clip-rule="evenodd" d="M53.8294 246.34C56.3489 246.34 58.3913 248.382 58.3913 250.902L58.3913 275.536C58.3913 278.055 56.3489 280.098 53.8294 280.098C51.31 280.098 49.2676 278.055 49.2676 275.536L49.2676 250.902C49.2676 248.382 51.31 246.34 53.8294 246.34Z" fill="#51DA4C"/>
<path fill-rule="evenodd" clip-rule="evenodd" d="M177 9.97025e-07C179.52 1.54767e-06 181.562 2.04241 181.562 4.56186L181.562 29.1959C181.562 31.7153 179.52 33.7577 177 33.7577C174.481 33.7577 172.438 31.7153 172.438 29.1959L172.438 4.56186C172.438 2.04241 174.481 4.46383e-07 177 9.97025e-07Z" fill="#51DA4C"/>
<path fill-rule="evenodd" clip-rule="evenodd" d="M177 123.172C179.52 123.172 181.562 125.214 181.562 127.734L181.562 152.368C181.562 154.887 179.52 156.93 177 156.93C174.481 156.93 172.438 154.887 172.438 152.368L172.438 127.734C172.438 125.214 174.481 123.172 177 123.172Z" fill="#51DA4C"/>
<path fill-rule="evenodd" clip-rule="evenodd" d="M177 246.34C179.52 246.34 181.562 248.382 181.562 250.902L181.562 275.536C181.562 278.055 179.52 280.098 177 280.098C174.481 280.098 172.438 278.055 172.438 275.536L172.438 250.902C172.438 248.382 174.481 246.34 177 246.34Z" fill="#51DA4C"/>
<path fill-rule="evenodd" clip-rule="evenodd" d="M300.17 9.97025e-07C302.69 1.54767e-06 304.732 2.04241 304.732 4.56186L304.732 29.1959C304.732 31.7153 302.69 33.7577 300.17 33.7577C297.651 33.7577 295.608 31.7153 295.608 29.1959L295.608 4.56186C295.608 2.04241 297.651 4.46383e-07 300.17 9.97025e-07Z" fill="#51DA4C"/>
<path fill-rule="evenodd" clip-rule="evenodd" d="M300.17 123.172C302.69 123.172 304.732 125.214 304.732 127.734L304.732 152.368C304.732 154.887 302.69 156.93 300.17 156.93C297.651 156.93 295.608 154.887 295.608 152.368L295.608 127.734C295.608 125.214 297.651 123.172 300.17 123.172Z" fill="#51DA4C"/>
<path fill-rule="evenodd" clip-rule="evenodd" d="M300.17 246.34C302.69 246.34 304.732 248.382 304.732 250.902L304.732 275.536C304.732 278.055 302.69 280.098 300.17 280.098C297.651 280.098 295.608 278.055 295.608 275.536L295.608 250.902C295.608 248.382 297.651 246.34 300.17 246.34Z" fill="#51DA4C"/>
<path fill-rule="evenodd" clip-rule="evenodd" d="M49.2676 29.196C49.2676 26.6765 51.31 24.6341 53.8294 24.6341L78.4635 24.6341C80.9829 24.6341 83.0253 26.6765 83.0253 29.196C83.0253 31.7154 80.9829 33.7578 78.4635 33.7578L53.8294 33.7578C51.31 33.7578 49.2676 31.7154 49.2676 29.196Z" fill="#51DA4C"/>
<path fill-rule="evenodd" clip-rule="evenodd" d="M49.2676 152.368C49.2676 149.848 51.31 147.806 53.8294 147.806L78.4635 147.806C80.9829 147.806 83.0253 149.848 83.0253 152.368C83.0253 154.887 80.9829 156.93 78.4635 156.93L53.8294 156.93C51.31 156.93 49.2676 154.887 49.2676 152.368Z" fill="#51DA4C"/>
<path fill-rule="evenodd" clip-rule="evenodd" d="M49.2676 275.536C49.2676 273.016 51.31 270.974 53.8294 270.974L78.4635 270.974C80.9829 270.974 83.0253 273.016 83.0253 275.536C83.0253 278.055 80.9829 280.098 78.4635 280.098L53.8294 280.098C51.31 280.098 49.2676 278.055 49.2676 275.536Z" fill="#51DA4C"/>
<path fill-rule="evenodd" clip-rule="evenodd" d="M172.438 29.196C172.438 26.6765 174.481 24.6341 177 24.6341L201.634 24.6341C204.154 24.6341 206.196 26.6765 206.196 29.196C206.196 31.7154 204.154 33.7578 201.634 33.7578L177 33.7578C174.481 33.7578 172.438 31.7154 172.438 29.196Z" fill="#51DA4C"/>
<path fill-rule="evenodd" clip-rule="evenodd" d="M172.438 152.368C172.438 149.848 174.481 147.806 177 147.806L201.634 147.806C204.154 147.806 206.196 149.848 206.196 152.368C206.196 154.887 204.154 156.93 201.634 156.93L177 156.93C174.481 156.93 172.438 154.887 172.438 152.368Z" fill="#51DA4C"/>
<path fill-rule="evenodd" clip-rule="evenodd" d="M172.438 275.536C172.438 273.016 174.481 270.974 177 270.974L201.634 270.974C204.154 270.974 206.196 273.016 206.196 275.536C206.196 278.055 204.154 280.098 201.634 280.098L177 280.098C174.481 280.098 172.438 278.055 172.438 275.536Z" fill="#51DA4C"/>
<path fill-rule="evenodd" clip-rule="evenodd" d="M295.608 29.196C295.608 26.6765 297.651 24.6341 300.17 24.6341L324.804 24.6341C327.324 24.6341 329.366 26.6765 329.366 29.196C329.366 31.7154 327.324 33.7578 324.804 33.7578L300.17 33.7578C297.651 33.7578 295.608 31.7154 295.608 29.196Z" fill="#51DA4C"/>
<path fill-rule="evenodd" clip-rule="evenodd" d="M295.608 152.368C295.608 149.848 297.651 147.806 300.17 147.806L324.804 147.806C327.324 147.806 329.366 149.848 329.366 152.368C329.366 154.887 327.324 156.93 324.804 156.93L300.17 156.93C297.651 156.93 295.608 154.887 295.608 152.368Z" fill="#51DA4C"/>
<path fill-rule="evenodd" clip-rule="evenodd" d="M295.608 275.536C295.608 273.016 297.651 270.974 300.17 270.974L324.804 270.974C327.324 270.974 329.366 273.016 329.366 275.536C329.366 278.055 327.324 280.098 324.804 280.098L300.17 280.098C297.651 280.098 295.608 278.055 295.608 275.536Z" fill="#51DA4C"/>
<path fill-rule="evenodd" clip-rule="evenodd" d="M58.3916 78.4642C58.3916 80.9836 56.3492 83.0261 53.8297 83.0261L29.1957 83.0261C26.6763 83.0261 24.6339 80.9836 24.6339 78.4642C24.6339 75.9448 26.6763 73.9023 29.1957 73.9023L53.8297 73.9023C56.3492 73.9023 58.3916 75.9448 58.3916 78.4642Z" fill="#51DA4C"/>
<path fill-rule="evenodd" clip-rule="evenodd" d="M58.3916 201.632C58.3916 204.152 56.3492 206.194 53.8297 206.194L29.1957 206.194C26.6763 206.194 24.6339 204.152 24.6339 201.632C24.6339 199.113 26.6763 197.07 29.1957 197.07L53.8297 197.07C56.3492 197.07 58.3916 199.113 58.3916 201.632Z" fill="#51DA4C"/>
<path fill-rule="evenodd" clip-rule="evenodd" d="M58.3916 324.804C58.3916 327.323 56.3492 329.366 53.8297 329.366L29.1957 329.366C26.6763 329.366 24.6339 327.323 24.6339 324.804C24.6339 322.285 26.6763 320.242 29.1957 320.242L53.8297 320.242C56.3492 320.242 58.3916 322.285 58.3916 324.804Z" fill="#51DA4C"/>
<path fill-rule="evenodd" clip-rule="evenodd" d="M181.562 78.4642C181.562 80.9836 179.519 83.0261 177 83.0261L152.366 83.0261C149.846 83.0261 147.804 80.9836 147.804 78.4642C147.804 75.9448 149.846 73.9023 152.366 73.9023L177 73.9023C179.519 73.9023 181.562 75.9448 181.562 78.4642Z" fill="#51DA4C"/>
<path fill-rule="evenodd" clip-rule="evenodd" d="M181.562 201.632C181.562 204.152 179.519 206.194 177 206.194L152.366 206.194C149.846 206.194 147.804 204.152 147.804 201.632C147.804 199.113 149.846 197.07 152.366 197.07L177 197.07C179.519 197.07 181.562 199.113 181.562 201.632Z" fill="#51DA4C"/>
<path fill-rule="evenodd" clip-rule="evenodd" d="M181.562 324.804C181.562 327.323 179.519 329.366 177 329.366L152.366 329.366C149.846 329.366 147.804 327.323 147.804 324.804C147.804 322.285 149.846 320.242 152.366 320.242L177 320.242C179.519 320.242 181.562 322.285 181.562 324.804Z" fill="#51DA4C"/>
<path fill-rule="evenodd" clip-rule="evenodd" d="M304.732 78.4642C304.732 80.9836 302.69 83.0261 300.171 83.0261L275.537 83.0261C273.017 83.0261 270.975 80.9836 270.975 78.4642C270.975 75.9448 273.017 73.9023 275.537 73.9023L300.171 73.9023C302.69 73.9023 304.732 75.9448 304.732 78.4642Z" fill="#51DA4C"/>
<path fill-rule="evenodd" clip-rule="evenodd" d="M304.732 201.632C304.732 204.152 302.69 206.194 300.171 206.194L275.537 206.194C273.017 206.194 270.975 204.152 270.975 201.632C270.975 199.113 273.017 197.07 275.537 197.07L300.171 197.07C302.69 197.07 304.732 199.113 304.732 201.632Z" fill="#51DA4C"/>
<path fill-rule="evenodd" clip-rule="evenodd" d="M304.732 324.804C304.732 327.323 302.69 329.366 300.171 329.366L275.537 329.366C273.017 329.366 270.975 327.323 270.975 324.804C270.975 322.285 273.017 320.242 275.537 320.242L300.171 320.242C302.69 320.242 304.732 322.285 304.732 324.804Z" fill="#51DA4C"/>
<path fill-rule="evenodd" clip-rule="evenodd" d="M103.098 107.66C100.579 107.66 98.5364 105.618 98.5364 103.098L98.5364 78.4643C98.5364 75.9448 100.579 73.9024 103.098 73.9024C105.618 73.9024 107.66 75.9448 107.66 78.4643L107.66 103.098C107.66 105.618 105.618 107.66 103.098 107.66Z" fill="#51DA4C"/>
<path fill-rule="evenodd" clip-rule="evenodd" d="M103.098 230.832C100.579 230.832 98.5364 228.79 98.5364 226.27L98.5364 201.636C98.5364 199.117 100.579 197.074 103.098 197.074C105.618 197.074 107.66 199.117 107.66 201.636L107.66 226.27C107.66 228.79 105.618 230.832 103.098 230.832Z" fill="#51DA4C"/>
<path fill-rule="evenodd" clip-rule="evenodd" d="M103.098 354C100.579 354 98.5364 351.958 98.5364 349.438L98.5364 324.804C98.5364 322.285 100.579 320.242 103.098 320.242C105.618 320.242 107.66 322.285 107.66 324.804L107.66 349.438C107.66 351.958 105.618 354 103.098 354Z" fill="#51DA4C"/>
<path fill-rule="evenodd" clip-rule="evenodd" d="M226.268 107.66C223.749 107.66 221.706 105.618 221.706 103.098L221.706 78.4643C221.706 75.9448 223.749 73.9024 226.268 73.9024C228.788 73.9024 230.83 75.9448 230.83 78.4643L230.83 103.098C230.83 105.618 228.788 107.66 226.268 107.66Z" fill="#51DA4C"/>
<path fill-rule="evenodd" clip-rule="evenodd" d="M226.268 230.832C223.749 230.832 221.706 228.79 221.706 226.27L221.706 201.636C221.706 199.117 223.749 197.074 226.268 197.074C228.788 197.074 230.83 199.117 230.83 201.636L230.83 226.27C230.83 228.79 228.788 230.832 226.268 230.832Z" fill="#51DA4C"/>
<path fill-rule="evenodd" clip-rule="evenodd" d="M226.268 354C223.749 354 221.706 351.958 221.706 349.438L221.706 324.804C221.706 322.285 223.749 320.242 226.268 320.242C228.788 320.242 230.83 322.285 230.83 324.804L230.83 349.438C230.83 351.958 228.788 354 226.268 354Z" fill="#51DA4C"/>
<path fill-rule="evenodd" clip-rule="evenodd" d="M349.438 107.66C346.919 107.66 344.876 105.618 344.876 103.098L344.876 78.4643C344.876 75.9448 346.919 73.9024 349.438 73.9024C351.958 73.9024 354 75.9448 354 78.4643L354 103.098C354 105.618 351.958 107.66 349.438 107.66Z" fill="#51DA4C"/>
<path fill-rule="evenodd" clip-rule="evenodd" d="M349.438 230.832C346.919 230.832 344.876 228.79 344.876 226.27L344.876 201.636C344.876 199.117 346.919 197.074 349.438 197.074C351.958 197.074 354 199.117 354 201.636L354 226.27C354 228.79 351.958 230.832 349.438 230.832Z" fill="#51DA4C"/>
<path fill-rule="evenodd" clip-rule="evenodd" d="M349.438 354C346.919 354 344.876 351.958 344.876 349.438L344.876 324.804C344.876 322.285 346.919 320.242 349.438 320.242C351.958 320.242 354 322.285 354 324.804L354 349.438C354 351.958 351.958 354 349.438 354Z" fill="#51DA4C"/>
<path fill-rule="evenodd" clip-rule="evenodd" d="M4.56186 9.97025e-07C7.0813 1.54767e-06 9.12371 2.04241 9.12371 4.56186L9.12371 29.1959C9.1237 31.7153 7.08129 33.7577 4.56185 33.7577C2.0424 33.7577 -6.9316e-06 31.7153 -6.38096e-06 29.1959L-9.97025e-07 4.56186C-4.46383e-07 2.04241 2.04241 4.46383e-07 4.56186 9.97025e-07Z" fill="#51DA4C"/>
<path fill-rule="evenodd" clip-rule="evenodd" d="M4.56186 123.172C7.0813 123.172 9.12371 125.214 9.12371 127.734L9.12371 152.368C9.1237 154.887 7.08129 156.93 4.56185 156.93C2.0424 156.93 -6.9316e-06 154.887 -6.38096e-06 152.368L-9.97025e-07 127.734C-4.46383e-07 125.214 2.04241 123.172 4.56186 123.172Z" fill="#51DA4C"/>
<path fill-rule="evenodd" clip-rule="evenodd" d="M4.56186 246.34C7.0813 246.34 9.12371 248.382 9.12371 250.902L9.12371 275.536C9.1237 278.055 7.08129 280.098 4.56185 280.098C2.0424 280.098 -6.9316e-06 278.055 -6.38096e-06 275.536L-9.97025e-07 250.902C-4.46383e-07 248.382 2.04241 246.34 4.56186 246.34Z" fill="#51DA4C"/>
<path fill-rule="evenodd" clip-rule="evenodd" d="M127.732 9.97025e-07C130.251 1.54767e-06 132.294 2.04241 132.294 4.56186L132.294 29.1959C132.294 31.7153 130.251 33.7577 127.732 33.7577C125.212 33.7577 123.17 31.7153 123.17 29.1959L123.17 4.56186C123.17 2.04241 125.212 4.46383e-07 127.732 9.97025e-07Z" fill="#51DA4C"/>
<path fill-rule="evenodd" clip-rule="evenodd" d="M127.732 123.172C130.251 123.172 132.294 125.214 132.294 127.734L132.294 152.368C132.294 154.887 130.251 156.93 127.732 156.93C125.212 156.93 123.17 154.887 123.17 152.368L123.17 127.734C123.17 125.214 125.212 123.172 127.732 123.172Z" fill="#51DA4C"/>
<path fill-rule="evenodd" clip-rule="evenodd" d="M127.732 246.34C130.251 246.34 132.294 248.382 132.294 250.902L132.294 275.536C132.294 278.055 130.251 280.098 127.732 280.098C125.212 280.098 123.17 278.055 123.17 275.536L123.17 250.902C123.17 248.382 125.212 246.34 127.732 246.34Z" fill="#51DA4C"/>
<path fill-rule="evenodd" clip-rule="evenodd" d="M250.902 9.97025e-07C253.421 1.54767e-06 255.464 2.04241 255.464 4.56186L255.464 29.1959C255.464 31.7153 253.421 33.7577 250.902 33.7577C248.382 33.7577 246.34 31.7153 246.34 29.1959L246.34 4.56186C246.34 2.04241 248.382 4.46383e-07 250.902 9.97025e-07Z" fill="#51DA4C"/>
<path fill-rule="evenodd" clip-rule="evenodd" d="M250.902 123.172C253.421 123.172 255.464 125.214 255.464 127.734L255.464 152.368C255.464 154.887 253.421 156.93 250.902 156.93C248.382 156.93 246.34 154.887 246.34 152.368L246.34 127.734C246.34 125.214 248.382 123.172 250.902 123.172Z" fill="#51DA4C"/>
<path fill-rule="evenodd" clip-rule="evenodd" d="M250.902 246.34C253.421 246.34 255.464 248.382 255.464 250.902L255.464 275.536C255.464 278.055 253.421 280.098 250.902 280.098C248.382 280.098 246.34 278.055 246.34 275.536L246.34 250.902C246.34 248.382 248.382 246.34 250.902 246.34Z" fill="#51DA4C"/>
</svg>
