<svg width="354" height="354" viewBox="0 0 354 354" fill="none" xmlns="http://www.w3.org/2000/svg">
<path fill-rule="evenodd" clip-rule="evenodd" d="M15 0.000667257C23.2842 0.000669067 29.9999 6.71637 29.9999 15.0006L29.9999 96.0003C29.9999 104.285 23.2842 111 14.9999 111C6.7157 111 -1.81058e-06 104.285 0 96.0003L1.77031e-05 15.0006C1.95136e-05 6.71637 6.71573 0.000665446 15 0.000667257Z" fill="#193718"/>
<path fill-rule="evenodd" clip-rule="evenodd" d="M176.999 0.000667257C185.284 0.000669067 191.999 6.71637 191.999 15.0006L191.999 96.0003C191.999 104.285 185.284 111 176.999 111C168.715 111 161.999 104.285 161.999 96.0003L161.999 15.0006C161.999 6.71637 168.715 0.000665446 176.999 0.000667257Z" fill="#193718"/>
<path fill-rule="evenodd" clip-rule="evenodd" d="M80.9997 177C80.9997 168.716 87.7154 162 95.9997 162L257.999 162C266.283 162 272.999 168.716 272.999 177C272.999 185.284 266.283 192 257.999 192H95.9997C87.7154 192 80.9997 185.284 80.9997 177Z" fill="#193718"/>
<path fill-rule="evenodd" clip-rule="evenodd" d="M176.999 243C185.284 243 191.999 249.715 191.999 258L191.999 338.999C191.999 347.284 185.284 353.999 176.999 353.999C168.715 353.999 161.999 347.284 161.999 338.999L161.999 258C161.999 249.715 168.715 243 176.999 243Z" fill="#193718"/>
<path fill-rule="evenodd" clip-rule="evenodd" d="M15 243C23.2842 243 29.9999 249.715 29.9999 258L29.9999 338.999C29.9999 347.284 23.2842 353.999 14.9999 353.999C6.7157 353.999 -1.81058e-06 347.284 0 338.999L1.77031e-05 258C1.95136e-05 249.715 6.71573 243 15 243Z" fill="#193718"/>
<path fill-rule="evenodd" clip-rule="evenodd" d="M338.999 0.000667257C347.283 0.000669067 353.999 6.71637 353.999 15.0006L353.999 96.0003C353.999 104.285 347.283 111 338.999 111C330.715 111 323.999 104.285 323.999 96.0003L323.999 15.0006C323.999 6.71637 330.715 0.000665446 338.999 0.000667257Z" fill="#193718"/>
<path fill-rule="evenodd" clip-rule="evenodd" d="M338.999 243C347.283 243 353.999 249.715 353.999 258L353.999 338.999C353.999 347.284 347.283 353.999 338.999 353.999C330.715 353.999 323.999 347.284 323.999 338.999L323.999 258C323.999 249.715 330.715 243 338.999 243Z" fill="#193718"/>
<path fill-rule="evenodd" clip-rule="evenodd" d="M106.606 4.39338C112.464 10.2512 112.464 19.7487 106.606 25.6065L25.6065 106.606C19.7487 112.464 10.2512 112.464 4.39341 106.606C-1.46444 100.748 -1.46444 91.2509 4.39341 85.3931L85.3931 4.39338C91.251 -1.46446 100.748 -1.46446 106.606 4.39338Z" fill="#193718"/>
<path fill-rule="evenodd" clip-rule="evenodd" d="M106.606 85.3931C112.464 91.2509 112.464 100.748 106.606 106.606L25.6065 187.606C19.7487 193.464 10.2512 193.464 4.39341 187.606C-1.46444 181.748 -1.46444 172.251 4.39341 166.393L85.3931 85.3931C91.251 79.5352 100.748 79.5352 106.606 85.3931Z" fill="#193718"/>
<path fill-rule="evenodd" clip-rule="evenodd" d="M247.393 349.607C241.535 343.749 241.535 334.251 247.393 328.393L328.392 247.394C334.25 241.536 343.748 241.536 349.605 247.394C355.463 253.252 355.463 262.749 349.605 268.607L268.606 349.607C262.748 355.464 253.25 355.464 247.393 349.607Z" fill="#193718"/>
<path fill-rule="evenodd" clip-rule="evenodd" d="M247.393 268.607C241.535 262.749 241.535 253.252 247.393 247.394L328.392 166.394C334.25 160.536 343.748 160.536 349.605 166.394C355.463 172.252 355.463 181.749 349.605 187.607L268.606 268.607C262.748 274.465 253.25 274.465 247.393 268.607Z" fill="#193718"/>
<path fill-rule="evenodd" clip-rule="evenodd" d="M106.607 349.606C100.749 355.464 91.2516 355.464 85.3938 349.606L4.39407 268.606C-1.46377 262.748 -1.46377 253.251 4.39407 247.393C10.2519 241.535 19.7493 241.535 25.6072 247.393L106.607 328.393C112.465 334.251 112.465 343.748 106.607 349.606Z" fill="#193718"/>
<path fill-rule="evenodd" clip-rule="evenodd" d="M106.607 268.606C100.749 274.464 91.2516 274.464 85.3938 268.606L4.39341 187.606C-1.46444 181.748 -1.46444 172.251 4.39341 166.393C10.2512 160.535 19.7493 160.536 25.6072 166.393L106.607 247.393C112.465 253.251 112.465 262.748 106.607 268.606Z" fill="#193718"/>
<path fill-rule="evenodd" clip-rule="evenodd" d="M247.392 4.39405C253.25 -1.4638 262.747 -1.46379 268.605 4.39405L349.605 85.3937C355.463 91.2516 355.463 100.749 349.605 106.607C343.747 112.465 334.249 112.465 328.392 106.607L247.392 25.6072C241.534 19.7493 241.534 10.2519 247.392 4.39405Z" fill="#193718"/>
<path fill-rule="evenodd" clip-rule="evenodd" d="M247.392 85.3937C253.25 79.5359 262.747 79.5359 268.605 85.3937L349.605 166.394C355.463 172.252 355.463 181.749 349.605 187.607C343.748 193.465 334.249 193.464 328.392 187.607L247.392 106.607C241.534 100.749 241.534 91.2516 247.392 85.3937Z" fill="#193718"/>
</svg>
