<svg width="354" height="354" viewBox="0 0 354 354" fill="none" xmlns="http://www.w3.org/2000/svg">
<path fill-rule="evenodd" clip-rule="evenodd" d="M4.66144e-05 84.2424C4.66144e-05 78.6184 4.55916 74.0593 10.1831 74.0593H47.2128C52.8368 74.0593 57.3959 78.6184 57.3959 84.2424C57.3959 89.8663 52.8368 94.4254 47.2128 94.4254H20.3662V121.455C20.3662 127.079 15.8071 131.638 10.1831 131.638C4.55916 131.638 4.66144e-05 127.079 4.66144e-05 121.455V84.2424Z" fill="#00002E"/>
<path fill-rule="evenodd" clip-rule="evenodd" d="M0 10.1831C0 4.55911 4.55911 0 10.1831 0H47.2128C52.8367 0 57.3958 4.55911 57.3958 10.1831C57.3958 15.807 52.8367 20.3661 47.2128 20.3661H22.3659C26.3886 30.1615 36.0356 37.0297 47.2128 37.0297C52.8367 37.0297 57.3958 41.5888 57.3958 47.2127C57.3958 52.8367 52.8367 57.3958 47.2128 57.3958C21.2737 57.3958 0 36.3711 0 10.1831Z" fill="#00002E"/>
<path fill-rule="evenodd" clip-rule="evenodd" d="M158.485 37.0296C164.109 37.0296 168.668 41.5887 168.668 47.2126V84.2423C168.668 89.8662 164.109 94.4254 158.485 94.4254H121.456C115.832 94.4254 111.272 89.8662 111.272 84.2423C111.272 78.6183 115.832 74.0592 121.456 74.0592H148.302V47.2126C148.302 41.5887 152.861 37.0296 158.485 37.0296Z" fill="#00002E"/>
<path fill-rule="evenodd" clip-rule="evenodd" d="M111.272 121.455C111.272 115.832 115.832 111.272 121.456 111.272C147.644 111.272 168.668 132.546 168.668 158.485C168.668 164.109 164.109 168.668 158.485 168.668H121.456C115.832 168.668 111.272 164.109 111.272 158.485C111.272 152.861 115.832 148.302 121.456 148.302H146.298C142.291 138.551 132.703 131.639 121.456 131.639C115.832 131.639 111.272 127.079 111.272 121.455Z" fill="#00002E"/>
<path fill-rule="evenodd" clip-rule="evenodd" d="M74.0594 10.1831C74.0594 4.55911 78.6185 0 84.2424 0H158.485C164.109 0 168.668 4.55911 168.668 10.1831C168.668 15.807 164.109 20.3661 158.485 20.3661H84.2424C78.6185 20.3661 74.0594 15.807 74.0594 10.1831Z" fill="#00002E"/>
<path fill-rule="evenodd" clip-rule="evenodd" d="M121.456 0C127.079 0 131.639 4.55911 131.639 10.1831V47.2127C131.639 52.8367 127.079 57.3958 121.456 57.3958C115.832 57.3958 111.272 52.8367 111.272 47.2127V10.1831C111.272 4.55911 115.832 0 121.456 0Z" fill="#00002E"/>
<path fill-rule="evenodd" clip-rule="evenodd" d="M4.66144e-05 158.485C4.66144e-05 152.861 4.55916 148.302 10.1831 148.302H84.2425C89.8664 148.302 94.4256 152.861 94.4256 158.485C94.4256 164.109 89.8664 168.668 84.2425 168.668H10.1831C4.55916 168.668 4.66144e-05 164.109 4.66144e-05 158.485Z" fill="#00002E"/>
<path fill-rule="evenodd" clip-rule="evenodd" d="M47.2127 111.272C52.8367 111.272 57.3958 115.832 57.3958 121.455V158.485C57.3958 164.109 52.8367 168.668 47.2127 168.668C41.5888 168.668 37.0297 164.109 37.0297 158.485V121.455C37.0297 115.832 41.5888 111.272 47.2127 111.272Z" fill="#00002E"/>
<path fill-rule="evenodd" clip-rule="evenodd" d="M84.2424 37.0296C89.8664 37.0296 94.4255 41.5887 94.4255 47.2126V121.455C94.4255 127.079 89.8664 131.638 84.2424 131.638C78.6185 131.638 74.0594 127.079 74.0594 121.455V47.2126C74.0594 41.5887 78.6185 37.0296 84.2424 37.0296Z" fill="#00002E"/>
<path fill-rule="evenodd" clip-rule="evenodd" d="M185.332 84.2424C185.332 78.6184 189.891 74.0593 195.515 74.0593H232.728C238.352 74.0593 242.911 78.6184 242.911 84.2424C242.911 89.8663 238.352 94.4254 232.728 94.4254H205.698V121.455C205.698 127.079 201.139 131.638 195.515 131.638C189.891 131.638 185.332 127.079 185.332 121.455V84.2424Z" fill="#00002E"/>
<path fill-rule="evenodd" clip-rule="evenodd" d="M185.515 10.1831C185.515 4.55911 190.074 0 195.698 0H232.728C238.352 0 242.911 4.55911 242.911 10.1831C242.911 15.807 238.352 20.3661 232.728 20.3661H207.886C211.893 30.1173 221.481 37.0297 232.728 37.0297C238.352 37.0297 242.911 41.5888 242.911 47.2127C242.911 52.8367 238.352 57.3958 232.728 57.3958C206.54 57.3958 185.515 36.1222 185.515 10.1831Z" fill="#00002E"/>
<path fill-rule="evenodd" clip-rule="evenodd" d="M343.817 37.0296C349.441 37.0296 354 41.5887 354 47.2126V84.2423C354 89.8662 349.441 94.4254 343.817 94.4254H306.787C301.163 94.4254 296.604 89.8662 296.604 84.2423C296.604 78.6183 301.163 74.0592 306.787 74.0592H333.634V47.2126C333.634 41.5887 338.193 37.0296 343.817 37.0296Z" fill="#00002E"/>
<path fill-rule="evenodd" clip-rule="evenodd" d="M296.604 121.455C296.604 115.832 301.163 111.272 306.787 111.272C332.975 111.272 354 132.546 354 158.485C354 164.109 349.441 168.668 343.817 168.668H306.787C301.163 168.668 296.604 164.109 296.604 158.485C296.604 152.861 301.163 148.302 306.787 148.302H331.63C327.622 138.551 318.035 131.639 306.787 131.639C301.163 131.639 296.604 127.079 296.604 121.455Z" fill="#00002E"/>
<path fill-rule="evenodd" clip-rule="evenodd" d="M259.574 10.1831C259.574 4.55911 264.134 0 269.758 0H343.817C349.441 0 354 4.55911 354 10.1831C354 15.807 349.441 20.3661 343.817 20.3661H269.758C264.134 20.3661 259.574 15.807 259.574 10.1831Z" fill="#00002E"/>
<path fill-rule="evenodd" clip-rule="evenodd" d="M306.787 0C312.411 0 316.97 4.55911 316.97 10.1831V47.2127C316.97 52.8367 312.411 57.3958 306.787 57.3958C301.163 57.3958 296.604 52.8367 296.604 47.2127V10.1831C296.604 4.55911 301.163 0 306.787 0Z" fill="#00002E"/>
<path fill-rule="evenodd" clip-rule="evenodd" d="M185.332 158.485C185.332 152.861 189.891 148.302 195.515 148.302H269.757C275.381 148.302 279.941 152.861 279.941 158.485C279.941 164.109 275.381 168.668 269.757 168.668H195.515C189.891 168.668 185.332 164.109 185.332 158.485Z" fill="#00002E"/>
<path fill-rule="evenodd" clip-rule="evenodd" d="M232.728 111.272C238.352 111.272 242.911 115.832 242.911 121.455V158.485C242.911 164.109 238.352 168.668 232.728 168.668C227.104 168.668 222.545 164.109 222.545 158.485V121.455C222.545 115.832 227.104 111.272 232.728 111.272Z" fill="#00002E"/>
<path fill-rule="evenodd" clip-rule="evenodd" d="M269.758 37.0296C275.382 37.0296 279.941 41.5887 279.941 47.2126V121.455C279.941 127.079 275.382 131.638 269.758 131.638C264.134 131.638 259.574 127.079 259.574 121.455V47.2126C259.574 41.5887 264.134 37.0296 269.758 37.0296Z" fill="#00002E"/>
<path fill-rule="evenodd" clip-rule="evenodd" d="M0 269.721C0 264.097 4.55911 259.538 10.1831 259.538H47.2128C52.8367 259.538 57.3958 264.097 57.3958 269.721C57.3958 275.345 52.8367 279.904 47.2128 279.904H20.3661V306.751C20.3661 312.375 15.807 316.934 10.1831 316.934C4.55911 316.934 0 312.375 0 306.751V269.721Z" fill="#00002E"/>
<path fill-rule="evenodd" clip-rule="evenodd" d="M0 195.661C0 190.037 4.55911 185.478 10.1831 185.478H47.2128C52.8367 185.478 57.3958 190.037 57.3958 195.661C57.3958 201.285 52.8367 205.844 47.2128 205.844H22.3703C26.3775 215.595 35.9654 222.508 47.2128 222.508C52.8367 222.508 57.3958 227.067 57.3958 232.691C57.3958 238.315 52.8367 242.874 47.2128 242.874C21.0247 242.874 0 221.6 0 195.661Z" fill="#00002E"/>
<path fill-rule="evenodd" clip-rule="evenodd" d="M158.485 222.508C164.109 222.508 168.668 227.067 168.668 232.691V269.721C168.668 275.345 164.109 279.904 158.485 279.904H121.456C115.832 279.904 111.272 275.345 111.272 269.721C111.272 264.097 115.832 259.538 121.456 259.538H148.302V232.691C148.302 227.067 152.861 222.508 158.485 222.508Z" fill="#00002E"/>
<path fill-rule="evenodd" clip-rule="evenodd" d="M111.272 306.751C111.272 301.127 115.832 296.568 121.456 296.568C147.644 296.568 168.668 317.841 168.668 343.78C168.668 349.404 164.109 353.963 158.485 353.963H121.456C115.832 353.963 111.272 349.404 111.272 343.78C111.272 338.156 115.832 333.597 121.456 333.597H146.298C142.291 323.846 132.703 316.934 121.456 316.934C115.832 316.934 111.272 312.375 111.272 306.751Z" fill="#00002E"/>
<path fill-rule="evenodd" clip-rule="evenodd" d="M74.0594 195.478C74.0594 189.854 78.6185 185.295 84.2424 185.295H158.485C164.109 185.295 168.668 189.854 168.668 195.478C168.668 201.102 164.109 205.661 158.485 205.661H84.2424C78.6185 205.661 74.0594 201.102 74.0594 195.478Z" fill="#00002E"/>
<path fill-rule="evenodd" clip-rule="evenodd" d="M121.456 185.295C127.079 185.295 131.639 189.854 131.639 195.478V232.691C131.639 238.315 127.079 242.874 121.456 242.874C115.832 242.874 111.272 238.315 111.272 232.691V195.478C111.272 189.854 115.832 185.295 121.456 185.295Z" fill="#00002E"/>
<path fill-rule="evenodd" clip-rule="evenodd" d="M0 343.78C0 338.156 4.55911 333.597 10.1831 333.597H84.2425C89.8664 333.597 94.4255 338.156 94.4255 343.78C94.4255 349.404 89.8664 353.963 84.2425 353.963H10.1831C4.55911 353.963 0 349.404 0 343.78Z" fill="#00002E"/>
<path fill-rule="evenodd" clip-rule="evenodd" d="M47.2127 296.568C52.8367 296.568 57.3958 301.127 57.3958 306.751V343.78C57.3958 349.404 52.8367 353.963 47.2127 353.963C41.5888 353.963 37.0297 349.404 37.0297 343.78V306.751C37.0297 301.127 41.5888 296.568 47.2127 296.568Z" fill="#00002E"/>
<path fill-rule="evenodd" clip-rule="evenodd" d="M84.2424 222.508C89.8664 222.508 94.4255 227.067 94.4255 232.691V306.75C94.4255 312.374 89.8664 316.934 84.2424 316.934C78.6185 316.934 74.0594 312.374 74.0594 306.75V232.691C74.0594 227.067 78.6185 222.508 84.2424 222.508Z" fill="#00002E"/>
<path fill-rule="evenodd" clip-rule="evenodd" d="M185.332 269.758C185.332 264.134 189.891 259.575 195.515 259.575H232.728C238.352 259.575 242.911 264.134 242.911 269.758C242.911 275.382 238.352 279.941 232.728 279.941H205.698V306.787C205.698 312.411 201.139 316.97 195.515 316.97C189.891 316.97 185.332 312.411 185.332 306.787V269.758Z" fill="#00002E"/>
<path fill-rule="evenodd" clip-rule="evenodd" d="M185.515 195.698C185.515 190.074 190.074 185.515 195.698 185.515H232.728C238.352 185.515 242.911 190.074 242.911 195.698C242.911 201.322 238.352 205.881 232.728 205.881H207.885C211.893 215.632 221.481 222.545 232.728 222.545C238.352 222.545 242.911 227.104 242.911 232.728C242.911 238.352 238.352 242.911 232.728 242.911C206.54 242.911 185.515 221.637 185.515 195.698Z" fill="#00002E"/>
<path fill-rule="evenodd" clip-rule="evenodd" d="M343.817 222.545C349.441 222.545 354 227.104 354 232.728V269.757C354 275.381 349.441 279.94 343.817 279.94H306.787C301.163 279.94 296.604 275.381 296.604 269.757C296.604 264.133 301.163 259.574 306.787 259.574H333.634V232.728C333.634 227.104 338.193 222.545 343.817 222.545Z" fill="#00002E"/>
<path fill-rule="evenodd" clip-rule="evenodd" d="M296.604 306.787C296.604 301.163 301.163 296.604 306.787 296.604C332.975 296.604 354 317.878 354 343.817C354 349.441 349.441 354 343.817 354H306.787C301.163 354 296.604 349.441 296.604 343.817C296.604 338.193 301.163 333.634 306.787 333.634H331.63C327.622 323.883 318.035 316.97 306.787 316.97C301.163 316.97 296.604 312.411 296.604 306.787Z" fill="#00002E"/>
<path fill-rule="evenodd" clip-rule="evenodd" d="M259.574 195.515C259.574 189.891 264.134 185.332 269.758 185.332H343.817C349.441 185.332 354 189.891 354 195.515C354 201.139 349.441 205.698 343.817 205.698H269.758C264.134 205.698 259.574 201.139 259.574 195.515Z" fill="#00002E"/>
<path fill-rule="evenodd" clip-rule="evenodd" d="M306.787 185.332C312.411 185.332 316.97 189.891 316.97 195.515V232.728C316.97 238.352 312.411 242.911 306.787 242.911C301.163 242.911 296.604 238.352 296.604 232.728V195.515C296.604 189.891 301.163 185.332 306.787 185.332Z" fill="#00002E"/>
<path fill-rule="evenodd" clip-rule="evenodd" d="M185.332 343.817C185.332 338.193 189.891 333.634 195.515 333.634H269.757C275.381 333.634 279.941 338.193 279.941 343.817C279.941 349.441 275.381 354 269.757 354H195.515C189.891 354 185.332 349.441 185.332 343.817Z" fill="#00002E"/>
<path fill-rule="evenodd" clip-rule="evenodd" d="M232.728 296.604C238.352 296.604 242.911 301.163 242.911 306.787V343.817C242.911 349.441 238.352 354 232.728 354C227.104 354 222.545 349.441 222.545 343.817V306.787C222.545 301.163 227.104 296.604 232.728 296.604Z" fill="#00002E"/>
<path fill-rule="evenodd" clip-rule="evenodd" d="M269.758 222.545C275.382 222.545 279.941 227.104 279.941 232.728V306.787C279.941 312.411 275.382 316.97 269.758 316.97C264.134 316.97 259.574 312.411 259.574 306.787V232.728C259.574 227.104 264.134 222.545 269.758 222.545Z" fill="#00002E"/>
</svg>
