<svg width="370" height="370" viewBox="0 0 370 370" fill="none" xmlns="http://www.w3.org/2000/svg">
<path d="M47.334 47.4564L86.6673 8.12305H47.334" stroke="#D9FFD8" stroke-width="15" stroke-linecap="round" stroke-linejoin="round"/>
<path d="M126 126.123L86.6667 165.456L126 165.456" stroke="#D9FFD8" stroke-width="15" stroke-linecap="round" stroke-linejoin="round"/>
<path d="M47.334 126.123L86.6673 165.456H47.334" stroke="#D9FFD8" stroke-width="15" stroke-linecap="round" stroke-linejoin="round"/>
<path d="M126 47.4564L86.6667 8.12304L126 8.12305" stroke="#D9FFD8" stroke-width="15" stroke-linecap="round" stroke-linejoin="round"/>
<path d="M8 8.12305V47.4564" stroke="#D9FFD8" stroke-width="15" stroke-linecap="round" stroke-linejoin="round"/>
<path d="M165.334 165.456L165.334 126.123" stroke="#D9FFD8" stroke-width="15" stroke-linecap="round" stroke-linejoin="round"/>
<path d="M8 165.456V126.123" stroke="#D9FFD8" stroke-width="15" stroke-linecap="round" stroke-linejoin="round"/>
<path d="M165.334 8.12305L165.334 47.4564" stroke="#D9FFD8" stroke-width="15" stroke-linecap="round" stroke-linejoin="round"/>
<path d="M47.334 86.79C47.334 108.512 64.945 126.123 86.6673 126.123" stroke="#D9FFD8" stroke-width="15" stroke-linecap="round" stroke-linejoin="round"/>
<path d="M126 86.79C126 65.0677 108.389 47.4567 86.6667 47.4567" stroke="#D9FFD8" stroke-width="15" stroke-linecap="round" stroke-linejoin="round"/>
<path d="M86.666 47.4561C64.9437 47.4561 47.3327 65.0671 47.3327 86.7894" stroke="#D9FFD8" stroke-width="15" stroke-linecap="round" stroke-linejoin="round"/>
<path d="M86.666 126.123C108.388 126.123 125.999 108.512 125.999 86.7897" stroke="#D9FFD8" stroke-width="15" stroke-linecap="round" stroke-linejoin="round"/>
<path d="M47.334 244L86.6673 204.667H47.334" stroke="#D9FFD8" stroke-width="15" stroke-linecap="round" stroke-linejoin="round"/>
<path d="M126 322.667L86.6667 362L126 362" stroke="#D9FFD8" stroke-width="15" stroke-linecap="round" stroke-linejoin="round"/>
<path d="M47.334 322.667L86.6673 362H47.334" stroke="#D9FFD8" stroke-width="15" stroke-linecap="round" stroke-linejoin="round"/>
<path d="M126 244L86.6667 204.667L126 204.667" stroke="#D9FFD8" stroke-width="15" stroke-linecap="round" stroke-linejoin="round"/>
<path d="M8 204.667V244" stroke="#D9FFD8" stroke-width="15" stroke-linecap="round" stroke-linejoin="round"/>
<path d="M165.334 362L165.334 322.667" stroke="#D9FFD8" stroke-width="15" stroke-linecap="round" stroke-linejoin="round"/>
<path d="M8 362V322.667" stroke="#D9FFD8" stroke-width="15" stroke-linecap="round" stroke-linejoin="round"/>
<path d="M165.334 204.667L165.334 244" stroke="#D9FFD8" stroke-width="15" stroke-linecap="round" stroke-linejoin="round"/>
<path d="M47.334 283.334C47.334 305.056 64.945 322.667 86.6673 322.667" stroke="#D9FFD8" stroke-width="15" stroke-linecap="round" stroke-linejoin="round"/>
<path d="M126 283.334C126 261.612 108.389 244.001 86.6667 244.001" stroke="#D9FFD8" stroke-width="15" stroke-linecap="round" stroke-linejoin="round"/>
<path d="M86.666 244C64.9437 244 47.3327 261.611 47.3327 283.333" stroke="#D9FFD8" stroke-width="15" stroke-linecap="round" stroke-linejoin="round"/>
<path d="M86.666 322.667C108.388 322.667 125.999 305.056 125.999 283.334" stroke="#D9FFD8" stroke-width="15" stroke-linecap="round" stroke-linejoin="round"/>
<path d="M244 47.3333L283.333 8H244" stroke="#D9FFD8" stroke-width="15" stroke-linecap="round" stroke-linejoin="round"/>
<path d="M322.666 126L283.333 165.333L322.666 165.333" stroke="#D9FFD8" stroke-width="15" stroke-linecap="round" stroke-linejoin="round"/>
<path d="M244 126L283.333 165.333H244" stroke="#D9FFD8" stroke-width="15" stroke-linecap="round" stroke-linejoin="round"/>
<path d="M322.666 47.3333L283.333 8L322.666 8" stroke="#D9FFD8" stroke-width="15" stroke-linecap="round" stroke-linejoin="round"/>
<path d="M204.666 8V47.3333" stroke="#D9FFD8" stroke-width="15" stroke-linecap="round" stroke-linejoin="round"/>
<path d="M362 165.333L362 126" stroke="#D9FFD8" stroke-width="15" stroke-linecap="round" stroke-linejoin="round"/>
<path d="M204.666 165.333V126" stroke="#D9FFD8" stroke-width="15" stroke-linecap="round" stroke-linejoin="round"/>
<path d="M362 8L362 47.3333" stroke="#D9FFD8" stroke-width="15" stroke-linecap="round" stroke-linejoin="round"/>
<path d="M244 86.667C244 108.389 261.611 126 283.333 126" stroke="#D9FFD8" stroke-width="15" stroke-linecap="round" stroke-linejoin="round"/>
<path d="M322.666 86.667C322.666 64.9447 305.055 47.3337 283.333 47.3337" stroke="#D9FFD8" stroke-width="15" stroke-linecap="round" stroke-linejoin="round"/>
<path d="M283.332 47.333C261.61 47.333 243.999 64.944 243.999 86.6663" stroke="#D9FFD8" stroke-width="15" stroke-linecap="round" stroke-linejoin="round"/>
<path d="M283.332 126C305.054 126 322.665 108.389 322.665 86.6667" stroke="#D9FFD8" stroke-width="15" stroke-linecap="round" stroke-linejoin="round"/>
<path d="M244 244L283.333 204.667H244" stroke="#D9FFD8" stroke-width="15" stroke-linecap="round" stroke-linejoin="round"/>
<path d="M322.666 322.667L283.333 362L322.666 362" stroke="#D9FFD8" stroke-width="15" stroke-linecap="round" stroke-linejoin="round"/>
<path d="M244 322.667L283.333 362H244" stroke="#D9FFD8" stroke-width="15" stroke-linecap="round" stroke-linejoin="round"/>
<path d="M322.666 244L283.333 204.667L322.666 204.667" stroke="#D9FFD8" stroke-width="15" stroke-linecap="round" stroke-linejoin="round"/>
<path d="M204.666 204.667V244" stroke="#D9FFD8" stroke-width="15" stroke-linecap="round" stroke-linejoin="round"/>
<path d="M362 362L362 322.667" stroke="#D9FFD8" stroke-width="15" stroke-linecap="round" stroke-linejoin="round"/>
<path d="M204.666 362V322.667" stroke="#D9FFD8" stroke-width="15" stroke-linecap="round" stroke-linejoin="round"/>
<path d="M362 204.667L362 244" stroke="#D9FFD8" stroke-width="15" stroke-linecap="round" stroke-linejoin="round"/>
<path d="M244 283.334C244 305.056 261.611 322.667 283.333 322.667" stroke="#D9FFD8" stroke-width="15" stroke-linecap="round" stroke-linejoin="round"/>
<path d="M322.666 283.334C322.666 261.612 305.055 244.001 283.333 244.001" stroke="#D9FFD8" stroke-width="15" stroke-linecap="round" stroke-linejoin="round"/>
<path d="M283.332 244C261.61 244 243.999 261.611 243.999 283.333" stroke="#D9FFD8" stroke-width="15" stroke-linecap="round" stroke-linejoin="round"/>
<path d="M283.332 322.667C305.054 322.667 322.665 305.056 322.665 283.334" stroke="#D9FFD8" stroke-width="15" stroke-linecap="round" stroke-linejoin="round"/>
</svg>
