<svg width="579" height="579" viewBox="0 0 579 579" fill="none" xmlns="http://www.w3.org/2000/svg">
<path d="M155 424.508L289.762 289.762L155 155" stroke="#193718" stroke-width="40" stroke-linecap="round" stroke-linejoin="round"/>
<path d="M289.509 20V154.746" stroke="#193718" stroke-width="40" stroke-linecap="round" stroke-linejoin="round"/>
<path d="M289.509 559V424.254" stroke="#193718" stroke-width="40" stroke-linecap="round" stroke-linejoin="round"/>
<path d="M559.001 289.507H424.255" stroke="#193718" stroke-width="40" stroke-linecap="round" stroke-linejoin="round"/>
<path d="M20 289.507H154.746" stroke="#193718" stroke-width="40" stroke-linecap="round" stroke-linejoin="round"/>
<path d="M20 154.746C94.4152 154.746 154.746 94.4152 154.746 20" stroke="#193718" stroke-width="40" stroke-linecap="round" stroke-linejoin="round"/>
<path d="M424.255 20C424.255 94.4152 484.586 154.746 559.001 154.746" stroke="#193718" stroke-width="40" stroke-linecap="round" stroke-linejoin="round"/>
<path d="M559.001 424.254C484.586 424.254 424.255 484.585 424.255 559" stroke="#193718" stroke-width="40" stroke-linecap="round" stroke-linejoin="round"/>
<path d="M154.746 559C154.746 484.585 94.4152 424.254 20 424.254" stroke="#193718" stroke-width="40" stroke-linecap="round" stroke-linejoin="round"/>
<path d="M424.255 154.745L289.509 289.507L424.255 424.253" stroke="#193718" stroke-width="40" stroke-linecap="round" stroke-linejoin="round"/>
<path d="M559 20L463.726 115.291" stroke="#193718" stroke-width="40" stroke-linecap="round" stroke-linejoin="round"/>
<path d="M20 20L115.291 115.291" stroke="#193718" stroke-width="40" stroke-linecap="round" stroke-linejoin="round"/>
<path d="M559 20L463.726 115.291" stroke="#193718" stroke-width="40" stroke-linecap="round" stroke-linejoin="round"/>
<path d="M20 20L115.291 115.291" stroke="#193718" stroke-width="40" stroke-linecap="round" stroke-linejoin="round"/>
<path d="M20 559L115.291 463.725" stroke="#193718" stroke-width="40" stroke-linecap="round" stroke-linejoin="round"/>
<path d="M559 559L463.726 463.725" stroke="#193718" stroke-width="40" stroke-linecap="round" stroke-linejoin="round"/>
</svg>
