<svg width="354" height="354" viewBox="0 0 354 354" fill="none" xmlns="http://www.w3.org/2000/svg">
<path fill-rule="evenodd" clip-rule="evenodd" d="M55.0154 12.591C45.1055 12.591 36.9492 20.747 36.9492 30.6568C36.9492 34.133 34.1311 36.9511 30.6548 36.9511C27.1785 36.9511 24.3605 34.133 24.3605 30.6568C24.3605 13.7946 38.1529 0.00246339 55.0154 0.00246339C58.4917 0.00246339 61.3098 2.82049 61.3098 6.29671C61.3098 9.77294 58.4917 12.591 55.0154 12.591Z" fill="#51DA4C"/>
<path fill-rule="evenodd" clip-rule="evenodd" d="M0 79.4978C0 76.0216 2.8181 73.2036 6.29439 73.2036H30.655C34.1313 73.2036 36.9494 76.0216 36.9494 79.4978V103.858C36.9494 107.334 34.1313 110.152 30.655 110.152C27.1787 110.152 24.3606 107.334 24.3606 103.858V85.7921H6.29439C2.8181 85.7921 0 82.9741 0 79.4978Z" fill="#51DA4C"/>
<path fill-rule="evenodd" clip-rule="evenodd" d="M79.4964 73.2036C82.9727 73.2036 85.7908 76.0216 85.7908 79.4978C85.7908 96.5009 71.978 110.152 55.1358 110.152C51.6595 110.152 48.8414 107.334 48.8414 103.858C48.8414 100.382 51.6595 97.5637 55.1358 97.5637C65.066 97.5637 73.202 89.5079 73.202 79.4978C73.202 76.0216 76.0201 73.2036 79.4964 73.2036Z" fill="#51DA4C"/>
<path fill-rule="evenodd" clip-rule="evenodd" d="M79.497 0.00246339C82.9733 0.00246339 85.7914 2.82049 85.7914 6.29671V24.3625H103.858C107.334 24.3625 110.152 27.1806 110.152 30.6568C110.152 34.133 107.334 36.9511 103.858 36.9511H79.497C76.0207 36.9511 73.2026 34.133 73.2026 30.6568V6.29671C73.2026 2.82049 76.0207 0.00246339 79.497 0.00246339Z" fill="#51DA4C"/>
<path fill-rule="evenodd" clip-rule="evenodd" d="M24.3605 30.6568C24.3605 27.1806 27.1785 24.3624 30.6548 24.3624H55.0154C58.4917 24.3624 61.3098 27.1804 61.3098 30.6567C61.3098 34.1329 58.4917 36.9509 55.0154 36.9509L30.6548 36.9511C27.1785 36.9511 24.3605 34.133 24.3605 30.6568Z" fill="#51DA4C"/>
<path fill-rule="evenodd" clip-rule="evenodd" d="M48.7217 79.4978C48.7217 76.0216 51.5398 73.2036 55.0161 73.2036H79.4964C82.9727 73.2036 85.7908 76.0216 85.7908 79.4978C85.7908 82.9741 82.9736 85.7921 79.4973 85.7921H55.0161C51.5398 85.7921 48.7217 82.9741 48.7217 79.4978Z" fill="#51DA4C"/>
<path fill-rule="evenodd" clip-rule="evenodd" d="M103.857 48.7223C107.334 48.7223 110.152 51.5404 110.152 55.0166V103.857C110.152 107.334 107.334 110.152 103.857 110.152C100.381 110.152 97.5631 107.334 97.5631 103.857V55.0166C97.5631 51.5404 100.381 48.7223 103.857 48.7223Z" fill="#51DA4C"/>
<path fill-rule="evenodd" clip-rule="evenodd" d="M6.29439 0.00246339C9.77069 0.00246339 12.5888 2.82049 12.5888 6.29671V55.0169C12.5888 58.4931 9.77069 61.3111 6.29439 61.3111C2.8181 61.3111 0 58.4931 0 55.0169V6.29671C0 2.82049 2.8181 0.00246339 6.29439 0.00246339Z" fill="#51DA4C"/>
<path fill-rule="evenodd" clip-rule="evenodd" d="M24.3605 55.0166C24.3605 51.5404 27.1785 48.7223 30.6548 48.7223H79.4966C82.9729 48.7223 85.791 51.5404 85.791 55.0166C85.791 58.4928 82.9729 61.3109 79.4966 61.3109H30.6548C27.1785 61.3109 24.3605 58.4928 24.3605 55.0166Z" fill="#51DA4C"/>
<path fill-rule="evenodd" clip-rule="evenodd" d="M176.939 12.5885C167.029 12.5885 158.873 20.7446 158.873 30.6543C158.873 34.1306 156.055 36.9486 152.579 36.9486C149.103 36.9486 146.284 34.1306 146.284 30.6543C146.284 13.7921 160.077 0 176.939 0C180.416 0 183.234 2.81804 183.234 6.29426C183.234 9.77049 180.416 12.5885 176.939 12.5885Z" fill="#51DA4C"/>
<path fill-rule="evenodd" clip-rule="evenodd" d="M121.924 79.4954C121.924 76.0191 124.742 73.2011 128.218 73.2011H152.579C156.055 73.2011 158.873 76.0191 158.873 79.4954V103.855C158.873 107.332 156.055 110.15 152.579 110.15C149.103 110.15 146.285 107.332 146.285 103.855V85.7896H128.218C124.742 85.7896 121.924 82.9716 121.924 79.4954Z" fill="#51DA4C"/>
<path fill-rule="evenodd" clip-rule="evenodd" d="M201.42 73.2011C204.897 73.2011 207.715 76.0191 207.715 79.4954C207.715 96.4984 193.902 110.15 177.06 110.15C173.583 110.15 170.765 107.332 170.765 103.855C170.765 100.379 173.583 97.5612 177.06 97.5612C186.99 97.5612 195.126 89.5055 195.126 79.4954C195.126 76.0191 197.944 73.2011 201.42 73.2011Z" fill="#51DA4C"/>
<path fill-rule="evenodd" clip-rule="evenodd" d="M201.421 0C204.897 0 207.715 2.81804 207.715 6.29426V24.3601H225.782C229.258 24.3601 232.076 27.1781 232.076 30.6543C232.076 34.1306 229.258 36.9486 225.782 36.9486H201.421C197.945 36.9486 195.127 34.1306 195.127 30.6543V6.29426C195.127 2.81804 197.945 0 201.421 0Z" fill="#51DA4C"/>
<path fill-rule="evenodd" clip-rule="evenodd" d="M146.284 30.6543C146.284 27.1781 149.103 24.3599 152.579 24.3599H176.939C180.416 24.3599 183.234 27.178 183.234 30.6542C183.234 34.1304 180.416 36.9485 176.939 36.9485L152.579 36.9486C149.103 36.9486 146.284 34.1306 146.284 30.6543Z" fill="#51DA4C"/>
<path fill-rule="evenodd" clip-rule="evenodd" d="M170.646 79.4954C170.646 76.0191 173.464 73.2011 176.94 73.2011H201.42C204.897 73.2011 207.715 76.0191 207.715 79.4954C207.715 82.9716 204.898 85.7896 201.421 85.7896H176.94C173.464 85.7896 170.646 82.9716 170.646 79.4954Z" fill="#51DA4C"/>
<path fill-rule="evenodd" clip-rule="evenodd" d="M225.781 48.7199C229.258 48.7199 232.076 51.5379 232.076 55.0141V103.855C232.076 107.331 229.258 110.149 225.781 110.149C222.305 110.149 219.487 107.331 219.487 103.855V55.0141C219.487 51.5379 222.305 48.7199 225.781 48.7199Z" fill="#51DA4C"/>
<path fill-rule="evenodd" clip-rule="evenodd" d="M128.218 0C131.695 0 134.513 2.81804 134.513 6.29426V55.0144C134.513 58.4906 131.695 61.3087 128.218 61.3087C124.742 61.3087 121.924 58.4906 121.924 55.0144V6.29426C121.924 2.81804 124.742 0 128.218 0Z" fill="#51DA4C"/>
<path fill-rule="evenodd" clip-rule="evenodd" d="M146.284 55.0141C146.284 51.5379 149.103 48.7199 152.579 48.7199H201.421C204.897 48.7199 207.715 51.5379 207.715 55.0141C207.715 58.4904 204.897 61.3084 201.421 61.3084H152.579C149.103 61.3084 146.284 58.4904 146.284 55.0141Z" fill="#51DA4C"/>
<path fill-rule="evenodd" clip-rule="evenodd" d="M298.863 12.5885C288.953 12.5885 280.797 20.7446 280.797 30.6543C280.797 34.1306 277.979 36.9486 274.503 36.9486C271.027 36.9486 268.208 34.1306 268.208 30.6543C268.208 13.7921 282.001 0 298.863 0C302.34 0 305.158 2.81804 305.158 6.29426C305.158 9.77049 302.34 12.5885 298.863 12.5885Z" fill="#51DA4C"/>
<path fill-rule="evenodd" clip-rule="evenodd" d="M243.848 79.4954C243.848 76.0191 246.666 73.2011 250.142 73.2011H274.503C277.979 73.2011 280.797 76.0191 280.797 79.4954V103.855C280.797 107.332 277.979 110.15 274.503 110.15C271.027 110.15 268.209 107.332 268.209 103.855V85.7896H250.142C246.666 85.7896 243.848 82.9716 243.848 79.4954Z" fill="#51DA4C"/>
<path fill-rule="evenodd" clip-rule="evenodd" d="M323.344 73.2011C326.821 73.2011 329.639 76.0191 329.639 79.4954C329.639 96.4984 315.826 110.15 298.984 110.15C295.507 110.15 292.689 107.332 292.689 103.855C292.689 100.379 295.507 97.5612 298.984 97.5612C308.914 97.5612 317.05 89.5055 317.05 79.4954C317.05 76.0191 319.868 73.2011 323.344 73.2011Z" fill="#51DA4C"/>
<path fill-rule="evenodd" clip-rule="evenodd" d="M323.345 0C326.821 0 329.639 2.81804 329.639 6.29426V24.3601H347.706C351.182 24.3601 354 27.1781 354 30.6543C354 34.1306 351.182 36.9486 347.706 36.9486H323.345C319.869 36.9486 317.051 34.1306 317.051 30.6543V6.29426C317.051 2.81804 319.869 0 323.345 0Z" fill="#51DA4C"/>
<path fill-rule="evenodd" clip-rule="evenodd" d="M268.208 30.6543C268.208 27.1781 271.027 24.3599 274.503 24.3599H298.863C302.34 24.3599 305.158 27.178 305.158 30.6542C305.158 34.1304 302.34 36.9485 298.863 36.9485L274.503 36.9486C271.027 36.9486 268.208 34.1306 268.208 30.6543Z" fill="#51DA4C"/>
<path fill-rule="evenodd" clip-rule="evenodd" d="M292.57 79.4954C292.57 76.0191 295.388 73.2011 298.864 73.2011H323.345C326.822 73.2011 329.639 76.0191 329.639 79.4954C329.639 82.9716 326.822 85.7896 323.345 85.7896H298.864C295.388 85.7896 292.57 82.9716 292.57 79.4954Z" fill="#51DA4C"/>
<path fill-rule="evenodd" clip-rule="evenodd" d="M347.705 48.7199C351.182 48.7199 354 51.5379 354 55.0141V103.855C354 107.331 351.182 110.149 347.705 110.149C344.229 110.149 341.411 107.331 341.411 103.855V55.0141C341.411 51.5379 344.229 48.7199 347.705 48.7199Z" fill="#51DA4C"/>
<path fill-rule="evenodd" clip-rule="evenodd" d="M250.142 0C253.619 0 256.437 2.81804 256.437 6.29426V55.0144C256.437 58.4906 253.619 61.3087 250.142 61.3087C246.666 61.3087 243.848 58.4906 243.848 55.0144V6.29426C243.848 2.81804 246.666 0 250.142 0Z" fill="#51DA4C"/>
<path fill-rule="evenodd" clip-rule="evenodd" d="M268.208 55.0141C268.208 51.5379 271.027 48.7199 274.503 48.7199H323.345C326.821 48.7199 329.639 51.5379 329.639 55.0141C329.639 58.4904 326.821 61.3084 323.345 61.3084H274.503C271.027 61.3084 268.208 58.4904 268.208 55.0141Z" fill="#51DA4C"/>
<path fill-rule="evenodd" clip-rule="evenodd" d="M55.0154 134.515C45.1055 134.515 36.9492 142.671 36.9492 152.581C36.9492 156.057 34.1311 158.875 30.6548 158.875C27.1785 158.875 24.3604 156.057 24.3604 152.581C24.3604 135.719 38.1529 121.926 55.0154 121.926C58.4917 121.926 61.3098 124.744 61.3098 128.221C61.3098 131.697 58.4917 134.515 55.0154 134.515Z" fill="#51DA4C"/>
<path fill-rule="evenodd" clip-rule="evenodd" d="M0 201.422C0 197.946 2.8181 195.127 6.29439 195.127H30.655C34.1313 195.127 36.9494 197.946 36.9494 201.422V225.782C36.9494 229.258 34.1313 232.076 30.655 232.076C27.1787 232.076 24.3606 229.258 24.3606 225.782V207.716H6.29439C2.8181 207.716 0 204.898 0 201.422Z" fill="#51DA4C"/>
<path fill-rule="evenodd" clip-rule="evenodd" d="M79.4963 195.127C82.9726 195.127 85.7907 197.946 85.7907 201.422C85.7907 218.425 71.978 232.076 55.1358 232.076C51.6595 232.076 48.8414 229.258 48.8414 225.782C48.8414 222.306 51.6595 219.488 55.1358 219.488C65.066 219.488 73.202 211.432 73.202 201.422C73.202 197.946 76.0201 195.127 79.4963 195.127Z" fill="#51DA4C"/>
<path fill-rule="evenodd" clip-rule="evenodd" d="M79.497 121.926C82.9733 121.926 85.7914 124.744 85.7914 128.221V146.286H103.858C107.334 146.286 110.152 149.104 110.152 152.581C110.152 156.057 107.334 158.875 103.858 158.875H79.497C76.0207 158.875 73.2026 156.057 73.2026 152.581V128.221C73.2026 124.744 76.0207 121.926 79.497 121.926Z" fill="#51DA4C"/>
<path fill-rule="evenodd" clip-rule="evenodd" d="M24.3604 152.581C24.3604 149.104 27.1785 146.286 30.6548 146.286H55.0154C58.4917 146.286 61.3098 149.104 61.3098 152.581C61.3098 156.057 58.4917 158.875 55.0154 158.875L30.6548 158.875C27.1785 158.875 24.3604 156.057 24.3604 152.581Z" fill="#51DA4C"/>
<path fill-rule="evenodd" clip-rule="evenodd" d="M48.7217 201.422C48.7217 197.946 51.5398 195.127 55.0161 195.127H79.4963C82.9726 195.127 85.7907 197.946 85.7907 201.422C85.7907 204.898 82.9736 207.716 79.4973 207.716H55.0161C51.5398 207.716 48.7217 204.898 48.7217 201.422Z" fill="#51DA4C"/>
<path fill-rule="evenodd" clip-rule="evenodd" d="M103.857 170.646C107.334 170.646 110.152 173.464 110.152 176.941V225.781C110.152 229.257 107.334 232.076 103.857 232.076C100.381 232.076 97.5631 229.257 97.5631 225.781V176.941C97.5631 173.464 100.381 170.646 103.857 170.646Z" fill="#51DA4C"/>
<path fill-rule="evenodd" clip-rule="evenodd" d="M6.29439 121.926C9.77069 121.926 12.5888 124.744 12.5888 128.221V176.941C12.5888 180.417 9.77069 183.235 6.29439 183.235C2.8181 183.235 0 180.417 0 176.941V128.221C0 124.744 2.8181 121.926 6.29439 121.926Z" fill="#51DA4C"/>
<path fill-rule="evenodd" clip-rule="evenodd" d="M24.3604 176.941C24.3604 173.464 27.1785 170.646 30.6548 170.646H79.4966C82.9729 170.646 85.791 173.464 85.791 176.941C85.791 180.417 82.9729 183.235 79.4966 183.235H30.6548C27.1785 183.235 24.3604 180.417 24.3604 176.941Z" fill="#51DA4C"/>
<path fill-rule="evenodd" clip-rule="evenodd" d="M176.939 134.512C167.029 134.512 158.873 142.668 158.873 152.578C158.873 156.054 156.055 158.873 152.579 158.873C149.103 158.873 146.284 156.054 146.284 152.578C146.284 135.716 160.077 121.924 176.939 121.924C180.416 121.924 183.234 124.742 183.234 128.218C183.234 131.694 180.416 134.512 176.939 134.512Z" fill="#51DA4C"/>
<path fill-rule="evenodd" clip-rule="evenodd" d="M121.924 201.419C121.924 197.943 124.742 195.125 128.218 195.125H152.579C156.055 195.125 158.873 197.943 158.873 201.419V225.779C158.873 229.256 156.055 232.074 152.579 232.074C149.103 232.074 146.285 229.256 146.285 225.779V207.714H128.218C124.742 207.714 121.924 204.896 121.924 201.419Z" fill="#51DA4C"/>
<path fill-rule="evenodd" clip-rule="evenodd" d="M201.42 195.125C204.897 195.125 207.715 197.943 207.715 201.419C207.715 218.422 193.902 232.074 177.06 232.074C173.583 232.074 170.765 229.256 170.765 225.779C170.765 222.303 173.583 219.485 177.06 219.485C186.99 219.485 195.126 211.429 195.126 201.419C195.126 197.943 197.944 195.125 201.42 195.125Z" fill="#51DA4C"/>
<path fill-rule="evenodd" clip-rule="evenodd" d="M201.421 121.924C204.897 121.924 207.715 124.742 207.715 128.218V146.284H225.782C229.258 146.284 232.076 149.102 232.076 152.578C232.076 156.054 229.258 158.873 225.782 158.873H201.421C197.945 158.873 195.127 156.054 195.127 152.578V128.218C195.127 124.742 197.945 121.924 201.421 121.924Z" fill="#51DA4C"/>
<path fill-rule="evenodd" clip-rule="evenodd" d="M146.284 152.578C146.284 149.102 149.103 146.284 152.579 146.284H176.939C180.416 146.284 183.234 149.102 183.234 152.578C183.234 156.054 180.416 158.872 176.939 158.872L152.579 158.873C149.103 158.873 146.284 156.054 146.284 152.578Z" fill="#51DA4C"/>
<path fill-rule="evenodd" clip-rule="evenodd" d="M170.646 201.419C170.646 197.943 173.464 195.125 176.94 195.125H201.42C204.897 195.125 207.715 197.943 207.715 201.419C207.715 204.896 204.898 207.714 201.421 207.714H176.94C173.464 207.714 170.646 204.896 170.646 201.419Z" fill="#51DA4C"/>
<path fill-rule="evenodd" clip-rule="evenodd" d="M225.781 170.644C229.258 170.644 232.076 173.462 232.076 176.938V225.779C232.076 229.255 229.258 232.073 225.781 232.073C222.305 232.073 219.487 229.255 219.487 225.779V176.938C219.487 173.462 222.305 170.644 225.781 170.644Z" fill="#51DA4C"/>
<path fill-rule="evenodd" clip-rule="evenodd" d="M128.218 121.924C131.695 121.924 134.513 124.742 134.513 128.218V176.938C134.513 180.415 131.695 183.233 128.218 183.233C124.742 183.233 121.924 180.415 121.924 176.938V128.218C121.924 124.742 124.742 121.924 128.218 121.924Z" fill="#51DA4C"/>
<path fill-rule="evenodd" clip-rule="evenodd" d="M146.284 176.938C146.284 173.462 149.103 170.644 152.579 170.644H201.421C204.897 170.644 207.715 173.462 207.715 176.938C207.715 180.414 204.897 183.232 201.421 183.232H152.579C149.103 183.232 146.284 180.414 146.284 176.938Z" fill="#51DA4C"/>
<path fill-rule="evenodd" clip-rule="evenodd" d="M298.863 134.515C288.953 134.515 280.797 142.671 280.797 152.581C280.797 156.057 277.979 158.875 274.503 158.875C271.027 158.875 268.208 156.057 268.208 152.581C268.208 135.719 282.001 121.926 298.863 121.926C302.34 121.926 305.158 124.744 305.158 128.221C305.158 131.697 302.34 134.515 298.863 134.515Z" fill="#51DA4C"/>
<path fill-rule="evenodd" clip-rule="evenodd" d="M243.848 201.422C243.848 197.946 246.666 195.127 250.142 195.127H274.503C277.979 195.127 280.797 197.946 280.797 201.422V225.782C280.797 229.258 277.979 232.076 274.503 232.076C271.027 232.076 268.209 229.258 268.209 225.782V207.716H250.142C246.666 207.716 243.848 204.898 243.848 201.422Z" fill="#51DA4C"/>
<path fill-rule="evenodd" clip-rule="evenodd" d="M323.344 195.127C326.821 195.127 329.639 197.946 329.639 201.422C329.639 218.425 315.826 232.076 298.984 232.076C295.507 232.076 292.689 229.258 292.689 225.782C292.689 222.306 295.507 219.488 298.984 219.488C308.914 219.488 317.05 211.432 317.05 201.422C317.05 197.946 319.868 195.127 323.344 195.127Z" fill="#51DA4C"/>
<path fill-rule="evenodd" clip-rule="evenodd" d="M323.345 121.926C326.821 121.926 329.639 124.744 329.639 128.221V146.286H347.706C351.182 146.286 354 149.104 354 152.581C354 156.057 351.182 158.875 347.706 158.875H323.345C319.869 158.875 317.051 156.057 317.051 152.581V128.221C317.051 124.744 319.869 121.926 323.345 121.926Z" fill="#51DA4C"/>
<path fill-rule="evenodd" clip-rule="evenodd" d="M268.208 152.581C268.208 149.104 271.027 146.286 274.503 146.286H298.863C302.34 146.286 305.158 149.104 305.158 152.581C305.158 156.057 302.34 158.875 298.863 158.875L274.503 158.875C271.027 158.875 268.208 156.057 268.208 152.581Z" fill="#51DA4C"/>
<path fill-rule="evenodd" clip-rule="evenodd" d="M292.57 201.422C292.57 197.946 295.388 195.127 298.864 195.127H323.345C326.822 195.127 329.639 197.946 329.639 201.422C329.639 204.898 326.822 207.716 323.345 207.716H298.864C295.388 207.716 292.57 204.898 292.57 201.422Z" fill="#51DA4C"/>
<path fill-rule="evenodd" clip-rule="evenodd" d="M347.705 170.646C351.182 170.646 354 173.464 354 176.941V225.781C354 229.257 351.182 232.076 347.705 232.076C344.229 232.076 341.411 229.257 341.411 225.781V176.941C341.411 173.464 344.229 170.646 347.705 170.646Z" fill="#51DA4C"/>
<path fill-rule="evenodd" clip-rule="evenodd" d="M250.142 121.926C253.619 121.926 256.437 124.744 256.437 128.221V176.941C256.437 180.417 253.619 183.235 250.142 183.235C246.666 183.235 243.848 180.417 243.848 176.941V128.221C243.848 124.744 246.666 121.926 250.142 121.926Z" fill="#51DA4C"/>
<path fill-rule="evenodd" clip-rule="evenodd" d="M268.208 176.941C268.208 173.464 271.027 170.646 274.503 170.646H323.345C326.821 170.646 329.639 173.464 329.639 176.941C329.639 180.417 326.821 183.235 323.345 183.235H274.503C271.027 183.235 268.208 180.417 268.208 176.941Z" fill="#51DA4C"/>
<path fill-rule="evenodd" clip-rule="evenodd" d="M55.0154 256.439C45.1055 256.439 36.9492 264.595 36.9492 274.505C36.9492 277.981 34.1311 280.799 30.6548 280.799C27.1785 280.799 24.3604 277.981 24.3604 274.505C24.3604 257.642 38.1529 243.85 55.0154 243.85C58.4917 243.85 61.3098 246.668 61.3098 250.145C61.3098 253.621 58.4917 256.439 55.0154 256.439Z" fill="#51DA4C"/>
<path fill-rule="evenodd" clip-rule="evenodd" d="M0 323.346C0 319.869 2.8181 317.051 6.29439 317.051H30.655C34.1313 317.051 36.9494 319.869 36.9494 323.346V347.706C36.9494 351.182 34.1313 354 30.655 354C27.1787 354 24.3606 351.182 24.3606 347.706V329.64H6.29439C2.8181 329.64 0 326.822 0 323.346Z" fill="#51DA4C"/>
<path fill-rule="evenodd" clip-rule="evenodd" d="M79.4963 317.051C82.9726 317.051 85.7907 319.869 85.7907 323.346C85.7907 340.349 71.978 354 55.1358 354C51.6595 354 48.8414 351.182 48.8414 347.706C48.8414 344.23 51.6595 341.411 55.1358 341.411C65.066 341.411 73.202 333.356 73.202 323.346C73.202 319.869 76.0201 317.051 79.4963 317.051Z" fill="#51DA4C"/>
<path fill-rule="evenodd" clip-rule="evenodd" d="M79.497 243.85C82.9733 243.85 85.7914 246.668 85.7914 250.145V268.21H103.858C107.334 268.21 110.152 271.028 110.152 274.505C110.152 277.981 107.334 280.799 103.858 280.799H79.497C76.0207 280.799 73.2026 277.981 73.2026 274.505V250.145C73.2026 246.668 76.0207 243.85 79.497 243.85Z" fill="#51DA4C"/>
<path fill-rule="evenodd" clip-rule="evenodd" d="M24.3604 274.505C24.3604 271.028 27.1785 268.21 30.6548 268.21H55.0154C58.4917 268.21 61.3098 271.028 61.3098 274.504C61.3098 277.981 58.4917 280.799 55.0154 280.799L30.6548 280.799C27.1785 280.799 24.3604 277.981 24.3604 274.505Z" fill="#51DA4C"/>
<path fill-rule="evenodd" clip-rule="evenodd" d="M48.7217 323.346C48.7217 319.869 51.5398 317.051 55.0161 317.051H79.4963C82.9726 317.051 85.7907 319.869 85.7907 323.346C85.7907 326.822 82.9736 329.64 79.4973 329.64H55.0161C51.5398 329.64 48.7217 326.822 48.7217 323.346Z" fill="#51DA4C"/>
<path fill-rule="evenodd" clip-rule="evenodd" d="M103.857 292.57C107.334 292.57 110.152 295.388 110.152 298.864V347.705C110.152 351.181 107.334 353.999 103.857 353.999C100.381 353.999 97.5631 351.181 97.5631 347.705V298.864C97.5631 295.388 100.381 292.57 103.857 292.57Z" fill="#51DA4C"/>
<path fill-rule="evenodd" clip-rule="evenodd" d="M6.29439 243.85C9.77069 243.85 12.5888 246.668 12.5888 250.145V298.865C12.5888 302.341 9.77069 305.159 6.29439 305.159C2.8181 305.159 0 302.341 0 298.865V250.145C0 246.668 2.8181 243.85 6.29439 243.85Z" fill="#51DA4C"/>
<path fill-rule="evenodd" clip-rule="evenodd" d="M24.3604 298.864C24.3604 295.388 27.1785 292.57 30.6548 292.57H79.4966C82.9729 292.57 85.791 295.388 85.791 298.864C85.791 302.341 82.9729 305.159 79.4966 305.159H30.6548C27.1785 305.159 24.3604 302.341 24.3604 298.864Z" fill="#51DA4C"/>
<path fill-rule="evenodd" clip-rule="evenodd" d="M176.939 256.436C167.029 256.436 158.873 264.592 158.873 274.502C158.873 277.978 156.055 280.796 152.579 280.796C149.103 280.796 146.284 277.978 146.284 274.502C146.284 257.64 160.077 243.848 176.939 243.848C180.416 243.848 183.234 246.666 183.234 250.142C183.234 253.618 180.416 256.436 176.939 256.436Z" fill="#51DA4C"/>
<path fill-rule="evenodd" clip-rule="evenodd" d="M121.924 323.343C121.924 319.867 124.742 317.049 128.218 317.049H152.579C156.055 317.049 158.873 319.867 158.873 323.343V347.703C158.873 351.179 156.055 353.998 152.579 353.998C149.103 353.998 146.285 351.179 146.285 347.703V329.637H128.218C124.742 329.637 121.924 326.819 121.924 323.343Z" fill="#51DA4C"/>
<path fill-rule="evenodd" clip-rule="evenodd" d="M201.42 317.049C204.897 317.049 207.715 319.867 207.715 323.343C207.715 340.346 193.902 353.998 177.06 353.998C173.583 353.998 170.765 351.179 170.765 347.703C170.765 344.227 173.583 341.409 177.06 341.409C186.99 341.409 195.126 333.353 195.126 323.343C195.126 319.867 197.944 317.049 201.42 317.049Z" fill="#51DA4C"/>
<path fill-rule="evenodd" clip-rule="evenodd" d="M201.421 243.848C204.897 243.848 207.715 246.666 207.715 250.142V268.208H225.782C229.258 268.208 232.076 271.026 232.076 274.502C232.076 277.978 229.258 280.796 225.782 280.796H201.421C197.945 280.796 195.127 277.978 195.127 274.502V250.142C195.127 246.666 197.945 243.848 201.421 243.848Z" fill="#51DA4C"/>
<path fill-rule="evenodd" clip-rule="evenodd" d="M146.284 274.502C146.284 271.026 149.103 268.208 152.579 268.208H176.939C180.416 268.208 183.234 271.026 183.234 274.502C183.234 277.978 180.416 280.796 176.939 280.796L152.579 280.796C149.103 280.796 146.284 277.978 146.284 274.502Z" fill="#51DA4C"/>
<path fill-rule="evenodd" clip-rule="evenodd" d="M170.646 323.343C170.646 319.867 173.464 317.049 176.94 317.049H201.42C204.897 317.049 207.715 319.867 207.715 323.343C207.715 326.819 204.898 329.637 201.421 329.637H176.94C173.464 329.637 170.646 326.819 170.646 323.343Z" fill="#51DA4C"/>
<path fill-rule="evenodd" clip-rule="evenodd" d="M225.781 292.568C229.258 292.568 232.076 295.386 232.076 298.862V347.703C232.076 351.179 229.258 353.997 225.781 353.997C222.305 353.997 219.487 351.179 219.487 347.703V298.862C219.487 295.386 222.305 292.568 225.781 292.568Z" fill="#51DA4C"/>
<path fill-rule="evenodd" clip-rule="evenodd" d="M128.218 243.848C131.695 243.848 134.513 246.666 134.513 250.142V298.862C134.513 302.338 131.695 305.157 128.218 305.157C124.742 305.157 121.924 302.338 121.924 298.862V250.142C121.924 246.666 124.742 243.848 128.218 243.848Z" fill="#51DA4C"/>
<path fill-rule="evenodd" clip-rule="evenodd" d="M146.284 298.862C146.284 295.386 149.103 292.568 152.579 292.568H201.421C204.897 292.568 207.715 295.386 207.715 298.862C207.715 302.338 204.897 305.156 201.421 305.156H152.579C149.103 305.156 146.284 302.338 146.284 298.862Z" fill="#51DA4C"/>
<path fill-rule="evenodd" clip-rule="evenodd" d="M298.863 256.439C288.953 256.439 280.797 264.595 280.797 274.505C280.797 277.981 277.979 280.799 274.503 280.799C271.027 280.799 268.208 277.981 268.208 274.505C268.208 257.642 282.001 243.85 298.863 243.85C302.34 243.85 305.158 246.668 305.158 250.145C305.158 253.621 302.34 256.439 298.863 256.439Z" fill="#51DA4C"/>
<path fill-rule="evenodd" clip-rule="evenodd" d="M243.848 323.346C243.848 319.869 246.666 317.051 250.142 317.051H274.503C277.979 317.051 280.797 319.869 280.797 323.346V347.706C280.797 351.182 277.979 354 274.503 354C271.027 354 268.209 351.182 268.209 347.706V329.64H250.142C246.666 329.64 243.848 326.822 243.848 323.346Z" fill="#51DA4C"/>
<path fill-rule="evenodd" clip-rule="evenodd" d="M323.344 317.051C326.821 317.051 329.639 319.869 329.639 323.346C329.639 340.349 315.826 354 298.984 354C295.507 354 292.689 351.182 292.689 347.706C292.689 344.23 295.507 341.411 298.984 341.411C308.914 341.411 317.05 333.356 317.05 323.346C317.05 319.869 319.868 317.051 323.344 317.051Z" fill="#51DA4C"/>
<path fill-rule="evenodd" clip-rule="evenodd" d="M323.345 243.85C326.821 243.85 329.639 246.668 329.639 250.145V268.21H347.706C351.182 268.21 354 271.028 354 274.505C354 277.981 351.182 280.799 347.706 280.799H323.345C319.869 280.799 317.051 277.981 317.051 274.505V250.145C317.051 246.668 319.869 243.85 323.345 243.85Z" fill="#51DA4C"/>
<path fill-rule="evenodd" clip-rule="evenodd" d="M268.208 274.505C268.208 271.028 271.027 268.21 274.503 268.21H298.863C302.34 268.21 305.158 271.028 305.158 274.504C305.158 277.981 302.34 280.799 298.863 280.799L274.503 280.799C271.027 280.799 268.208 277.981 268.208 274.505Z" fill="#51DA4C"/>
<path fill-rule="evenodd" clip-rule="evenodd" d="M292.57 323.346C292.57 319.869 295.388 317.051 298.864 317.051H323.345C326.822 317.051 329.639 319.869 329.639 323.346C329.639 326.822 326.822 329.64 323.345 329.64H298.864C295.388 329.64 292.57 326.822 292.57 323.346Z" fill="#51DA4C"/>
<path fill-rule="evenodd" clip-rule="evenodd" d="M347.705 292.57C351.182 292.57 354 295.388 354 298.864V347.705C354 351.181 351.182 353.999 347.705 353.999C344.229 353.999 341.411 351.181 341.411 347.705V298.864C341.411 295.388 344.229 292.57 347.705 292.57Z" fill="#51DA4C"/>
<path fill-rule="evenodd" clip-rule="evenodd" d="M250.142 243.85C253.619 243.85 256.437 246.668 256.437 250.145V298.865C256.437 302.341 253.619 305.159 250.142 305.159C246.666 305.159 243.848 302.341 243.848 298.865V250.145C243.848 246.668 246.666 243.85 250.142 243.85Z" fill="#51DA4C"/>
<path fill-rule="evenodd" clip-rule="evenodd" d="M268.208 298.864C268.208 295.388 271.027 292.57 274.503 292.57H323.345C326.821 292.57 329.639 295.388 329.639 298.864C329.639 302.341 326.821 305.159 323.345 305.159H274.503C271.027 305.159 268.208 302.341 268.208 298.864Z" fill="#51DA4C"/>
</svg>
