<svg width="1000" height="1000" viewBox="0 0 1000 1000" fill="none" xmlns="http://www.w3.org/2000/svg">
<path fill-rule="evenodd" clip-rule="evenodd" d="M686.441 42.373C686.441 18.9711 705.412 8.25964e-05 728.814 8.56652e-05L957.627 0.00011567C981.029 0.000118739 1000 18.9711 1000 42.373C1000 65.7749 981.029 84.7459 957.627 84.7459L728.814 84.7459C705.412 84.7459 686.441 65.7749 686.441 42.373Z" fill="#00002E"/>
<path fill-rule="evenodd" clip-rule="evenodd" d="M42.373 313.56C18.9711 313.56 8.17671e-05 294.589 8.3813e-05 271.187L0.000103817 42.3731C0.000105862 18.9712 18.9711 0.000252696 42.373 0.000254741C65.7749 0.000256787 84.7459 18.9712 84.7459 42.3731L84.7459 271.187C84.7459 294.589 65.7749 313.56 42.373 313.56Z" fill="#00002E"/>
<path fill-rule="evenodd" clip-rule="evenodd" d="M957.627 686.44C981.029 686.44 1000 705.411 1000 728.813L1000 957.627C1000 981.029 981.029 1000 957.627 1000C934.225 1000 915.254 981.029 915.254 957.627L915.254 728.813C915.254 705.411 934.225 686.44 957.627 686.44Z" fill="#00002E"/>
<path fill-rule="evenodd" clip-rule="evenodd" d="M313.559 957.627C313.559 981.029 294.588 1000 271.186 1000L42.3729 1000C18.971 1000 -7.04203e-08 981.029 5.04423e-06 957.627C1.01589e-05 934.225 18.971 915.254 42.3729 915.254L271.186 915.254C294.588 915.254 313.559 934.225 313.559 957.627Z" fill="#00002E"/>
<path fill-rule="evenodd" clip-rule="evenodd" d="M5.55653e-06 271.187C8.62532e-06 247.785 18.971 228.814 42.3729 228.814L271.186 228.814C294.588 228.814 313.559 247.785 313.559 271.187C313.559 294.589 294.588 313.56 271.186 313.56L42.3729 313.56C18.971 313.56 2.48774e-06 294.589 5.55653e-06 271.187Z" fill="#00002E"/>
<path fill-rule="evenodd" clip-rule="evenodd" d="M728.814 228.813C752.215 228.813 771.186 247.784 771.186 271.186L771.186 500C771.186 523.402 752.215 542.373 728.814 542.373C705.412 542.373 686.441 523.402 686.441 500L686.441 271.186C686.441 247.784 705.412 228.813 728.814 228.813Z" fill="#00002E"/>
<path fill-rule="evenodd" clip-rule="evenodd" d="M1000 728.813C1000 752.215 981.029 771.186 957.627 771.186L728.814 771.186C705.412 771.186 686.441 752.215 686.441 728.813C686.441 705.411 705.412 686.44 728.814 686.44L957.627 686.44C981.029 686.44 1000 705.411 1000 728.813Z" fill="#00002E"/>
<path fill-rule="evenodd" clip-rule="evenodd" d="M271.186 771.187C247.785 771.187 228.814 752.216 228.814 728.814L228.814 500C228.814 476.598 247.785 457.627 271.187 457.627C294.588 457.627 313.559 476.598 313.559 500L313.559 728.814C313.559 752.216 294.588 771.187 271.186 771.187Z" fill="#00002E"/>
<path fill-rule="evenodd" clip-rule="evenodd" d="M957.627 228.813C981.029 228.813 1000 247.784 1000 271.186C1000 420.953 878.581 542.373 728.814 542.373C705.412 542.373 686.441 523.402 686.441 500C686.441 476.598 705.412 457.627 728.814 457.627C831.777 457.627 915.254 374.15 915.254 271.186C915.254 247.784 934.225 228.813 957.627 228.813Z" fill="#00002E"/>
<path fill-rule="evenodd" clip-rule="evenodd" d="M228.813 42.3729C228.813 18.971 247.784 0 271.186 0C420.953 0 542.373 121.419 542.373 271.186C542.373 294.588 523.402 313.559 500 313.559C476.598 313.559 457.627 294.588 457.627 271.186C457.627 168.223 374.15 84.7458 271.186 84.7458C247.784 84.7458 228.813 65.7748 228.813 42.3729Z" fill="#00002E"/>
<path fill-rule="evenodd" clip-rule="evenodd" d="M771.187 957.627C771.187 981.029 752.216 1000 728.814 1000C579.047 1000 457.627 878.58 457.627 728.814C457.627 705.412 476.598 686.441 500 686.441C523.402 686.441 542.373 705.412 542.373 728.814C542.373 831.777 625.85 915.254 728.814 915.254C752.216 915.254 771.187 934.225 771.187 957.627Z" fill="#00002E"/>
<path fill-rule="evenodd" clip-rule="evenodd" d="M42.3729 771.187C18.971 771.187 2.48774e-06 752.216 5.55653e-06 728.814C2.51961e-05 579.047 121.42 457.627 271.186 457.627C294.588 457.627 313.559 476.598 313.559 500C313.559 523.402 294.588 542.373 271.186 542.373C168.223 542.373 84.7458 625.85 84.7458 728.814C84.7458 752.216 65.7748 771.187 42.3729 771.187Z" fill="#00002E"/>
</svg>
