<svg width="579" height="579" viewBox="0 0 579 579" fill="none" xmlns="http://www.w3.org/2000/svg">
<path fill-rule="evenodd" clip-rule="evenodd" d="M419.156 60.3125C364.186 60.3125 319.656 104.842 319.656 159.812C319.656 176.467 306.155 189.968 289.5 189.968C272.845 189.968 259.344 176.467 259.344 159.812C259.344 71.5323 330.876 0 419.156 0C435.811 0 449.312 13.5014 449.312 30.1562C449.312 46.8111 435.811 60.3125 419.156 60.3125Z" fill="#193718"/>
<path fill-rule="evenodd" clip-rule="evenodd" d="M289.484 389.016C306.139 389.016 319.64 402.517 319.64 419.172C319.64 507.452 248.108 578.984 159.828 578.984C143.173 578.984 129.672 565.483 129.672 548.828C129.672 532.173 143.173 518.671 159.828 518.671C214.798 518.671 259.328 474.142 259.328 419.172C259.328 402.517 272.829 389.016 289.484 389.016Z" fill="#193718"/>
<path fill-rule="evenodd" clip-rule="evenodd" d="M389.032 289.468C389.032 272.813 402.533 259.312 419.188 259.312C507.468 259.312 579 330.844 579 419.124C579 435.779 565.499 449.28 548.844 449.28C532.189 449.28 518.687 435.779 518.687 419.124C518.687 364.154 474.158 319.624 419.188 319.624C402.533 319.624 389.032 306.123 389.032 289.468Z" fill="#193718"/>
<path fill-rule="evenodd" clip-rule="evenodd" d="M30.1563 129.672C46.8111 129.672 60.3125 143.173 60.3125 159.828C60.3125 214.798 104.842 259.328 159.812 259.328C176.467 259.328 189.968 272.829 189.968 289.484C189.968 306.139 176.467 319.64 159.812 319.64C71.5324 319.64 0 248.108 0 159.828C0 143.173 13.5014 129.672 30.1563 129.672Z" fill="#193718"/>
<path fill-rule="evenodd" clip-rule="evenodd" d="M548.828 0C565.483 0 578.984 13.5014 578.984 30.1562V159.812C578.984 176.467 565.483 189.968 548.828 189.968H419.172C402.517 189.968 389.016 176.467 389.016 159.812C389.016 143.157 402.517 129.656 419.172 129.656H518.672V30.1562C518.672 13.5014 532.173 0 548.828 0Z" fill="#193718"/>
<path fill-rule="evenodd" clip-rule="evenodd" d="M0 419.172C0 402.517 13.5014 389.016 30.1563 389.016H159.812C176.467 389.016 189.968 402.517 189.968 419.172C189.968 435.827 176.467 449.328 159.812 449.328H60.3125V548.828C60.3125 565.483 46.8111 578.984 30.1563 578.984C13.5014 578.984 0 565.483 0 548.828V419.172Z" fill="#193718"/>
<path fill-rule="evenodd" clip-rule="evenodd" d="M0 30.1562C0 13.5014 13.5014 0 30.1563 0H159.812C176.467 0 189.968 13.5014 189.968 30.1562C189.968 46.8111 176.467 60.3125 159.812 60.3125H30.1563C13.5014 60.3125 0 46.8111 0 30.1562Z" fill="#193718"/>
<path fill-rule="evenodd" clip-rule="evenodd" d="M389.016 548.844C389.016 532.189 402.517 518.687 419.172 518.687H548.828C565.483 518.687 578.984 532.189 578.984 548.844C578.984 565.499 565.483 579 548.828 579H419.172C402.517 579 389.016 565.499 389.016 548.844Z" fill="#193718"/>
</svg>
