<?xml version="1.0" standalone="no"?>
<!DOCTYPE svg PUBLIC "-//W3C//DTD SVG 20010904//EN"
 "http://www.w3.org/TR/2001/REC-SVG-20010904/DTD/svg10.dtd">
<svg version="1.0" xmlns="http://www.w3.org/2000/svg"
 width="291.000000pt" height="291.000000pt" viewBox="0 0 291.000000 291.000000"
 preserveAspectRatio="xMidYMid meet">
<metadata>
Created by potrace 1.14, written by Peter Selinger 2001-2017
</metadata>
<g transform="translate(0.000000,291.000000) scale(0.100000,-0.100000)"
fill="#000000" stroke="none">
<path d="M105 2903 c-33 -9 -63 -33 -84 -69 -19 -32 -20 -52 -21 -381 0 -192
2 -362 6 -379 7 -39 39 -76 82 -98 29 -15 71 -17 400 -14 l367 3 32 24 c88 66
82 191 -11 246 -43 25 -43 25 -309 25 l-267 0 0 254 c0 139 -3 268 -6 285 -15
75 -106 125 -189 104z"/>
<path d="M735 2895 c-62 -34 -95 -105 -80 -175 11 -49 68 -98 123 -105 196
-23 274 -56 373 -154 45 -45 76 -87 96 -131 36 -77 41 -99 53 -202 10 -89 35
-131 89 -154 80 -33 154 -5 196 75 14 29 16 49 11 121 -26 356 -292 657 -641
725 -16 3 -66 8 -110 11 -62 4 -87 1 -110 -11z"/>
<path d="M2029 2890 c-95 -50 -104 -185 -15 -251 l31 -24 380 0 380 0 31 24
c74 55 83 161 19 225 -18 18 -47 36 -65 40 -18 3 -188 6 -379 6 -320 -1 -349
-2 -382 -20z"/>
<path d="M2050 2252 c-38 -18 -70 -46 -84 -77 -14 -29 -16 -83 -16 -395 1
-387 0 -382 54 -432 36 -34 78 -43 164 -34 366 36 653 297 717 651 18 93 14
193 -8 226 -23 34 -87 69 -128 69 -79 -1 -149 -74 -149 -157 0 -175 -118 -361
-280 -442 l-65 -32 -5 263 c-3 145 -9 272 -14 283 -13 27 -54 65 -83 76 -28
10 -81 11 -103 1z"/>
<path d="M650 1596 c-305 -61 -548 -290 -625 -591 -24 -91 -26 -241 -4 -272
43 -61 119 -87 181 -63 43 17 87 67 92 105 3 17 9 65 15 109 16 111 58 195
140 276 41 41 91 78 131 98 l65 32 5 -267 c5 -257 6 -269 27 -299 32 -45 85
-68 140 -60 54 7 86 28 112 72 20 33 21 48 18 407 -2 371 -2 373 -25 402 -12
16 -32 35 -44 43 -28 20 -147 24 -228 8z"/>
<path d="M1400 953 c-75 -29 -107 -99 -96 -213 35 -385 339 -690 723 -726 119
-11 157 4 202 76 53 88 -4 202 -107 215 -197 23 -274 56 -374 155 -92 92 -131
178 -148 328 -5 45 -17 93 -26 107 -32 49 -121 78 -174 58z"/>
<path d="M1986 934 c-96 -66 -89 -200 14 -255 31 -17 61 -19 303 -19 l268 0
-2 -268 c-2 -296 0 -309 61 -352 71 -51 175 -28 218 48 20 37 21 49 21 393 0
334 -1 356 -20 396 -15 30 -32 48 -63 62 -40 20 -59 21 -402 21 l-359 0 -39
-26z"/>
<path d="M76 287 c-102 -58 -97 -211 8 -261 50 -23 731 -24 780 -1 67 32 102
120 76 187 -17 42 -64 84 -103 92 -16 3 -185 6 -376 6 -340 0 -347 -1 -385
-23z"/>
</g>
</svg>
