<svg width="1327" height="362" viewBox="0 0 1327 362" fill="none" xmlns="http://www.w3.org/2000/svg">
<path fill-rule="evenodd" clip-rule="evenodd" d="M743.927 40C710.513 40 683.5 67.0161 683.5 100.301C683.5 100.447 683.498 100.592 683.495 100.737C683.497 100.843 683.498 100.949 683.498 101.056C683.498 112.101 674.544 121.056 663.498 121.056H583.07C572.025 121.056 563.07 112.101 563.07 101.056C563.07 90.0098 572.025 81.0555 583.07 81.0555H645.345C654.331 34.842 695.066 0 743.927 0C754.973 0 763.927 8.9543 763.927 20C763.927 31.0457 754.973 40 743.927 40ZM804.354 20C804.354 8.9543 813.309 0 824.354 0H985.249C993.342 0 1000.64 4.87733 1003.73 12.3559C1006.82 19.8345 1005.11 28.4401 999.377 34.1568L924.782 108.597V180.601C924.782 191.647 915.828 200.601 904.782 200.601C893.736 200.601 884.782 191.647 884.782 180.601V100.301C884.782 94.9891 886.895 89.8957 890.654 86.1438L936.894 40H824.354C813.309 40 804.354 31.0457 804.354 20ZM1046 100C1046 44.7604 1090.76 0 1146 0C1157.05 0 1166 8.9543 1166 20C1166 31.0457 1157.05 40 1146 40C1112.85 40 1086 66.8518 1086 100C1086 111.046 1077.05 120 1066 120C1054.95 120 1046 111.046 1046 100ZM1212.37 5.87253C1220.18 -1.94604 1232.84 -1.95917 1240.66 5.84321L1321.13 86.1438C1328.94 93.9462 1328.96 106.61 1321.16 114.428C1313.35 122.247 1300.69 122.26 1292.87 114.457L1212.4 34.1568C1204.59 26.3544 1204.57 13.6911 1212.37 5.87253ZM0 20.7532C0 9.70751 8.9543 0.753204 20 0.753204H100.427C111.473 0.753204 120.427 9.70751 120.427 20.7532C120.427 31.7989 111.473 40.7532 100.427 40.7532H40V101.054C40 112.1 31.0457 121.054 20 121.054C8.9543 121.054 0 112.1 0 101.054V20.7532ZM160.857 20.7532C160.857 9.70751 169.812 0.753204 180.857 0.753204C236.303 0.753204 281.285 45.6184 281.285 101.054C281.285 112.1 272.331 121.054 261.285 121.054C250.239 121.054 241.285 112.1 241.285 101.054C241.285 67.7693 214.272 40.7532 180.857 40.7532C169.812 40.7532 160.857 31.7989 160.857 20.7532ZM321.748 20.7532C321.748 9.70751 330.702 0.753204 341.748 0.753204H422.176C433.221 0.753204 442.176 9.70751 442.176 20.7532V101.054C442.176 112.1 433.221 121.054 422.176 121.054C411.13 121.054 402.176 112.1 402.176 101.054V40.7532H361.748V101.054C361.748 112.1 352.794 121.054 341.748 121.054C330.702 121.054 321.748 112.1 321.748 101.054V20.7532ZM482.605 20.7532C482.605 9.70751 491.56 0.753204 502.605 0.753204H583.073C594.118 0.753204 603.073 9.70751 603.073 20.7532C603.073 31.7989 594.118 40.7532 583.073 40.7532H502.605C491.56 40.7532 482.605 31.7989 482.605 20.7532ZM824.354 80.3033C835.4 80.3033 844.354 89.2576 844.354 100.303V240.942H904.782C915.828 240.942 924.782 249.896 924.782 260.942C924.782 271.987 915.828 280.942 904.782 280.942H824.68C824.572 280.943 824.463 280.944 824.354 280.944C824.246 280.944 824.137 280.943 824.029 280.942H752.203L677.631 355.396C669.814 363.2 657.151 363.19 649.347 355.373C641.542 347.557 641.552 334.893 649.369 327.089L729.797 246.788C733.546 243.044 738.629 240.942 743.927 240.942H804.354V100.303C804.354 89.2576 813.309 80.3033 824.354 80.3033ZM1146.1 80.3033C1157.15 80.3033 1166.1 89.2576 1166.1 100.303V180.604C1166.1 191.65 1157.15 200.604 1146.1 200.604H1065.68C1054.63 200.604 1045.68 191.65 1045.68 180.604C1045.68 169.558 1054.63 160.604 1065.68 160.604H1126.1V100.303C1126.1 89.2576 1135.06 80.3033 1146.1 80.3033ZM86.2735 86.9246C94.0778 79.1079 106.741 79.0979 114.558 86.9023L189.129 161.356H261.321C272.367 161.356 281.321 170.31 281.321 181.356C281.321 192.402 272.367 201.356 261.321 201.356H180.854C175.555 201.356 170.473 199.253 166.723 195.509L86.2958 115.209C78.4791 107.405 78.4691 94.7412 86.2735 86.9246ZM643.5 180.599C643.5 169.554 652.454 160.599 663.5 160.599H743.927C754.973 160.599 763.927 169.554 763.927 180.599C763.927 191.645 754.973 200.599 743.927 200.599H663.5C652.454 200.599 643.5 191.645 643.5 180.599ZM985.249 160.599C996.295 160.599 1005.25 169.554 1005.25 180.599V242.888C1051.12 252.144 1085.68 292.612 1085.68 341.201C1085.68 352.246 1076.72 361.201 1065.68 361.201C1054.63 361.201 1045.68 352.246 1045.68 341.201C1045.68 307.916 1018.66 280.9 985.249 280.9C974.203 280.9 965.249 271.946 965.249 260.9V180.599C965.249 169.554 974.203 160.599 985.249 160.599ZM1321.15 166.468C1328.96 174.285 1328.95 186.948 1321.13 194.753L1240.66 275.093C1236.91 278.837 1231.83 280.94 1226.53 280.94H1166.11V341.24C1166.11 352.286 1157.15 361.24 1146.11 361.24C1135.06 361.24 1126.11 352.286 1126.11 341.24V260.94C1126.11 249.894 1135.06 240.94 1146.11 240.94H1218.26L1292.87 166.446C1300.69 158.642 1313.35 158.652 1321.15 166.468ZM0 181.359C0 170.313 8.9543 161.359 20 161.359H100.427C111.473 161.359 120.427 170.313 120.427 181.359C120.427 192.405 111.473 201.359 100.427 201.359H20C8.9543 201.359 0 192.405 0 181.359ZM341.748 161.359C352.794 161.359 361.748 170.313 361.748 181.359V261.285C361.751 261.421 361.752 261.557 361.752 261.693C361.752 261.83 361.751 261.966 361.748 262.102V342C361.748 353.046 352.794 362 341.748 362C330.702 362 321.748 353.046 321.748 342V281.693H269.597L194.985 356.151C187.166 363.953 174.503 363.94 166.701 356.121C158.898 348.303 158.911 335.64 166.73 327.837L247.197 247.537C250.947 243.795 256.027 241.693 261.325 241.693H321.748V181.359C321.748 170.313 330.702 161.359 341.748 161.359ZM402.179 181.398C402.179 170.352 411.133 161.398 422.179 161.398H583.034C594.079 161.398 603.034 170.352 603.034 181.398C603.034 192.444 594.079 201.398 583.034 201.398H502.445C515.102 218.177 522.606 239.056 522.606 261.698C522.606 272.744 513.652 281.698 502.606 281.698C491.56 281.698 482.606 272.744 482.606 261.698C482.606 228.414 455.593 201.398 422.179 201.398C411.133 201.398 402.179 192.444 402.179 181.398ZM649.37 247.54C657.187 239.736 669.85 239.746 677.654 247.562C685.458 255.379 685.448 268.042 677.632 275.847L597.204 356.147C593.455 359.891 588.372 361.994 583.073 361.994H422.179C411.133 361.994 402.179 353.04 402.179 341.994C402.179 330.948 411.133 321.994 422.179 321.994H574.798L649.37 247.54ZM20 241.699C31.0457 241.699 40 250.653 40 261.699V318.622C63.5621 310.385 80.4275 287.999 80.4275 261.699C80.4275 250.653 89.3818 241.699 100.427 241.699C111.473 241.699 120.427 250.653 120.427 261.699C120.427 317.135 75.4459 362 20 362C8.9543 362 0 353.045 0 342V261.699C0 250.653 8.9543 241.699 20 241.699ZM804.354 341.245C804.354 330.199 813.309 321.245 824.354 321.245H904.782C915.828 321.245 924.782 330.199 924.782 341.245C924.782 352.291 915.828 361.245 904.782 361.245H824.354C813.309 361.245 804.354 352.291 804.354 341.245ZM1206.53 341.245C1206.53 330.199 1215.49 321.245 1226.53 321.245H1307C1318.04 321.245 1327 330.199 1327 341.245C1327 352.291 1318.04 361.245 1307 361.245H1226.53C1215.49 361.245 1206.53 352.291 1206.53 341.245Z" fill="#D9FFD8"/>
</svg>
