<svg width="1224" height="405" viewBox="0 0 1224 405" fill="none" xmlns="http://www.w3.org/2000/svg">
<path fill-rule="evenodd" clip-rule="evenodd" d="M293.082 313.126C253.843 313.126 222.056 344.914 222.056 384.153C222.056 395.199 213.101 404.153 202.056 404.153C191.01 404.153 182.056 395.199 182.056 384.153C182.056 322.822 231.751 273.126 293.082 273.126C304.128 273.126 313.082 282.081 313.082 293.126C313.082 304.172 304.128 313.126 293.082 313.126Z" fill="#D9FFD8"/>
<path fill-rule="evenodd" clip-rule="evenodd" d="M398.292 96.8867C406.103 104.697 406.103 117.36 398.292 125.171L307.265 216.198C303.515 219.948 298.428 222.056 293.123 222.056H111.025C99.979 222.056 91.0247 213.101 91.0247 202.056C91.0247 191.01 99.979 182.056 111.025 182.056H284.839L370.008 96.8867C377.819 89.0762 390.482 89.0762 398.292 96.8867Z" fill="#D9FFD8"/>
<path fill-rule="evenodd" clip-rule="evenodd" d="M20 91.0288C31.0457 91.0288 40 99.9831 40 111.029V202.056C40 213.101 31.0457 222.056 20 222.056C8.9543 222.056 0 213.101 0 202.056V111.029C0 99.9831 8.9543 91.0288 20 91.0288Z" fill="#D9FFD8"/>
<path fill-rule="evenodd" clip-rule="evenodd" d="M0 20C0 8.9543 8.9543 0 20 0H202.054C210.143 0 217.436 4.87284 220.531 12.3463C223.627 19.8198 221.916 28.4222 216.196 34.1421L125.169 125.169C117.358 132.979 104.695 132.979 96.8847 125.169C89.0742 117.358 89.0742 104.695 96.8847 96.8847L153.769 40H20C8.9543 40 0 31.0457 0 20Z" fill="#D9FFD8"/>
<path fill-rule="evenodd" clip-rule="evenodd" d="M273.123 20C273.123 8.9543 282.078 0 293.123 0H384.15C395.196 0 404.15 8.9543 404.15 20C404.15 31.0457 395.196 40 384.15 40H293.123C282.078 40 273.123 31.0457 273.123 20Z" fill="#D9FFD8"/>
<path fill-rule="evenodd" clip-rule="evenodd" d="M111.027 273.126C122.073 273.126 131.027 282.081 131.027 293.126V384.153C131.027 395.199 122.073 404.153 111.027 404.153H20C8.9543 404.153 0 395.199 0 384.153C0 373.108 8.9543 364.153 20 364.153H91.0268V293.126C91.0268 282.081 99.9811 273.126 111.027 273.126Z" fill="#D9FFD8"/>
<path fill-rule="evenodd" clip-rule="evenodd" d="M455.181 111.027C455.181 49.6958 504.877 0 566.208 0C577.253 0 586.208 8.9543 586.208 20C586.208 31.0457 577.253 40 566.208 40C526.968 40 495.181 71.7872 495.181 111.027C495.181 122.073 486.227 131.027 475.181 131.027C464.135 131.027 455.181 122.073 455.181 111.027Z" fill="#D9FFD8"/>
<path fill-rule="evenodd" clip-rule="evenodd" d="M1203.35 91.0288C1214.4 91.0288 1223.35 99.9831 1223.35 111.029V202.101C1223.35 213.146 1214.4 222.101 1203.35 222.101C1192.31 222.101 1183.35 213.146 1183.35 202.101V111.029C1183.35 99.9831 1192.31 91.0288 1203.35 91.0288Z" fill="#D9FFD8"/>
<path fill-rule="evenodd" clip-rule="evenodd" d="M1021.38 0C1032.43 0 1041.38 8.9543 1041.38 20C1041.38 81.331 991.689 131.027 930.358 131.027C919.312 131.027 910.358 122.073 910.358 111.027C910.358 99.9811 919.312 91.0268 930.358 91.0268C969.598 91.0268 1001.38 59.2396 1001.38 20C1001.38 8.9543 1010.34 0 1021.38 0Z" fill="#D9FFD8"/>
<path fill-rule="evenodd" clip-rule="evenodd" d="M1112.46 0C1123.5 0 1132.46 8.9543 1132.46 20V202.054C1132.46 213.099 1123.5 222.054 1112.46 222.054C1101.41 222.054 1092.46 213.099 1092.46 202.054V20C1092.46 8.9543 1101.41 0 1112.46 0Z" fill="#D9FFD8"/>
<path fill-rule="evenodd" clip-rule="evenodd" d="M1112.41 313.126C1073.17 313.126 1041.39 344.914 1041.39 384.153C1041.39 395.199 1032.43 404.153 1021.39 404.153C1010.34 404.153 1001.39 395.199 1001.39 384.153C1001.39 322.822 1051.08 273.126 1112.41 273.126C1123.46 273.126 1132.41 282.081 1132.41 293.126C1132.41 304.172 1123.46 313.126 1112.41 313.126Z" fill="#D9FFD8"/>
<path fill-rule="evenodd" clip-rule="evenodd" d="M930.358 273.126C941.404 273.126 950.358 282.081 950.358 293.126V364.153H1021.38C1032.43 364.153 1041.38 373.108 1041.38 384.153C1041.38 395.199 1032.43 404.153 1021.38 404.153H930.358C919.312 404.153 910.358 395.199 910.358 384.153V293.126C910.358 282.081 919.312 273.126 930.358 273.126Z" fill="#D9FFD8"/>
<path fill-rule="evenodd" clip-rule="evenodd" d="M825.191 5.85786C828.942 2.10714 834.029 0 839.333 0H930.36C941.406 0 950.36 8.9543 950.36 20C950.36 31.0457 941.406 40 930.36 40H847.618L762.449 125.169C754.638 132.979 741.975 132.979 734.164 125.169C726.354 117.358 726.354 104.695 734.164 96.8847L825.191 5.85786Z" fill="#D9FFD8"/>
<path fill-rule="evenodd" clip-rule="evenodd" d="M910.358 202.05C910.358 191.005 919.312 182.05 930.358 182.05H1021.38C1032.43 182.05 1041.38 191.005 1041.38 202.05C1041.38 213.096 1032.43 222.05 1021.38 222.05H930.358C919.312 222.05 910.358 213.096 910.358 202.05Z" fill="#D9FFD8"/>
<path fill-rule="evenodd" clip-rule="evenodd" d="M728.306 293.126C728.306 282.081 737.261 273.126 748.306 273.126H839.333C850.379 273.126 859.333 282.081 859.333 293.126C859.333 304.172 850.379 313.126 839.333 313.126H768.306V384.153C768.306 395.199 759.352 404.153 748.306 404.153C737.261 404.153 728.306 395.199 728.306 384.153V293.126Z" fill="#D9FFD8"/>
<path fill-rule="evenodd" clip-rule="evenodd" d="M839.331 91.0288C850.377 91.0288 859.331 99.9831 859.331 111.029V202.056C859.331 213.101 850.377 222.056 839.331 222.056C828.285 222.056 819.331 213.101 819.331 202.056V111.029C819.331 99.9831 828.285 91.0288 839.331 91.0288Z" fill="#D9FFD8"/>
<path fill-rule="evenodd" clip-rule="evenodd" d="M762.442 187.905C770.254 195.713 770.257 208.377 762.449 216.189L671.422 307.261C667.671 311.014 662.583 313.122 657.276 313.122H586.205V384.149C586.205 395.195 577.25 404.149 566.205 404.149C555.159 404.149 546.205 395.195 546.205 384.149V293.122C546.205 282.077 555.159 273.122 566.205 273.122H648.989L734.158 187.912C741.966 180.099 754.629 180.096 762.442 187.905Z" fill="#D9FFD8"/>
<path fill-rule="evenodd" clip-rule="evenodd" d="M566.208 91.0288C577.253 91.0288 586.208 99.9831 586.208 111.029V202.056C586.208 213.101 577.253 222.056 566.208 222.056H475.181C464.135 222.056 455.181 213.101 455.181 202.056C455.181 191.01 464.135 182.056 475.181 182.056H546.208V111.029C546.208 99.9831 555.162 91.0288 566.208 91.0288Z" fill="#D9FFD8"/>
<path fill-rule="evenodd" clip-rule="evenodd" d="M637.276 384.155C637.276 373.11 646.23 364.155 657.276 364.155H748.302C759.348 364.155 768.302 373.11 768.302 384.155C768.302 395.201 759.348 404.155 748.302 404.155H657.276C646.23 404.155 637.276 395.201 637.276 384.155Z" fill="#D9FFD8"/>
<path fill-rule="evenodd" clip-rule="evenodd" d="M657.276 0C668.321 0 677.276 8.9543 677.276 20V111.027C677.276 122.073 668.321 131.027 657.276 131.027C646.23 131.027 637.276 122.073 637.276 111.027V20C637.276 8.9543 646.23 0 657.276 0Z" fill="#D9FFD8"/>
<path fill-rule="evenodd" clip-rule="evenodd" d="M384.151 182.05C395.197 182.05 404.151 191.005 404.151 202.05V274.873C455.932 284.287 495.178 329.601 495.178 384.104C495.178 395.15 486.224 404.104 475.178 404.104C464.132 404.104 455.178 395.15 455.178 384.104C455.178 344.864 423.391 313.077 384.151 313.077C373.105 313.077 364.151 304.123 364.151 293.077V202.05C364.151 191.005 373.105 182.05 384.151 182.05Z" fill="#D9FFD8"/>
<path fill-rule="evenodd" clip-rule="evenodd" d="M384.15 0C395.196 0 404.15 8.9543 404.15 20L404.151 111.027C404.151 122.073 395.197 131.027 384.151 131.027C373.105 131.027 364.151 122.073 364.151 111.027V20C364.151 8.9543 373.105 0 384.15 0Z" fill="#D9FFD8"/>
<path fill-rule="evenodd" clip-rule="evenodd" d="M1203.35 273.126C1214.39 273.126 1223.35 282.081 1223.35 293.126V384.153C1223.35 395.199 1214.39 404.153 1203.35 404.153H1112.32C1101.28 404.153 1092.32 395.199 1092.32 384.153C1092.32 373.108 1101.28 364.153 1112.32 364.153H1183.35V293.126C1183.35 282.081 1192.3 273.126 1203.35 273.126Z" fill="#D9FFD8"/>
<path fill-rule="evenodd" clip-rule="evenodd" d="M1092.32 20C1092.32 8.9543 1101.28 0 1112.32 0H1203.35C1214.39 0 1223.35 8.9543 1223.35 20C1223.35 31.0457 1214.39 40 1203.35 40H1132.32V111.027C1132.32 122.073 1123.37 131.027 1112.32 131.027C1101.28 131.027 1092.32 122.073 1092.32 111.027V20Z" fill="#D9FFD8"/>
<path fill-rule="evenodd" clip-rule="evenodd" d="M273.123 384.155C273.123 373.11 282.078 364.155 293.123 364.155H384.15C395.196 364.155 404.15 373.11 404.15 384.155C404.15 395.201 395.196 404.155 384.15 404.155H293.123C282.078 404.155 273.123 395.201 273.123 384.155Z" fill="#D9FFD8"/>
</svg>
