<svg width="323" height="323" viewBox="0 0 323 323" fill="none" xmlns="http://www.w3.org/2000/svg">
<path fill-rule="evenodd" clip-rule="evenodd" d="M0 10.487C0 4.6952 4.6952 0 10.487 0C37.1285 0 58.7273 21.5988 58.7273 48.2403C58.7273 54.0321 54.0321 58.7273 48.2403 58.7273C42.4484 58.7273 37.7532 54.0321 37.7532 48.2403C37.7532 33.1824 25.5449 20.974 10.487 20.974C4.6952 20.974 0 16.2788 0 10.487ZM123.747 0C129.539 1.33349e-06 134.234 4.6952 134.234 10.487L134.234 48.2403C134.234 54.0321 129.539 58.7273 123.747 58.7273L85.9935 58.7273C80.2017 58.7273 75.5065 54.0321 75.5065 48.2402C75.5065 42.4484 80.2017 37.7532 85.9935 37.7532L113.26 37.7532L113.26 10.487C113.26 4.69519 117.955 -1.33349e-06 123.747 0ZM161.5 0C167.292 0 171.987 4.6952 171.987 10.487V85.9935C171.987 91.7853 167.292 96.4805 161.5 96.4805H134.234L134.234 123.747C134.234 129.539 129.539 134.234 123.747 134.234C117.955 134.234 113.26 129.539 113.26 123.747L113.26 85.9935C113.26 80.2017 117.955 75.5065 123.747 75.5065H151.013V10.487C151.013 4.6952 155.708 0 161.5 0ZM188.766 10.487C188.766 4.69519 193.461 -6.66746e-07 199.253 0L237.006 4.66722e-06C242.798 6.00072e-06 247.493 4.6952 247.493 10.487C247.493 16.2788 242.798 20.974 237.006 20.974L199.253 20.974C193.461 20.974 188.766 16.2788 188.766 10.487ZM312.513 0C318.305 0 323 4.6952 323 10.487V48.2403C323 54.0321 318.305 58.7273 312.513 58.7273C306.721 58.7273 302.026 54.0321 302.026 48.2403V10.487C302.026 4.6952 306.721 0 312.513 0ZM237.006 37.7532C242.798 37.7532 247.493 42.4484 247.493 48.2403V123.747C247.493 126.528 246.389 129.195 244.422 131.162L206.669 168.915C202.573 173.011 195.933 173.011 191.838 168.915C187.742 164.82 187.742 158.18 191.838 154.085L226.519 119.403V96.4805L199.253 96.4805C193.461 96.4805 188.766 91.7853 188.766 85.9935C188.766 80.2017 193.461 75.5065 199.253 75.5065L226.519 75.5065V48.2403C226.519 42.4484 231.215 37.7532 237.006 37.7532ZM274.76 37.7532C280.552 37.7532 285.247 42.4484 285.247 48.2403V81.6496L319.928 116.331C324.024 120.427 324.024 127.067 319.928 131.162C315.833 135.258 309.193 135.258 305.098 131.162L267.344 93.4089C265.378 91.4422 264.273 88.7748 264.273 85.9935V48.2403C264.273 42.4484 268.968 37.7532 274.76 37.7532ZM3.07158 78.5781C5.03828 76.6114 7.70569 75.5065 10.487 75.5065L85.9935 75.5065C91.7853 75.5065 96.4805 80.2017 96.4805 85.9935C96.4805 91.7853 91.7853 96.4805 85.9935 96.4805L20.974 96.4805L20.974 113.26H48.2403C51.0216 113.26 53.689 114.365 55.6557 116.331L93.4089 154.085C97.5044 158.18 97.5044 164.82 93.4089 168.915C89.3135 173.011 82.6735 173.011 78.5781 168.915L43.8964 134.234H10.487C7.70568 134.234 5.03827 133.129 3.07157 131.162C1.10488 129.195 0 126.528 0 123.747L3.33373e-06 85.9935C3.33373e-06 83.2122 1.10488 80.5448 3.07158 78.5781ZM10.487 151.013C16.2788 151.013 20.974 155.708 20.974 161.5L20.974 188.766H48.2403C54.0321 188.766 58.7273 193.461 58.7273 199.253C58.7273 205.045 54.0321 209.74 48.2403 209.74H10.487C7.70568 209.74 5.03827 208.635 3.07157 206.669C1.10488 204.702 0 202.035 0 199.253L3.33373e-06 161.5C4.00048e-06 155.708 4.6952 151.013 10.487 151.013ZM113.26 161.5C113.26 155.708 117.955 151.013 123.747 151.013H161.5C167.292 151.013 171.987 155.708 171.987 161.5C171.987 167.292 167.292 171.987 161.5 171.987H123.747C117.955 171.987 113.26 167.292 113.26 161.5ZM302.026 188.766V161.5C302.026 155.708 306.721 151.013 312.513 151.013C318.305 151.013 323 155.708 323 161.5V237.006C323 242.798 318.305 247.493 312.513 247.493C306.721 247.493 302.026 242.798 302.026 237.006V209.74H285.247V237.006C285.247 242.798 280.552 247.493 274.76 247.493C268.968 247.493 264.273 242.798 264.273 237.006V199.253C264.273 193.461 268.968 188.766 274.76 188.766H302.026ZM199.253 188.766H237.006C242.798 188.766 247.493 193.461 247.493 199.253C247.493 205.045 242.798 209.74 237.006 209.74H211.83C215.94 219.593 225.665 226.519 237.006 226.519C242.798 226.519 247.493 231.215 247.493 237.006C247.493 242.798 242.798 247.493 237.006 247.493C210.365 247.493 188.766 225.895 188.766 199.253C188.766 193.461 193.461 188.766 199.253 188.766ZM81.6496 226.519L116.331 191.838C120.427 187.742 127.067 187.742 131.162 191.838C135.258 195.933 135.258 202.573 131.162 206.669L93.4089 244.422C91.4422 246.389 88.7748 247.493 85.9935 247.493H48.2403C42.4484 247.493 37.7532 242.798 37.7532 237.006C37.7532 231.215 42.4484 226.519 48.2403 226.519H81.6496ZM123.747 226.519H161.5C167.292 226.519 171.987 231.215 171.987 237.006C171.987 242.798 167.292 247.493 161.5 247.493H123.747C117.955 247.493 113.26 242.798 113.26 237.006C113.26 231.215 117.955 226.519 123.747 226.519ZM3.07158 282.175C-1.02385 278.08 -1.02385 271.44 3.07158 267.344C7.16701 263.249 13.807 263.249 17.9025 267.344L52.5841 302.026H75.5065L75.5065 274.76C75.5065 268.968 80.2017 264.273 85.9935 264.273C91.7853 264.273 96.4805 268.968 96.4805 274.76V302.026H123.747C129.539 302.026 134.234 306.721 134.234 312.513C134.234 318.305 129.539 323 123.747 323H48.2403C45.4589 323 42.7915 321.895 40.8248 319.928L3.07158 282.175ZM161.5 264.273C167.292 264.273 171.987 268.968 171.987 274.76L171.987 312.513C171.987 318.305 167.292 323 161.5 323C155.708 323 151.013 318.305 151.013 312.513L151.013 274.76C151.013 268.968 155.708 264.273 161.5 264.273ZM302.026 285.247H274.76C268.968 285.247 264.273 280.552 264.273 274.76C264.273 268.968 268.968 264.273 274.76 264.273H312.513C318.305 264.273 323 268.968 323 274.76V312.513C323 318.305 318.305 323 312.513 323C306.721 323 302.026 318.305 302.026 312.513V285.247ZM237.006 264.273C242.798 264.273 247.493 268.968 247.493 274.76V302.026H274.76C280.552 302.026 285.247 306.721 285.247 312.513C285.247 318.305 280.552 323 274.76 323H199.253C193.461 323 188.766 318.305 188.766 312.513C188.766 306.721 193.461 302.026 199.253 302.026H226.519V274.76C226.519 268.968 231.215 264.273 237.006 264.273Z" fill="#D9FFD8"/>
</svg>
