<svg width="610" height="610" viewBox="0 0 610 610" fill="none" xmlns="http://www.w3.org/2000/svg">
<path d="M305.163 496.577L209.568 592H113.973" stroke="white" stroke-width="35" stroke-linecap="round" stroke-linejoin="round"/>
<path d="M592 592C539.191 592 496.404 549.291 496.404 496.577H592" stroke="white" stroke-width="35" stroke-linecap="round" stroke-linejoin="round"/>
<path d="M209.57 399.738L113.975 304.315H18.332V208.845H209.57" stroke="white" stroke-width="35" stroke-linecap="round" stroke-linejoin="round"/>
<path d="M400.761 208.845H305.166V304.315" stroke="white" stroke-width="35" stroke-linecap="round" stroke-linejoin="round"/>
<path d="M305.166 399.739H400.761" stroke="white" stroke-width="35" stroke-linecap="round" stroke-linejoin="round"/>
<path d="M400.76 304.315V495.16" stroke="white" stroke-width="35" stroke-linecap="round" stroke-linejoin="round"/>
<path d="M400.761 591.999H305.166" stroke="white" stroke-width="35" stroke-linecap="round" stroke-linejoin="round"/>
<path d="M18 400.068V495.491H114.305" stroke="white" stroke-width="35" stroke-linecap="round" stroke-linejoin="round"/>
<path d="M18.332 19.0391C71.1412 19.0391 113.927 61.748 113.927 114.462" stroke="white" stroke-width="35" stroke-linecap="round" stroke-linejoin="round"/>
<path d="M400.76 18V208.845" stroke="white" stroke-width="35" stroke-linecap="round" stroke-linejoin="round"/>
<path d="M591.996 208.845H496.354" stroke="white" stroke-width="35" stroke-linecap="round" stroke-linejoin="round"/>
<path d="M496.354 399.739L591.996 304.316V113.423" stroke="white" stroke-width="35" stroke-linecap="round" stroke-linejoin="round"/>
<path d="M496.354 18H591.996" stroke="white" stroke-width="35" stroke-linecap="round" stroke-linejoin="round"/>
<path d="M304.999 18V113.232H209.768" stroke="white" stroke-width="35" stroke-linecap="round" stroke-linejoin="round"/>
<path d="M304.999 18V113.232H209.768" stroke="white" stroke-width="35" stroke-linecap="round" stroke-linejoin="round"/>
</svg>
