<svg width="1366" height="419" viewBox="0 0 1366 419" fill="none" xmlns="http://www.w3.org/2000/svg">
<path d="M209.429 304.143L114.714 304.143" stroke="white" stroke-width="40" stroke-linecap="round"/>
<path d="M209.429 209.429L114.714 209.429" stroke="white" stroke-width="40" stroke-linecap="round"/>
<path d="M777.714 209.429L683 209.429" stroke="white" stroke-width="40" stroke-linecap="round"/>
<path d="M588.286 209.429L493.571 209.429" stroke="white" stroke-width="40" stroke-linecap="round"/>
<path d="M209.429 304.143L209.429 398.857L114.714 398.857" stroke="white" stroke-width="40" stroke-linecap="round" stroke-linejoin="round"/>
<path d="M777.714 398.857L683 398.857L683 304.143" stroke="white" stroke-width="40" stroke-linecap="round" stroke-linejoin="round"/>
<path d="M1251.29 398.857L1156.57 398.857L1156.57 304.143" stroke="white" stroke-width="40" stroke-linecap="round" stroke-linejoin="round"/>
<path d="M683 20L777.714 114.714" stroke="white" stroke-width="40" stroke-linecap="round"/>
<path d="M493.571 304.143L588.286 209.428" stroke="white" stroke-width="40" stroke-linecap="round"/>
<path d="M777.714 209.429L872.429 114.714" stroke="white" stroke-width="40" stroke-linecap="round"/>
<path d="M1156.57 304.143L1061.86 209.428" stroke="white" stroke-width="40" stroke-linecap="round"/>
<path d="M20 209.429L20 304.143" stroke="white" stroke-width="40" stroke-linecap="round"/>
<path d="M398.857 304.143L398.857 398.857" stroke="white" stroke-width="40" stroke-linecap="round"/>
<path d="M872.429 304.143L872.429 398.857" stroke="white" stroke-width="40" stroke-linecap="round"/>
<path d="M588.286 398.857L493.571 398.857" stroke="white" stroke-width="40" stroke-linecap="round"/>
<path d="M1061.86 398.857L967.143 398.857" stroke="white" stroke-width="40" stroke-linecap="round"/>
<path d="M304.143 114.714L304.143 209.428" stroke="white" stroke-width="40" stroke-linecap="round"/>
<path d="M20 20C20 72.3071 62.4072 114.714 114.714 114.714" stroke="white" stroke-width="40" stroke-linecap="round" stroke-linejoin="round"/>
<path d="M872.429 209.429C872.429 261.736 914.836 304.143 967.143 304.143" stroke="white" stroke-width="40" stroke-linecap="round" stroke-linejoin="round"/>
<path d="M777.714 304.143C777.714 356.45 820.122 398.857 872.429 398.857" stroke="white" stroke-width="40" stroke-linecap="round" stroke-linejoin="round"/>
<path d="M1346 209.429C1346 157.122 1303.59 114.714 1251.29 114.714" stroke="white" stroke-width="40" stroke-linecap="round" stroke-linejoin="round"/>
<path d="M493.571 114.714C545.878 114.714 588.286 72.3067 588.286 19.9996" stroke="white" stroke-width="40" stroke-linecap="round" stroke-linejoin="round"/>
<path d="M209.429 20L209.429 114.714" stroke="white" stroke-width="40" stroke-linecap="round"/>
<path d="M398.857 114.714L304.143 114.714L304.143 19.9996" stroke="white" stroke-width="40" stroke-linecap="round" stroke-linejoin="round"/>
<path d="M304.143 304.143C356.45 304.143 398.857 261.735 398.857 209.428" stroke="white" stroke-width="40" stroke-linecap="round" stroke-linejoin="round"/>
<path d="M1251.29 114.714L1251.29 209.428" stroke="white" stroke-width="40" stroke-linecap="round"/>
<path d="M872.429 209.429L967.143 209.429L967.143 114.714" stroke="white" stroke-width="40" stroke-linecap="round" stroke-linejoin="round"/>
<path d="M1061.86 114.714L1156.57 209.428" stroke="white" stroke-width="40" stroke-linecap="round"/>
<path d="M1251.29 20L1156.57 114.714" stroke="white" stroke-width="40" stroke-linecap="round"/>
<path d="M1061.86 114.714L967.143 114.714" stroke="white" stroke-width="40" stroke-linecap="round"/>
<path d="M1061.86 20L967.143 20" stroke="white" stroke-width="40" stroke-linecap="round"/>
<path d="M872.429 20L872.429 114.714" stroke="white" stroke-width="40" stroke-linecap="round"/>
<path d="M1346 304.143L1346 398.857" stroke="white" stroke-width="40" stroke-linecap="round"/>
</svg>
