<svg width="768" height="495" viewBox="0 0 768 495" fill="none" xmlns="http://www.w3.org/2000/svg">
<path d="M201.775 20C252.168 20 292.663 60.9444 292.663 110.887" stroke="white" stroke-width="40" stroke-miterlimit="10" stroke-linecap="round" stroke-linejoin="round"/>
<path d="M474.889 293.112C525.282 293.112 565.776 334.057 565.776 384" stroke="white" stroke-width="40" stroke-miterlimit="10" stroke-linecap="round" stroke-linejoin="round"/>
<path d="M747.999 384C697.606 384 657.111 424.944 657.111 474.887H747.999" stroke="white" stroke-width="40" stroke-miterlimit="10" stroke-linecap="round" stroke-linejoin="round"/>
<path d="M384 20V110.887" stroke="white" stroke-width="40" stroke-miterlimit="10" stroke-linecap="round" stroke-linejoin="round"/>
<path d="M110.889 110.888L201.776 201.775H293.114" stroke="white" stroke-width="40" stroke-miterlimit="10" stroke-linecap="round" stroke-linejoin="round"/>
<path d="M110.887 20H20V110.887" stroke="white" stroke-width="40" stroke-miterlimit="10" stroke-linecap="round" stroke-linejoin="round"/>
<path d="M20 201.773H110.887" stroke="white" stroke-width="40" stroke-miterlimit="10" stroke-linecap="round" stroke-linejoin="round"/>
<path d="M110.889 293.112H201.776" stroke="white" stroke-width="40" stroke-miterlimit="10" stroke-linecap="round" stroke-linejoin="round"/>
<path d="M384 201.773V383.998" stroke="white" stroke-width="40" stroke-miterlimit="10" stroke-linecap="round" stroke-linejoin="round"/>
<path d="M565.775 20V201.775" stroke="white" stroke-width="40" stroke-miterlimit="10" stroke-linecap="round" stroke-linejoin="round"/>
<path d="M747.999 201.773H657.111" stroke="white" stroke-width="40" stroke-miterlimit="10" stroke-linecap="round" stroke-linejoin="round"/>
<path d="M748 293.113V110.888" stroke="white" stroke-width="40" stroke-miterlimit="10" stroke-linecap="round" stroke-linejoin="round"/>
<path d="M657.111 20H747.999" stroke="white" stroke-width="40" stroke-miterlimit="10" stroke-linecap="round" stroke-linejoin="round"/>
<path d="M474.887 20V110.887H384" stroke="white" stroke-width="40" stroke-miterlimit="10" stroke-linecap="round" stroke-linejoin="round"/>
<path d="M110.887 474.887L201.775 384H20V285.014" stroke="white" stroke-width="40" stroke-miterlimit="10" stroke-linecap="round" stroke-linejoin="round"/>
<path d="M293.111 384V293.112H383.999" stroke="white" stroke-width="40" stroke-miterlimit="10" stroke-linecap="round" stroke-linejoin="round"/>
<path d="M384 384H565.775" stroke="white" stroke-width="40" stroke-miterlimit="10" stroke-linecap="round" stroke-linejoin="round"/>
<path d="M565.776 474.888H474.889" stroke="white" stroke-width="40" stroke-miterlimit="10" stroke-linecap="round" stroke-linejoin="round"/>
</svg>
