<svg width="354" height="354" viewBox="0 0 354 354" fill="none" xmlns="http://www.w3.org/2000/svg">
<path fill-rule="evenodd" clip-rule="evenodd" d="M0 15C0 6.71573 6.71573 0 15 0H123C131.284 0 138 6.71573 138 15V69C138 77.2843 131.284 84 123 84C114.716 84 108 77.2843 108 69V30H15C6.71573 30 0 23.2843 0 15ZM231 0C239.284 0 246 6.71573 246 15V177C246 185.284 239.284 192 231 192C222.716 192 216 185.284 216 177V84H183.213L133.607 133.607C127.749 139.464 118.251 139.464 112.393 133.607C106.536 127.749 106.536 118.251 112.393 112.393L166.393 58.3934C169.206 55.5804 173.022 54 177 54H216V15C216 6.71573 222.716 0 231 0ZM339 0C347.284 0 354 6.71573 354 15V69C354 77.2843 347.284 84 339 84C330.716 84 324 77.2843 324 69V15C324 6.71573 330.716 0 339 0ZM0 69C0 60.7157 6.71573 54 15 54H69C77.2843 54 84 60.7157 84 69C84 77.2843 77.2843 84 69 84H15C6.71573 84 0 77.2843 0 69ZM69 108C77.2843 108 84 114.716 84 123C84 144.538 101.462 162 123 162C131.284 162 138 168.716 138 177V231C138 239.284 131.284 246 123 246H69C60.7157 246 54 239.284 54 231C54 222.716 60.7157 216 69 216H108V190.365C77.1056 183.516 54 155.955 54 123C54 114.716 60.7157 108 69 108ZM15 108C23.2843 108 30 114.716 30 123L30 177C30 185.284 23.2843 192 15 192C6.71573 192 0 185.284 0 177L1.90735e-06 123C2.86102e-06 114.716 6.71573 108 15 108ZM270 123C270 114.716 276.716 108 285 108H339C347.284 108 354 114.716 354 123C354 131.284 347.284 138 339 138H285C276.716 138 270 131.284 270 123ZM278.787 216L328.393 166.393C334.251 160.536 343.749 160.536 349.607 166.393C355.464 172.251 355.464 181.749 349.607 187.607L295.607 241.607C292.794 244.42 288.978 246 285 246H177C168.716 246 162 239.284 162 231V177C162 168.716 168.716 162 177 162C185.284 162 192 168.716 192 177V216H278.787ZM15 216C23.2843 216 30 222.716 30 231V270H69C77.2843 270 84 276.716 84 285C84 293.284 77.2843 300 69 300H30L30 339C30 347.284 23.2843 354 15 354C6.71573 354 0 347.284 0 339L1.90735e-06 285.009C0 285.006 0 285.003 0 285C0 284.997 9.53674e-07 284.994 2.86102e-06 284.991L4.76837e-06 231C4.76837e-06 222.716 6.71573 216 15 216ZM216 285C216 276.716 222.716 270 231 270C263.955 270 291.516 293.106 298.365 324H324V285C324 276.716 330.716 270 339 270C347.284 270 354 276.716 354 285V339C354 347.284 347.284 354 339 354H285C276.716 354 270 347.284 270 339C270 317.462 252.538 300 231 300C222.716 300 216 293.284 216 285ZM177 270C185.284 270 192 276.716 192 285V339C192 347.284 185.284 354 177 354H123C114.716 354 108 347.284 108 339C108 330.716 114.716 324 123 324H162V285C162 276.716 168.716 270 177 270Z" fill="#CBDCFF"/>
</svg>
