<svg width="354" height="354" viewBox="0 0 354 354" fill="none" xmlns="http://www.w3.org/2000/svg">
<path fill-rule="evenodd" clip-rule="evenodd" d="M0 15C0 6.71573 6.71573 0 15 0C53.1064 0 84 30.8936 84 69C84 77.2843 77.2843 84 69 84C60.7157 84 54 77.2843 54 69C54 47.4621 36.5379 30 15 30C6.71573 30 0 23.2843 0 15ZM177 0C185.284 1.90735e-06 192 6.71573 192 15L192 69C192 77.2843 185.284 84 177 84L123 84C114.716 84 108 77.2843 108 69C108 60.7157 114.716 54 123 54L162 54L162 15C162 6.71572 168.716 -1.90735e-06 177 0ZM231 0C239.284 0 246 6.71573 246 15V123C246 131.284 239.284 138 231 138H192L192 177C192 185.284 185.284 192 177 192C168.716 192 162 185.284 162 177L162 123C162 114.716 168.716 108 177 108H216V15C216 6.71573 222.716 0 231 0ZM270 15C270 6.71573 276.716 -9.53674e-07 285 0L339 6.67572e-06C347.284 8.58307e-06 354 6.71574 354 15C354 23.2843 347.284 30 339 30L285 30C276.716 30 270 23.2843 270 15ZM339 54C347.284 54 354 60.7157 354 69V177C354 180.978 352.42 184.794 349.607 187.607L295.607 241.607C289.749 247.464 280.251 247.464 274.393 241.607C268.536 235.749 268.536 226.251 274.393 220.393L324 170.787V138L285 138C276.716 138 270 131.284 270 123C270 114.716 276.716 108 285 108L324 108V69C324 60.7157 330.716 54 339 54ZM4.3934 112.393C7.20645 109.58 11.0218 108 15 108L123 108C131.284 108 138 114.716 138 123C138 131.284 131.284 138 123 138L30 138L30 162H69C72.9782 162 76.7936 163.58 79.6066 166.393L133.607 220.393C139.464 226.251 139.464 235.749 133.607 241.607C127.749 247.464 118.251 247.464 112.393 241.607L62.7868 192H15C11.0218 192 7.20644 190.42 4.3934 187.607C1.58035 184.794 0 180.978 0 177L4.76837e-06 123C4.76837e-06 119.022 1.58036 115.206 4.3934 112.393ZM231 162C239.284 162 246 168.716 246 177V285C246 293.284 239.284 300 231 300C222.716 300 216 293.284 216 285V246H177C168.716 246 162 239.284 162 231C162 222.716 168.716 216 177 216H216V177C216 168.716 222.716 162 231 162ZM15 216C23.2843 216 30 222.716 30 231L30 270H69C77.2843 270 84 276.716 84 285C84 293.284 77.2843 300 69 300H15C11.0218 300 7.20644 298.42 4.3934 295.607C1.58035 292.794 0 288.978 0 285L4.76837e-06 231C5.72205e-06 222.716 6.71573 216 15 216ZM285 270H339C347.284 270 354 276.716 354 285C354 293.284 347.284 300 339 300H302.989C308.867 314.093 322.777 324 339 324C347.284 324 354 330.716 354 339C354 347.284 347.284 354 339 354C300.894 354 270 323.106 270 285C270 276.716 276.716 270 285 270ZM116.787 324L166.393 274.393C172.251 268.536 181.749 268.536 187.607 274.393C193.464 280.251 193.464 289.749 187.607 295.607L133.607 349.607C130.794 352.42 126.978 354 123 354H69C60.7157 354 54 347.284 54 339C54 330.716 60.7157 324 69 324H116.787ZM177 324H231C239.284 324 246 330.716 246 339C246 347.284 239.284 354 231 354H177C168.716 354 162 347.284 162 339C162 330.716 168.716 324 177 324Z" fill="#CBDCFF"/>
</svg>
