<svg width="640" height="640" viewBox="0 0 640 640" fill="none" xmlns="http://www.w3.org/2000/svg">
<path fill-rule="evenodd" clip-rule="evenodd" d="M0 20.7792C0 9.30317 9.30317 0 20.7792 0C73.5673 0 116.364 42.7963 116.364 95.5844C116.364 107.06 107.06 116.364 95.5844 116.364C84.1084 116.364 74.8052 107.06 74.8052 95.5844C74.8052 65.7484 50.6152 41.5584 20.7792 41.5584C9.30317 41.5584 0 32.2553 0 20.7792ZM245.195 0C256.671 2.64222e-06 265.974 9.30318 265.974 20.7792L265.974 95.5844C265.974 107.06 256.671 116.364 245.195 116.364L170.39 116.364C158.914 116.364 149.61 107.06 149.61 95.5844C149.61 84.1084 158.914 74.8052 170.39 74.8052L224.416 74.8052L224.416 20.7792C224.416 9.30317 233.719 -2.64221e-06 245.195 0ZM320 0C331.476 0 340.779 9.30317 340.779 20.7792V170.39C340.779 181.866 331.476 191.169 320 191.169H265.974L265.974 245.195C265.974 256.671 256.671 265.974 245.195 265.974C233.719 265.974 224.416 256.671 224.416 245.195L224.416 170.39C224.416 158.914 233.719 149.61 245.195 149.61H299.221V20.7792C299.221 9.30317 308.524 0 320 0ZM374.026 20.7792C374.026 9.30317 383.329 -1.32111e-06 394.805 0L469.61 9.24775e-06C481.086 1.189e-05 490.39 9.30319 490.39 20.7792C490.39 32.2553 481.086 41.5585 469.61 41.5585L394.805 41.5584C383.329 41.5584 374.026 32.2553 374.026 20.7792ZM604.528 6.08609C612.642 -2.0287 625.799 -2.0287 633.914 6.08609C642.029 14.2009 642.029 27.3576 633.914 35.4724L559.109 110.278C550.994 118.392 537.837 118.392 529.722 110.278C521.608 102.163 521.608 89.0061 529.722 80.8913L604.528 6.08609ZM469.61 74.8052C481.086 74.8052 490.39 84.1084 490.39 95.5844V245.195C490.39 250.706 488.2 255.991 484.304 259.888L409.498 334.693C401.384 342.808 388.227 342.808 380.112 334.693C371.997 326.578 371.997 313.422 380.112 305.307L448.831 236.588V191.169L394.805 191.169C383.329 191.169 374.026 181.866 374.026 170.39C374.026 158.914 383.329 149.61 394.805 149.61L448.831 149.61V95.5844C448.831 84.1084 458.134 74.8052 469.61 74.8052ZM6.0861 155.696C9.98296 151.8 15.2682 149.61 20.7792 149.61L170.39 149.61C181.866 149.61 191.169 158.914 191.169 170.39C191.169 181.866 181.866 191.169 170.39 191.169L41.5584 191.169L41.5584 224.416H95.5844C101.095 224.416 106.381 226.605 110.278 230.502L185.083 305.307C193.198 313.422 193.198 326.578 185.083 334.693C176.968 342.808 163.811 342.808 155.696 334.693L86.9774 265.974H20.7792C15.2682 265.974 9.98295 263.785 6.08609 259.888C2.18923 255.991 0 250.706 0 245.195L6.60554e-06 170.39C6.60554e-06 164.879 2.18924 159.593 6.0861 155.696ZM544.416 149.61L619.221 149.61C630.697 149.61 640 158.914 640 170.39C640 181.866 630.697 191.169 619.221 191.169L544.416 191.169C532.94 191.169 523.636 181.866 523.636 170.39C523.636 158.914 532.94 149.61 544.416 149.61ZM320 224.416C331.476 224.416 340.779 233.719 340.779 245.195V469.61C340.779 481.086 331.476 490.39 320 490.39C308.524 490.39 299.221 481.086 299.221 469.61V340.779H245.195C233.719 340.779 224.416 331.476 224.416 320C224.416 308.524 233.719 299.221 245.195 299.221H299.221V245.195C299.221 233.719 308.524 224.416 320 224.416ZM598.442 299.221V245.195C598.442 233.719 607.745 224.416 619.221 224.416C630.697 224.416 640 233.719 640 245.195V394.805C640 406.281 630.697 415.584 619.221 415.584C607.745 415.584 598.442 406.281 598.442 394.805V340.779H544.416C532.94 340.779 523.636 331.476 523.636 320C523.636 308.524 532.94 299.221 544.416 299.221H598.442ZM74.8052 374.026L74.8052 320C74.8052 308.524 84.1084 299.221 95.5844 299.221C107.06 299.221 116.364 308.524 116.364 320V394.805C116.364 406.281 107.06 415.584 95.5844 415.584H20.7792C9.30317 415.584 0 406.281 0 394.805C0 383.329 9.30317 374.026 20.7792 374.026H74.8052ZM394.805 374.026H469.61C481.086 374.026 490.39 383.329 490.39 394.805V544.416C490.39 555.892 481.086 565.195 469.61 565.195C458.134 565.195 448.831 555.892 448.831 544.416V415.584H394.805C383.329 415.584 374.026 406.281 374.026 394.805C374.026 383.329 383.329 374.026 394.805 374.026ZM161.783 448.831L230.502 380.112C238.616 371.997 251.773 371.997 259.888 380.112C268.003 388.227 268.003 401.384 259.888 409.498L185.083 484.304C181.186 488.2 175.901 490.39 170.39 490.39H95.5844C84.1084 490.39 74.8052 481.086 74.8052 469.61C74.8052 458.134 84.1084 448.831 95.5844 448.831H161.783ZM20.7792 448.831C32.2553 448.831 41.5584 458.134 41.5584 469.61L41.5584 525.902C84.3559 535.39 116.364 573.569 116.364 619.221C116.364 630.697 107.06 640 95.5844 640C84.1084 640 74.8052 630.697 74.8052 619.221C74.8052 589.385 50.6153 565.195 20.7792 565.195C15.2682 565.195 9.98295 563.006 6.08609 559.109C2.18923 555.212 0 549.927 0 544.416L6.60554e-06 469.61C7.92664e-06 458.134 9.30318 448.831 20.7792 448.831ZM525.218 461.659C528.434 453.894 536.011 448.831 544.416 448.831H619.221C630.697 448.831 640 458.134 640 469.61C640 481.086 630.697 490.39 619.221 490.39H594.581L633.914 529.722C637.811 533.619 640 538.905 640 544.416V619.221C640 630.697 630.697 640 619.221 640C607.745 640 598.442 630.697 598.442 619.221V553.023L529.722 484.304C523.78 478.361 522.002 469.423 525.218 461.659ZM170.39 523.636C181.866 523.636 191.169 532.94 191.169 544.416V619.221C191.169 630.697 181.866 640 170.39 640C158.914 640 149.61 630.697 149.61 619.221L149.61 544.416C149.61 532.94 158.914 523.636 170.39 523.636ZM245.195 523.636H320C331.476 523.636 340.779 532.94 340.779 544.416C340.779 555.892 331.476 565.195 320 565.195H245.195C233.719 565.195 224.416 555.892 224.416 544.416C224.416 532.94 233.719 523.636 245.195 523.636ZM311.393 598.442L380.112 529.722C388.227 521.608 401.384 521.608 409.498 529.722C417.613 537.837 417.613 550.994 409.498 559.109L334.693 633.914C330.796 637.811 325.511 640 320 640H245.195C233.719 640 224.416 630.697 224.416 619.221C224.416 607.745 233.719 598.442 245.195 598.442H311.393ZM469.61 598.442H544.416C555.892 598.442 565.195 607.745 565.195 619.221C565.195 630.697 555.892 640 544.416 640H469.61C458.134 640 448.831 630.697 448.831 619.221C448.831 607.745 458.134 598.442 469.61 598.442Z" fill="#D9FFD8"/>
</svg>
