<svg width="737" height="478" viewBox="0 0 737 478" fill="none" xmlns="http://www.w3.org/2000/svg">
<path fill-rule="evenodd" clip-rule="evenodd" d="M0 23.9C0 10.7004 10.7004 0 23.9 0C84.6162 0 133.84 49.2238 133.84 109.94C133.84 123.14 123.14 133.84 109.94 133.84C96.7404 133.84 86.04 123.14 86.04 109.94C86.04 75.623 58.217 47.8 23.9 47.8C10.7004 47.8 0 37.0996 0 23.9ZM282.02 0C295.22 3.03904e-06 305.92 10.7004 305.92 23.9V109.94C305.92 123.14 295.22 133.84 282.02 133.84L195.98 133.84C182.78 133.84 172.08 123.14 172.08 109.94C172.08 96.7404 182.78 86.04 195.98 86.04L258.12 86.04V23.9C258.12 10.7004 268.82 -3.03904e-06 282.02 0ZM368.06 0C381.26 0 391.96 10.7004 391.96 23.9V195.98C391.96 209.18 381.26 219.88 368.06 219.88H305.92V282.02C305.92 295.22 295.22 305.92 282.02 305.92C268.82 305.92 258.12 295.22 258.12 282.02V195.98C258.12 182.78 268.82 172.08 282.02 172.08H344.16V23.9C344.16 10.7004 354.86 0 368.06 0ZM430.2 23.9C430.2 10.7004 440.9 -1.51952e-06 454.1 0L540.14 1.06366e-05C553.34 1.36757e-05 564.04 10.7004 564.04 23.9C564.04 37.0996 553.34 47.8 540.14 47.8L454.1 47.8C440.9 47.8 430.2 37.0996 430.2 23.9ZM712.22 0C725.42 0 736.12 10.7004 736.12 23.9V109.94C736.12 123.14 725.42 133.84 712.22 133.84C699.02 133.84 688.32 123.14 688.32 109.94V23.9C688.32 10.7004 699.02 0 712.22 0ZM540.14 86.04C553.34 86.04 564.04 96.7404 564.04 109.94V282.02C564.04 288.359 561.522 294.438 557.04 298.92L471 384.96C461.666 394.293 446.534 394.293 437.2 384.96C427.867 375.626 427.867 360.494 437.2 351.16L516.24 272.12V219.88L454.1 219.88C440.9 219.88 430.2 209.18 430.2 195.98C430.2 182.78 440.9 172.08 454.1 172.08H516.24V109.94C516.24 96.7404 526.94 86.04 540.14 86.04ZM626.18 86.04C639.38 86.04 650.08 96.7404 650.08 109.94V186.08L729.12 265.12C738.453 274.454 738.453 289.586 729.12 298.92C719.786 308.253 704.654 308.253 695.32 298.92L609.28 212.88C604.798 208.398 602.28 202.319 602.28 195.98V109.94C602.28 96.7404 612.98 86.04 626.18 86.04ZM7.00016 179.08C11.4823 174.598 17.5613 172.08 23.9 172.08L195.98 172.08C209.18 172.08 219.88 182.78 219.88 195.98C219.88 209.18 209.18 219.88 195.98 219.88L47.8 219.88L47.8 258.12H109.94C116.279 258.12 122.358 260.638 126.84 265.12L212.88 351.16C222.213 360.494 222.213 375.626 212.88 384.96C203.546 394.293 188.414 394.293 179.08 384.96L100.04 305.92H23.9C17.5613 305.92 11.4823 303.402 7.00015 298.92C2.51803 294.438 0 288.359 0 282.02L7.59761e-06 195.98C7.59761e-06 189.641 2.51804 183.562 7.00016 179.08ZM23.9 344.16C37.0996 344.16 47.8 354.86 47.8 368.06L47.8 430.2H109.94C123.14 430.2 133.84 440.9 133.84 454.1C133.84 467.3 123.14 478 109.94 478H23.9C17.5613 478 11.4823 475.482 7.00015 471C2.51803 466.518 0 460.439 0 454.1L7.59761e-06 368.06C9.11713e-06 354.86 10.7004 344.16 23.9 344.16ZM258.12 368.06C258.12 354.86 268.82 344.16 282.02 344.16H368.06C381.26 344.16 391.96 354.86 391.96 368.06C391.96 381.26 381.26 391.96 368.06 391.96H282.02C268.82 391.96 258.12 381.26 258.12 368.06Z" fill="#D9FFD8"/>
<path d="M712.22 344.16C725.42 344.16 736.12 354.86 736.12 368.06V454.1C736.12 467.3 725.42 478 712.22 478L626.18 478C612.98 478 602.28 467.3 602.28 454.1C602.28 440.9 612.98 430.2 626.18 430.2H688.32V368.06C688.32 354.86 699.02 344.16 712.22 344.16Z" fill="#D9FFD8"/>
<path d="M258.12 454.1C258.12 440.9 268.82 430.2 282.02 430.2H368.06C381.26 430.2 391.96 440.9 391.96 454.1C391.96 467.3 381.26 478 368.06 478H282.02C268.82 478 258.12 467.3 258.12 454.1Z" fill="#D9FFD8"/>
<path d="M431.241 454.1C431.241 440.9 441.942 430.2 455.142 430.2H541.181C554.381 430.2 565.082 440.9 565.082 454.1C565.082 467.3 554.381 478 541.181 478H455.142C441.942 478 431.241 467.3 431.241 454.1Z" fill="#D9FFD8"/>
</svg>
