<svg width="364" height="364" viewBox="0 0 364 364" fill="none" xmlns="http://www.w3.org/2000/svg">
<path d="M30.2891 5C44.2551 5 55.5779 16.3228 55.5779 30.2888" stroke="#D9FFD8" stroke-width="10" stroke-linecap="round" stroke-linejoin="round"/>
<path d="M5 106.158H30.2888" stroke="#D9FFD8" stroke-width="10" stroke-linecap="round" stroke-linejoin="round"/>
<path d="M80.8689 106.158C66.9028 106.158 55.5801 94.8352 55.5801 80.8691" stroke="#D9FFD8" stroke-width="10" stroke-linecap="round" stroke-linejoin="round"/>
<path d="M106.158 30.2891C106.158 44.2551 94.8352 55.5779 80.8691 55.5779V30.2891" stroke="#D9FFD8" stroke-width="10" stroke-linecap="round" stroke-linejoin="round"/>
<path d="M80.8691 80.8691H106.158V106.158" stroke="#D9FFD8" stroke-width="10" stroke-linecap="round" stroke-linejoin="round"/>
<path d="M106.158 5H80.8691" stroke="#D9FFD8" stroke-width="10" stroke-linecap="round" stroke-linejoin="round"/>
<path d="M30.2888 80.8689V55.5801C16.3228 55.5801 5 66.9028 5 80.8689" stroke="#D9FFD8" stroke-width="10" stroke-linecap="round" stroke-linejoin="round"/>
<path d="M30.2888 30.2888H5V5" stroke="#D9FFD8" stroke-width="10" stroke-linecap="round" stroke-linejoin="round"/>
<path d="M30.2891 131.6C44.2551 131.6 55.5779 142.922 55.5779 156.888" stroke="#D9FFD8" stroke-width="10" stroke-linecap="round" stroke-linejoin="round"/>
<path d="M5 232.758H30.2888" stroke="#D9FFD8" stroke-width="10" stroke-linecap="round" stroke-linejoin="round"/>
<path d="M80.8689 232.758C66.9028 232.758 55.5801 221.435 55.5801 207.469" stroke="#D9FFD8" stroke-width="10" stroke-linecap="round" stroke-linejoin="round"/>
<path d="M106.158 156.889C106.158 170.855 94.8352 182.177 80.8691 182.177V156.889" stroke="#D9FFD8" stroke-width="10" stroke-linecap="round" stroke-linejoin="round"/>
<path d="M80.8691 207.469H106.158V232.758" stroke="#D9FFD8" stroke-width="10" stroke-linecap="round" stroke-linejoin="round"/>
<path d="M106.158 131.6H80.8691" stroke="#D9FFD8" stroke-width="10" stroke-linecap="round" stroke-linejoin="round"/>
<path d="M30.2888 207.468V182.18C16.3228 182.18 5 193.502 5 207.468" stroke="#D9FFD8" stroke-width="10" stroke-linecap="round" stroke-linejoin="round"/>
<path d="M30.2888 156.888H5V131.6" stroke="#D9FFD8" stroke-width="10" stroke-linecap="round" stroke-linejoin="round"/>
<path d="M30.2891 257.842C44.2551 257.842 55.5779 269.165 55.5779 283.131" stroke="#D9FFD8" stroke-width="10" stroke-linecap="round" stroke-linejoin="round"/>
<path d="M5 359H30.2888" stroke="#D9FFD8" stroke-width="10" stroke-linecap="round" stroke-linejoin="round"/>
<path d="M80.8689 359C66.9028 359 55.5801 347.677 55.5801 333.711" stroke="#D9FFD8" stroke-width="10" stroke-linecap="round" stroke-linejoin="round"/>
<path d="M106.158 283.131C106.158 297.097 94.8352 308.42 80.8691 308.42V283.131" stroke="#D9FFD8" stroke-width="10" stroke-linecap="round" stroke-linejoin="round"/>
<path d="M80.8691 333.711H106.158V359" stroke="#D9FFD8" stroke-width="10" stroke-linecap="round" stroke-linejoin="round"/>
<path d="M106.158 257.842H80.8691" stroke="#D9FFD8" stroke-width="10" stroke-linecap="round" stroke-linejoin="round"/>
<path d="M30.2888 333.711V308.422C16.3228 308.422 5 319.745 5 333.711" stroke="#D9FFD8" stroke-width="10" stroke-linecap="round" stroke-linejoin="round"/>
<path d="M30.2888 283.131H5V257.842" stroke="#D9FFD8" stroke-width="10" stroke-linecap="round" stroke-linejoin="round"/>
<path d="M156.889 5C170.855 5 182.177 16.3228 182.177 30.2888" stroke="#D9FFD8" stroke-width="10" stroke-linecap="round" stroke-linejoin="round"/>
<path d="M131.6 106.158H156.888" stroke="#D9FFD8" stroke-width="10" stroke-linecap="round" stroke-linejoin="round"/>
<path d="M207.468 106.158C193.502 106.158 182.18 94.8352 182.18 80.8691" stroke="#D9FFD8" stroke-width="10" stroke-linecap="round" stroke-linejoin="round"/>
<path d="M232.758 30.2891C232.758 44.2551 221.435 55.5779 207.469 55.5779V30.2891" stroke="#D9FFD8" stroke-width="10" stroke-linecap="round" stroke-linejoin="round"/>
<path d="M207.469 80.8691H232.758V106.158" stroke="#D9FFD8" stroke-width="10" stroke-linecap="round" stroke-linejoin="round"/>
<path d="M232.758 5H207.469" stroke="#D9FFD8" stroke-width="10" stroke-linecap="round" stroke-linejoin="round"/>
<path d="M156.888 80.8689V55.5801C142.922 55.5801 131.6 66.9028 131.6 80.8689" stroke="#D9FFD8" stroke-width="10" stroke-linecap="round" stroke-linejoin="round"/>
<path d="M156.888 30.2888H131.6V5" stroke="#D9FFD8" stroke-width="10" stroke-linecap="round" stroke-linejoin="round"/>
<path d="M283.131 5C297.097 5 308.42 16.3228 308.42 30.2888" stroke="#D9FFD8" stroke-width="10" stroke-linecap="round" stroke-linejoin="round"/>
<path d="M257.842 106.158H283.131" stroke="#D9FFD8" stroke-width="10" stroke-linecap="round" stroke-linejoin="round"/>
<path d="M333.711 106.158C319.745 106.158 308.422 94.8352 308.422 80.8691" stroke="#D9FFD8" stroke-width="10" stroke-linecap="round" stroke-linejoin="round"/>
<path d="M359 30.2891C359 44.2551 347.677 55.5779 333.711 55.5779V30.2891" stroke="#D9FFD8" stroke-width="10" stroke-linecap="round" stroke-linejoin="round"/>
<path d="M333.711 80.8691H359V106.158" stroke="#D9FFD8" stroke-width="10" stroke-linecap="round" stroke-linejoin="round"/>
<path d="M359 5H333.711" stroke="#D9FFD8" stroke-width="10" stroke-linecap="round" stroke-linejoin="round"/>
<path d="M283.131 80.8689V55.5801C269.165 55.5801 257.842 66.9028 257.842 80.8689" stroke="#D9FFD8" stroke-width="10" stroke-linecap="round" stroke-linejoin="round"/>
<path d="M283.131 30.2888H257.842V5" stroke="#D9FFD8" stroke-width="10" stroke-linecap="round" stroke-linejoin="round"/>
<path d="M156.889 131.6C170.855 131.6 182.177 142.922 182.177 156.888" stroke="#D9FFD8" stroke-width="10" stroke-linecap="round" stroke-linejoin="round"/>
<path d="M131.6 232.758H156.888" stroke="#D9FFD8" stroke-width="10" stroke-linecap="round" stroke-linejoin="round"/>
<path d="M207.468 232.758C193.502 232.758 182.18 221.435 182.18 207.469" stroke="#D9FFD8" stroke-width="10" stroke-linecap="round" stroke-linejoin="round"/>
<path d="M232.758 156.889C232.758 170.855 221.435 182.177 207.469 182.177V156.889" stroke="#D9FFD8" stroke-width="10" stroke-linecap="round" stroke-linejoin="round"/>
<path d="M207.469 207.469H232.758V232.758" stroke="#D9FFD8" stroke-width="10" stroke-linecap="round" stroke-linejoin="round"/>
<path d="M232.758 131.6H207.469" stroke="#D9FFD8" stroke-width="10" stroke-linecap="round" stroke-linejoin="round"/>
<path d="M156.888 207.468V182.18C142.922 182.18 131.6 193.502 131.6 207.468" stroke="#D9FFD8" stroke-width="10" stroke-linecap="round" stroke-linejoin="round"/>
<path d="M156.888 156.888H131.6V131.6" stroke="#D9FFD8" stroke-width="10" stroke-linecap="round" stroke-linejoin="round"/>
<path d="M156.889 257.842C170.855 257.842 182.177 269.165 182.177 283.131" stroke="#D9FFD8" stroke-width="10" stroke-linecap="round" stroke-linejoin="round"/>
<path d="M131.6 359H156.888" stroke="#D9FFD8" stroke-width="10" stroke-linecap="round" stroke-linejoin="round"/>
<path d="M207.468 359C193.502 359 182.18 347.677 182.18 333.711" stroke="#D9FFD8" stroke-width="10" stroke-linecap="round" stroke-linejoin="round"/>
<path d="M232.758 283.131C232.758 297.097 221.435 308.42 207.469 308.42V283.131" stroke="#D9FFD8" stroke-width="10" stroke-linecap="round" stroke-linejoin="round"/>
<path d="M207.469 333.711H232.758V359" stroke="#D9FFD8" stroke-width="10" stroke-linecap="round" stroke-linejoin="round"/>
<path d="M232.758 257.842H207.469" stroke="#D9FFD8" stroke-width="10" stroke-linecap="round" stroke-linejoin="round"/>
<path d="M156.888 333.711V308.422C142.922 308.422 131.6 319.745 131.6 333.711" stroke="#D9FFD8" stroke-width="10" stroke-linecap="round" stroke-linejoin="round"/>
<path d="M156.888 283.131H131.6V257.842" stroke="#D9FFD8" stroke-width="10" stroke-linecap="round" stroke-linejoin="round"/>
<path d="M283.131 131.6C297.097 131.6 308.42 142.922 308.42 156.888" stroke="#D9FFD8" stroke-width="10" stroke-linecap="round" stroke-linejoin="round"/>
<path d="M257.842 232.758H283.131" stroke="#D9FFD8" stroke-width="10" stroke-linecap="round" stroke-linejoin="round"/>
<path d="M333.711 232.758C319.745 232.758 308.422 221.435 308.422 207.469" stroke="#D9FFD8" stroke-width="10" stroke-linecap="round" stroke-linejoin="round"/>
<path d="M359 156.889C359 170.855 347.677 182.177 333.711 182.177V156.889" stroke="#D9FFD8" stroke-width="10" stroke-linecap="round" stroke-linejoin="round"/>
<path d="M333.711 207.469H359V232.758" stroke="#D9FFD8" stroke-width="10" stroke-linecap="round" stroke-linejoin="round"/>
<path d="M359 131.6H333.711" stroke="#D9FFD8" stroke-width="10" stroke-linecap="round" stroke-linejoin="round"/>
<path d="M283.131 207.468V182.18C269.165 182.18 257.842 193.502 257.842 207.468" stroke="#D9FFD8" stroke-width="10" stroke-linecap="round" stroke-linejoin="round"/>
<path d="M283.131 156.888H257.842V131.6" stroke="#D9FFD8" stroke-width="10" stroke-linecap="round" stroke-linejoin="round"/>
<path d="M283.131 257.842C297.097 257.842 308.42 269.165 308.42 283.131" stroke="#D9FFD8" stroke-width="10" stroke-linecap="round" stroke-linejoin="round"/>
<path d="M257.842 359H283.131" stroke="#D9FFD8" stroke-width="10" stroke-linecap="round" stroke-linejoin="round"/>
<path d="M333.711 359C319.745 359 308.422 347.677 308.422 333.711" stroke="#D9FFD8" stroke-width="10" stroke-linecap="round" stroke-linejoin="round"/>
<path d="M359 283.131C359 297.097 347.677 308.42 333.711 308.42V283.131" stroke="#D9FFD8" stroke-width="10" stroke-linecap="round" stroke-linejoin="round"/>
<path d="M333.711 333.711H359V359" stroke="#D9FFD8" stroke-width="10" stroke-linecap="round" stroke-linejoin="round"/>
<path d="M359 257.842H333.711" stroke="#D9FFD8" stroke-width="10" stroke-linecap="round" stroke-linejoin="round"/>
<path d="M283.131 333.711V308.422C269.165 308.422 257.842 319.745 257.842 333.711" stroke="#D9FFD8" stroke-width="10" stroke-linecap="round" stroke-linejoin="round"/>
<path d="M283.131 283.131H257.842V257.842" stroke="#D9FFD8" stroke-width="10" stroke-linecap="round" stroke-linejoin="round"/>
</svg>
