<svg width="374" height="374" viewBox="0 0 374 374" fill="none" xmlns="http://www.w3.org/2000/svg">
<path d="M98.5 231.25L98.5 275.5L54.25 275.5" stroke="#CBDCFF" stroke-width="20" stroke-linecap="round" stroke-linejoin="round"/>
<path d="M187 231.25L142.75 231.25L142.75 187" stroke="#CBDCFF" stroke-width="20" stroke-linecap="round" stroke-linejoin="round"/>
<path d="M54.25 364L10 364L10 319.75" stroke="#CBDCFF" stroke-width="20" stroke-linecap="round" stroke-linejoin="round"/>
<path d="M142.75 187L98.5 142.75" stroke="#CBDCFF" stroke-width="20" stroke-linecap="round"/>
<path d="M231.25 275.5L275.5 319.75" stroke="#CBDCFF" stroke-width="20" stroke-linecap="round"/>
<path d="M231.25 319.75L187 364" stroke="#CBDCFF" stroke-width="20" stroke-linecap="round"/>
<path d="M10 275.5L54.25 319.75" stroke="#CBDCFF" stroke-width="20" stroke-linecap="round"/>
<path d="M142.75 275.5L142.75 319.75" stroke="#CBDCFF" stroke-width="20" stroke-linecap="round"/>
<path d="M364 319.75L364 364" stroke="#CBDCFF" stroke-width="20" stroke-linecap="round"/>
<path d="M187 319.75H231.25" stroke="#CBDCFF" stroke-width="20" stroke-linecap="round"/>
<path d="M275.5 364H319.75" stroke="#CBDCFF" stroke-width="20" stroke-linecap="round"/>
<path d="M275.5 185.23H319.75" stroke="#CBDCFF" stroke-width="20" stroke-linecap="round"/>
<path d="M187 231.25L187 275.5" stroke="#CBDCFF" stroke-width="20" stroke-linecap="round"/>
<path d="M10 187L10 231.25" stroke="#CBDCFF" stroke-width="20" stroke-linecap="round"/>
<path d="M98.5 231.25L54.25 231.25" stroke="#CBDCFF" stroke-width="20" stroke-linecap="round"/>
<path d="M142.75 275.5L98.5 275.5" stroke="#CBDCFF" stroke-width="20" stroke-linecap="round"/>
<path d="M187 275.5L142.75 275.5" stroke="#CBDCFF" stroke-width="20" stroke-linecap="round"/>
<path d="M275.5 275.5C275.5 251.062 255.688 231.25 231.25 231.25" stroke="#CBDCFF" stroke-width="20" stroke-linecap="round" stroke-linejoin="round"/>
<path d="M277.27 188.77C277.27 164.332 257.457 144.52 233.02 144.52" stroke="#CBDCFF" stroke-width="20" stroke-linecap="round" stroke-linejoin="round"/>
<path d="M10 142.75C10 167.188 29.8124 187 54.25 187" stroke="#CBDCFF" stroke-width="20" stroke-linecap="round" stroke-linejoin="round"/>
<path d="M319.75 142.75C344.188 142.75 364 122.938 364 98.5" stroke="#CBDCFF" stroke-width="20" stroke-linecap="round" stroke-linejoin="round"/>
<path d="M319.75 319.75C344.188 319.75 364 299.938 364 275.5" stroke="#CBDCFF" stroke-width="20" stroke-linecap="round" stroke-linejoin="round"/>
<path d="M98.5 319.75C98.5 344.188 118.312 364 142.75 364" stroke="#CBDCFF" stroke-width="20" stroke-linecap="round" stroke-linejoin="round"/>
<path d="M187 98.5L187 142.75" stroke="#CBDCFF" stroke-width="20" stroke-linecap="round"/>
<path d="M275.5 142.75L231.25 142.75L231.25 98.5" stroke="#CBDCFF" stroke-width="20" stroke-linecap="round" stroke-linejoin="round"/>
<path d="M10 142.75L54.25 142.75L54.25 98.5" stroke="#CBDCFF" stroke-width="20" stroke-linecap="round" stroke-linejoin="round"/>
<path d="M98.5 98.5L142.75 142.75" stroke="#CBDCFF" stroke-width="20" stroke-linecap="round"/>
<path d="M319.75 54.25L364 54.25L364 98.5" stroke="#CBDCFF" stroke-width="20" stroke-linecap="round" stroke-linejoin="round"/>
<path d="M187 54.25L142.75 98.5" stroke="#CBDCFF" stroke-width="20" stroke-linecap="round"/>
<path d="M187 54.25L231.25 54.25" stroke="#CBDCFF" stroke-width="20" stroke-linecap="round"/>
<path d="M275.5 54.25C275.5 78.6876 295.312 98.5 319.75 98.5" stroke="#CBDCFF" stroke-width="20" stroke-linecap="round" stroke-linejoin="round"/>
<path d="M98.5 98.5L54.25 98.5" stroke="#CBDCFF" stroke-width="20" stroke-linecap="round"/>
<path d="M98.5 54.25L54.25 54.25" stroke="#CBDCFF" stroke-width="20" stroke-linecap="round"/>
<path d="M10 54.25L10 98.5" stroke="#CBDCFF" stroke-width="20" stroke-linecap="round"/>
<path d="M319.75 54.25C344.188 54.25 364 34.4376 364 10" stroke="#CBDCFF" stroke-width="20" stroke-linecap="round" stroke-linejoin="round"/>
<path d="M319.75 10L275.5 10" stroke="#CBDCFF" stroke-width="20" stroke-linecap="round"/>
<path d="M231.25 10L187 10" stroke="#CBDCFF" stroke-width="20" stroke-linecap="round"/>
<path d="M187 54.25L231.25 10" stroke="#CBDCFF" stroke-width="20" stroke-linecap="round"/>
<path d="M10 54.25L54.25 10" stroke="#CBDCFF" stroke-width="20" stroke-linecap="round"/>
<path d="M98.5 54.25L98.5 10" stroke="#CBDCFF" stroke-width="20" stroke-linecap="round"/>
<path d="M98.5 54.25L54.25 54.25" stroke="#CBDCFF" stroke-width="20" stroke-linecap="round"/>
<path d="M142.75 54.25L98.5 54.25" stroke="#CBDCFF" stroke-width="20" stroke-linecap="round"/>
<path d="M319.75 231.25L275.5 187" stroke="#CBDCFF" stroke-width="20" stroke-linecap="round"/>
<path d="M319.75 275.5L364 231.25" stroke="#CBDCFF" stroke-width="20" stroke-linecap="round"/>
<path d="M231.25 187L231.25 231.25" stroke="#CBDCFF" stroke-width="20" stroke-linecap="round"/>
<path d="M319.75 231.25L319.75 275.5" stroke="#CBDCFF" stroke-width="20" stroke-linecap="round"/>
</svg>
