<svg width="1366" height="419" viewBox="0 0 1366 419" fill="none" xmlns="http://www.w3.org/2000/svg">
<path d="M114.714 209.429L20 209.429L20 114.714" stroke="#193718" stroke-width="40" stroke-linecap="round" stroke-linejoin="round"/>
<path d="M683 19.9996L683 114.714L588.286 114.714" stroke="#193718" stroke-width="40" stroke-linecap="round" stroke-linejoin="round"/>
<path d="M967.143 114.714L872.429 114.714L872.429 19.9996" stroke="#193718" stroke-width="40" stroke-linecap="round" stroke-linejoin="round"/>
<path d="M20 20L114.714 114.714" stroke="#193718" stroke-width="40" stroke-linecap="round"/>
<path d="M114.714 304.143L209.428 398.857" stroke="#193718" stroke-width="40" stroke-linecap="round"/>
<path d="M1251.29 304.143L1156.57 398.857" stroke="#193718" stroke-width="40" stroke-linecap="round"/>
<path d="M1346 20L1251.29 114.714" stroke="#193718" stroke-width="40" stroke-linecap="round"/>
<path d="M304.143 209.429L398.857 114.714" stroke="#193718" stroke-width="40" stroke-linecap="round"/>
<path d="M777.714 209.429L872.428 114.714" stroke="#193718" stroke-width="40" stroke-linecap="round"/>
<path d="M20 209.429L20 304.143" stroke="#193718" stroke-width="40" stroke-linecap="round"/>
<path d="M209.429 20L209.429 114.714" stroke="#193718" stroke-width="40" stroke-linecap="round"/>
<path d="M1251.29 114.714L1251.29 209.428" stroke="#193718" stroke-width="40" stroke-linecap="round"/>
<path d="M777.714 20L777.714 114.714" stroke="#193718" stroke-width="40" stroke-linecap="round"/>
<path d="M493.571 114.714L493.571 209.428" stroke="#193718" stroke-width="40" stroke-linecap="round"/>
<path d="M493.571 304.143L493.571 398.857" stroke="#193718" stroke-width="40" stroke-linecap="round"/>
<path d="M872.429 209.429L872.429 304.143" stroke="#193718" stroke-width="40" stroke-linecap="round"/>
<path d="M1061.86 209.429L1061.86 304.143" stroke="#193718" stroke-width="40" stroke-linecap="round"/>
<path d="M1156.57 209.429L1156.57 304.143" stroke="#193718" stroke-width="40" stroke-linecap="round"/>
<path d="M1251.29 20L1346 20" stroke="#193718" stroke-width="40" stroke-linecap="round"/>
<path d="M1061.86 209.429L1156.57 209.429" stroke="#193718" stroke-width="40" stroke-linecap="round"/>
<path d="M209.429 20L114.714 20" stroke="#193718" stroke-width="40" stroke-linecap="round"/>
<path d="M209.429 304.143L114.714 304.143" stroke="#193718" stroke-width="40" stroke-linecap="round"/>
<path d="M304.143 304.143L209.428 304.143" stroke="#193718" stroke-width="40" stroke-linecap="round"/>
<path d="M304.143 20L209.428 20" stroke="#193718" stroke-width="40" stroke-linecap="round"/>
<path d="M683 209.429L588.286 209.429" stroke="#193718" stroke-width="40" stroke-linecap="round"/>
<path d="M872.429 398.857L777.714 398.857" stroke="#193718" stroke-width="40" stroke-linecap="round"/>
<path d="M588.286 304.143L493.572 304.143" stroke="#193718" stroke-width="40" stroke-linecap="round"/>
<path d="M683 304.143L588.286 304.143" stroke="#193718" stroke-width="40" stroke-linecap="round"/>
<path d="M398.857 114.714C451.165 114.714 493.572 72.3067 493.572 19.9996" stroke="#193718" stroke-width="40" stroke-linecap="round" stroke-linejoin="round"/>
<path d="M398.857 304.143C398.857 251.835 356.45 209.428 304.143 209.428" stroke="#193718" stroke-width="40" stroke-linecap="round" stroke-linejoin="round"/>
<path d="M588.286 398.857C640.593 398.857 683 356.45 683 304.143" stroke="#193718" stroke-width="40" stroke-linecap="round" stroke-linejoin="round"/>
<path d="M209.429 114.714C157.122 114.714 114.714 157.121 114.714 209.428" stroke="#193718" stroke-width="40" stroke-linecap="round" stroke-linejoin="round"/>
<path d="M1061.86 20C1061.86 72.3071 1104.26 114.714 1156.57 114.714" stroke="#193718" stroke-width="40" stroke-linecap="round" stroke-linejoin="round"/>
<path d="M1251.29 304.143C1303.59 304.143 1346 261.735 1346 209.428" stroke="#193718" stroke-width="40" stroke-linecap="round" stroke-linejoin="round"/>
<path d="M872.429 114.714C872.429 167.021 914.836 209.428 967.143 209.428" stroke="#193718" stroke-width="40" stroke-linecap="round" stroke-linejoin="round"/>
<path d="M1061.86 304.143C1009.55 304.143 967.143 346.55 967.143 398.857" stroke="#193718" stroke-width="40" stroke-linecap="round" stroke-linejoin="round"/>
</svg>
