<svg width="1224" height="405" viewBox="0 0 1224 405" fill="none" xmlns="http://www.w3.org/2000/svg">
<path d="M202.38 384.154C202.38 333.868 243.121 293.127 293.407 293.127" stroke="#CBDCFF" stroke-width="40" stroke-linecap="round" stroke-linejoin="round"/>
<path d="M111.349 202.055H293.447L384.474 111.028" stroke="#CBDCFF" stroke-width="40" stroke-linecap="round" stroke-linejoin="round"/>
<path d="M20.3242 202.055V111.028" stroke="#CBDCFF" stroke-width="40" stroke-linecap="round" stroke-linejoin="round"/>
<path d="M111.351 111.027L202.378 20H20.3242" stroke="#CBDCFF" stroke-width="40" stroke-linecap="round" stroke-linejoin="round"/>
<path d="M293.447 20H384.474" stroke="#CBDCFF" stroke-width="40" stroke-linecap="round" stroke-linejoin="round"/>
<path d="M20.3242 384.154H111.351V293.127" stroke="#CBDCFF" stroke-width="40" stroke-linecap="round" stroke-linejoin="round"/>
<path d="M566.532 20C516.246 20 475.505 60.7415 475.505 111.027" stroke="#CBDCFF" stroke-width="40" stroke-linecap="round" stroke-linejoin="round"/>
<path d="M1203.67 202.1V111.028" stroke="#CBDCFF" stroke-width="40" stroke-linecap="round" stroke-linejoin="round"/>
<path d="M930.682 111.027C980.967 111.027 1021.71 70.2853 1021.71 20" stroke="#CBDCFF" stroke-width="40" stroke-linecap="round" stroke-linejoin="round"/>
<path d="M1112.78 20V202.054" stroke="#CBDCFF" stroke-width="40" stroke-linecap="round" stroke-linejoin="round"/>
<path d="M1021.71 384.154C1021.71 333.868 1062.45 293.127 1112.74 293.127" stroke="#CBDCFF" stroke-width="40" stroke-linecap="round" stroke-linejoin="round"/>
<path d="M930.682 293.127V384.154H1021.71" stroke="#CBDCFF" stroke-width="40" stroke-linecap="round" stroke-linejoin="round"/>
<path d="M748.631 111.027L839.658 20H930.684" stroke="#CBDCFF" stroke-width="40" stroke-linecap="round" stroke-linejoin="round"/>
<path d="M930.682 202.051H1021.71" stroke="#CBDCFF" stroke-width="40" stroke-linecap="round" stroke-linejoin="round"/>
<path d="M748.631 384.154V293.127H839.658" stroke="#CBDCFF" stroke-width="40" stroke-linecap="round" stroke-linejoin="round"/>
<path d="M839.655 111.028V202.055" stroke="#CBDCFF" stroke-width="40" stroke-linecap="round" stroke-linejoin="round"/>
<path d="M566.529 384.149V293.123H657.601L748.628 202.051" stroke="#CBDCFF" stroke-width="40" stroke-linecap="round" stroke-linejoin="round"/>
<path d="M475.505 202.055H566.532V111.028" stroke="#CBDCFF" stroke-width="40" stroke-linecap="round" stroke-linejoin="round"/>
<path d="M748.626 384.155H657.6" stroke="#CBDCFF" stroke-width="40" stroke-linecap="round" stroke-linejoin="round"/>
<path d="M657.6 111.027V20" stroke="#CBDCFF" stroke-width="40" stroke-linecap="round" stroke-linejoin="round"/>
<path d="M384.476 202.051V293.078C434.761 293.078 475.502 333.819 475.502 384.104" stroke="#CBDCFF" stroke-width="40" stroke-linecap="round" stroke-linejoin="round"/>
<path d="M384.476 20V111.027" stroke="#CBDCFF" stroke-width="40" stroke-linecap="round" stroke-linejoin="round"/>
<path d="M1203.67 293.127V384.154H1112.65" stroke="#CBDCFF" stroke-width="40" stroke-linecap="round" stroke-linejoin="round"/>
<path d="M1203.67 20H1112.65V111.027" stroke="#CBDCFF" stroke-width="40" stroke-linecap="round" stroke-linejoin="round"/>
<path d="M293.447 384.155H384.474" stroke="#CBDCFF" stroke-width="40" stroke-linecap="round" stroke-linejoin="round"/>
</svg>
