<svg width="343" height="343" viewBox="0 0 343 343" fill="none" xmlns="http://www.w3.org/2000/svg">
<path d="M90.6504 211.825C113.009 211.825 130.975 193.659 130.975 171.5L90.6504 171.7" stroke="#193718" stroke-width="20" stroke-miterlimit="10" stroke-linecap="round" stroke-linejoin="round"/>
<path d="M252.149 252.15C229.791 252.15 211.824 233.984 211.824 211.825H290.478L332.999 171.5" stroke="#193718" stroke-width="20" stroke-miterlimit="10" stroke-linecap="round" stroke-linejoin="round"/>
<path d="M10 50.3251C10 28.1662 28.1662 10 50.3251 10" stroke="#193718" stroke-width="20" stroke-miterlimit="10" stroke-linecap="round" stroke-linejoin="round"/>
<path d="M10 90.6499H50.3251" stroke="#193718" stroke-width="20" stroke-miterlimit="10" stroke-linecap="round" stroke-linejoin="round"/>
<path d="M10 171.5L50.3251 131.175H131.175" stroke="#193718" stroke-width="20" stroke-miterlimit="10" stroke-linecap="round" stroke-linejoin="round"/>
<path d="M90.6504 50.3257V131.175" stroke="#193718" stroke-width="20" stroke-miterlimit="10" stroke-linecap="round" stroke-linejoin="round"/>
<path d="M131.175 90.6501V50.3251L171.5 10H90.6504" stroke="#193718" stroke-width="20" stroke-miterlimit="10" stroke-linecap="round" stroke-linejoin="round"/>
<path d="M211.824 10V50.3251C234.183 50.3251 252.149 68.4913 252.149 90.6501" stroke="#193718" stroke-width="20" stroke-miterlimit="10" stroke-linecap="round" stroke-linejoin="round"/>
<path d="M171.5 50.3257V90.6508" stroke="#193718" stroke-width="20" stroke-miterlimit="10" stroke-linecap="round" stroke-linejoin="round"/>
<path d="M292.676 10H333.001V50.3251" stroke="#193718" stroke-width="20" stroke-miterlimit="10" stroke-linecap="round" stroke-linejoin="round"/>
<path d="M292.675 171.5H252.15L211.825 131.175H171.5" stroke="#193718" stroke-width="20" stroke-miterlimit="10" stroke-linecap="round" stroke-linejoin="round"/>
<path d="M211.825 171.5H171.5" stroke="#193718" stroke-width="20" stroke-miterlimit="10" stroke-linecap="round" stroke-linejoin="round"/>
<path d="M292.676 131.175H333.001V90.6499" stroke="#193718" stroke-width="20" stroke-miterlimit="10" stroke-linecap="round" stroke-linejoin="round"/>
<path d="M333 171.5V131.175" stroke="#193718" stroke-width="20" stroke-miterlimit="10" stroke-linecap="round" stroke-linejoin="round"/>
<path d="M292.676 50.3257V90.6508" stroke="#193718" stroke-width="20" stroke-miterlimit="10" stroke-linecap="round" stroke-linejoin="round"/>
<path d="M171.5 171.5V252.15" stroke="#193718" stroke-width="20" stroke-miterlimit="10" stroke-linecap="round" stroke-linejoin="round"/>
<path d="M90.6504 292.675V333H130.975C130.975 310.642 149.142 292.675 171.301 292.675" stroke="#193718" stroke-width="20" stroke-miterlimit="10" stroke-linecap="round" stroke-linejoin="round"/>
<path d="M292.676 292.675C315.034 292.675 333.001 310.842 333.001 333" stroke="#193718" stroke-width="20" stroke-miterlimit="10" stroke-linecap="round" stroke-linejoin="round"/>
<path d="M90.6504 252.149H131.175" stroke="#193718" stroke-width="20" stroke-miterlimit="10" stroke-linecap="round" stroke-linejoin="round"/>
<path d="M292.676 252.15H333.001V211.825" stroke="#193718" stroke-width="20" stroke-miterlimit="10" stroke-linecap="round" stroke-linejoin="round"/>
<path d="M252.15 333H292.675" stroke="#193718" stroke-width="20" stroke-miterlimit="10" stroke-linecap="round" stroke-linejoin="round"/>
<path d="M171.5 171.5H252.15" stroke="#193718" stroke-width="20" stroke-miterlimit="10" stroke-linecap="round" stroke-linejoin="round"/>
<path d="M10 333V292.675H50.3251" stroke="#193718" stroke-width="20" stroke-miterlimit="10" stroke-linecap="round" stroke-linejoin="round"/>
<path d="M10 252.15V211.825H50.3251V252.15" stroke="#193718" stroke-width="20" stroke-miterlimit="10" stroke-linecap="round" stroke-linejoin="round"/>
<path d="M171.5 252.15V211.825" stroke="#193718" stroke-width="20" stroke-miterlimit="10" stroke-linecap="round" stroke-linejoin="round"/>
<path d="M211.824 333V292.675H252.149" stroke="#193718" stroke-width="20" stroke-miterlimit="10" stroke-linecap="round" stroke-linejoin="round"/>
</svg>
