<svg width="20" height="20" viewBox="0 0 20 20" fill="none" xmlns="http://www.w3.org/2000/svg">
<g style="mix-blend-mode:exclusion">
<path d="M9.82324 5.76562C9.82324 3.32917 7.84793 1.35386 5.41148 1.35386" stroke="white" stroke-width="2" stroke-linecap="round" stroke-linejoin="round"/>
<path d="M9.82324 14.5889C9.82324 17.0253 11.7986 19.0006 14.235 19.0006" stroke="white" stroke-width="2" stroke-linecap="round" stroke-linejoin="round"/>
<path d="M18.6475 5.76499V5.76499C18.6475 8.20154 16.6722 10.1768 14.2357 10.1768V10.1768L14.2357 5.76499" stroke="white" stroke-width="2" stroke-linecap="round" stroke-linejoin="round"/>
<path d="M0.999999 14.5885V14.5885C1 12.152 2.97521 10.1768 5.41176 10.1768V10.1768L5.41176 14.5885" stroke="white" stroke-width="2" stroke-linecap="round" stroke-linejoin="round"/>
<path d="M18.6475 1.35352L14.2357 1.35352" stroke="white" stroke-width="2" stroke-linecap="round"/>
<path d="M1 19.001L5.41176 19.001" stroke="white" stroke-width="2" stroke-linecap="round"/>
<path d="M5.41176 5.76562L1 5.76562L1 1.35386" stroke="white" stroke-width="2" stroke-linecap="round" stroke-linejoin="round"/>
<path d="M14.015 14.5889L18.4268 14.5889L18.4268 19.0006" stroke="white" stroke-width="2" stroke-linecap="round" stroke-linejoin="round"/>
</g>
</svg>
