<svg width="66" height="18" viewBox="0 0 66 18" fill="none" xmlns="http://www.w3.org/2000/svg">
<g style="mix-blend-mode:exclusion">
<path d="M5.98747 17.6471C2.56659 17.6471 0.663429 16.0274 0.470703 13.2232H2.47023C2.73523 15.3989 4.18067 16.0032 6.03566 16.0032C8.08337 16.0032 8.92654 15.1088 8.92654 13.9484C8.92654 12.5463 7.96291 12.1837 5.6743 11.7002C3.21704 11.1926 1.02479 10.6849 1.02479 7.95326C1.02479 5.87429 2.61478 4.52055 5.50566 4.52055C8.58927 4.52055 10.107 5.99516 10.3961 8.43674H8.39654C8.20382 6.79291 7.31246 6.06769 5.45748 6.06769C3.67477 6.06769 2.95205 6.86543 2.95205 7.85657C2.95205 9.21031 4.15658 9.47623 6.30065 9.91136C8.80609 10.419 10.902 10.975 10.902 13.8517C10.902 16.3658 8.85427 17.6471 5.98747 17.6471Z" fill="white"/>
<path d="M18.3293 17.6229C14.6193 17.6229 12.3066 14.6736 12.3066 11.0475C12.3066 7.42143 14.6193 4.4722 18.3293 4.4722C22.0633 4.4722 24.3278 7.42143 24.3278 11.0475C24.3278 14.6736 22.0633 17.6229 18.3293 17.6229ZM18.3293 15.979C20.9792 15.979 22.3283 13.8034 22.3283 11.0475C22.3283 8.2917 20.9792 6.09186 18.3293 6.09186C15.6793 6.09186 14.3061 8.2917 14.3061 11.0475C14.3061 13.8034 15.6793 15.979 18.3293 15.979Z" fill="white"/>
<path d="M31.598 17.6229C27.888 17.6229 25.5753 14.6736 25.5753 11.0475C25.5753 7.42143 27.888 4.4722 31.598 4.4722C34.537 4.4722 36.4884 6.16438 36.922 8.82353H34.9466C34.6575 7.13135 33.477 6.09186 31.598 6.09186C28.948 6.09186 27.5748 8.2917 27.5748 11.0475C27.5748 13.8034 28.948 15.979 31.598 15.979C33.6216 15.979 34.8261 14.8187 34.9948 12.8848H36.922C36.657 15.8824 34.7057 17.6229 31.598 17.6229Z" fill="white"/>
<path d="M38.7663 17.2844V4.78646H40.7176V17.2844H38.7663ZM38.7663 2.41741V0H40.7176V2.41741H38.7663Z" fill="white"/>
<path d="M53.2546 17.2844H51.3032V15.5681H51.255C50.3637 16.7768 49.3037 17.5745 47.4969 17.5745C44.9433 17.5745 43.3051 16.0274 43.3051 13.4408V4.78646H45.2565V13.3924C45.2565 15.0121 46.2924 15.9549 48.051 15.9549C50.0264 15.9549 51.3032 14.4561 51.3032 12.4738V4.78646H53.2546V17.2844Z" fill="white"/>
<path d="M60.615 17.6471C57.1941 17.6471 55.291 16.0274 55.0983 13.2232H57.0978C57.3628 15.3989 58.8082 16.0032 60.6632 16.0032C62.7109 16.0032 63.5541 15.1088 63.5541 13.9484C63.5541 12.5463 62.5905 12.1837 60.3018 11.7002C57.8446 11.1926 55.6523 10.6849 55.6523 7.95326C55.6523 5.87429 57.2423 4.52055 60.1332 4.52055C63.2168 4.52055 64.7345 5.99516 65.0236 8.43674H63.0241C62.8314 6.79291 61.94 6.06769 60.085 6.06769C58.3023 6.06769 57.5796 6.86543 57.5796 7.85657C57.5796 9.21031 58.7841 9.47623 60.9282 9.91136C63.4336 10.419 65.5295 10.975 65.5295 13.8517C65.5295 16.3658 63.4818 17.6471 60.615 17.6471Z" fill="white"/>
</g>
</svg>
