<svg width="310" height="311" viewBox="0 0 310 311" fill="none" xmlns="http://www.w3.org/2000/svg">
<path d="M82.5 155.785L46.25 155.785" stroke="black" stroke-width="20" stroke-linecap="round"/>
<path d="M82.5 119.535L46.25 119.535" stroke="black" stroke-width="20" stroke-linecap="round"/>
<path d="M300 119.535L263.75 119.535" stroke="black" stroke-width="20" stroke-linecap="round"/>
<path d="M227.5 119.535L191.25 119.535" stroke="black" stroke-width="20" stroke-linecap="round"/>
<path d="M10 10.7852L46.25 10.7852L46.25 47.0352" stroke="black" stroke-width="20" stroke-linecap="round" stroke-linejoin="round"/>
<path d="M82.5 155.785L82.5 192.035L46.25 192.035" stroke="black" stroke-width="20" stroke-linecap="round" stroke-linejoin="round"/>
<path d="M300 192.035L263.75 192.035L263.75 155.785" stroke="black" stroke-width="20" stroke-linecap="round" stroke-linejoin="round"/>
<path d="M263.75 264.535L263.75 300.785L227.5 300.785" stroke="black" stroke-width="20" stroke-linecap="round" stroke-linejoin="round"/>
<path d="M82.5 47.0352L118.75 10.7852" stroke="black" stroke-width="20" stroke-linecap="round"/>
<path d="M191.25 47.0352L227.5 10.7852" stroke="black" stroke-width="20" stroke-linecap="round"/>
<path d="M263.75 47.0352L300 83.2852" stroke="black" stroke-width="20" stroke-linecap="round"/>
<path d="M191.25 155.785L227.5 119.535" stroke="black" stroke-width="20" stroke-linecap="round"/>
<path d="M118.75 228.285L155 192.035" stroke="black" stroke-width="20" stroke-linecap="round"/>
<path d="M191.25 228.285L227.5 264.535" stroke="black" stroke-width="20" stroke-linecap="round"/>
<path d="M10 264.535L46.25 300.785" stroke="black" stroke-width="20" stroke-linecap="round"/>
<path d="M155 10.7852L155 47.0352" stroke="black" stroke-width="20" stroke-linecap="round"/>
<path d="M10 119.535L10 155.785" stroke="black" stroke-width="20" stroke-linecap="round"/>
<path d="M227.5 192.035L227.5 228.285" stroke="black" stroke-width="20" stroke-linecap="round"/>
<path d="M155 228.285L155 264.535" stroke="black" stroke-width="20" stroke-linecap="round"/>
<path d="M82.5 264.535L82.5 300.785" stroke="black" stroke-width="20" stroke-linecap="round"/>
<path d="M300 264.535L300 300.785" stroke="black" stroke-width="20" stroke-linecap="round"/>
<path d="M155 155.785L155 192.035" stroke="black" stroke-width="20" stroke-linecap="round"/>
<path d="M227.5 192.035L191.25 192.035" stroke="black" stroke-width="20" stroke-linecap="round"/>
<path d="M191.25 228.285L155 228.285" stroke="black" stroke-width="20" stroke-linecap="round"/>
<path d="M82.5 264.535L46.25 264.535" stroke="black" stroke-width="20" stroke-linecap="round"/>
<path d="M118.75 264.535L82.5 264.535" stroke="black" stroke-width="20" stroke-linecap="round"/>
<path d="M300 228.285L263.75 228.285" stroke="black" stroke-width="20" stroke-linecap="round"/>
<path d="M118.75 228.285L82.5 228.285" stroke="black" stroke-width="20" stroke-linecap="round"/>
<path d="M118.75 83.2852L118.75 119.535" stroke="black" stroke-width="20" stroke-linecap="round"/>
<path d="M10 47.0352C10 67.0547 26.2305 83.2852 46.25 83.2852" stroke="black" stroke-width="20" stroke-linecap="round" stroke-linejoin="round"/>
<path d="M46.25 228.285C46.25 208.266 30.0195 192.035 10 192.035" stroke="black" stroke-width="20" stroke-linecap="round" stroke-linejoin="round"/>
<path d="M300 264.535C300 244.516 283.769 228.285 263.75 228.285" stroke="black" stroke-width="20" stroke-linecap="round" stroke-linejoin="round"/>
<path d="M155 300.785C175.019 300.785 191.25 284.555 191.25 264.535" stroke="black" stroke-width="20" stroke-linecap="round" stroke-linejoin="round"/>
<path d="M191.25 83.2852C211.269 83.2852 227.5 67.0547 227.5 47.0352" stroke="black" stroke-width="20" stroke-linecap="round" stroke-linejoin="round"/>
<path d="M263.75 10.7852C263.75 30.8047 279.98 47.0352 300 47.0352" stroke="black" stroke-width="20" stroke-linecap="round" stroke-linejoin="round"/>
<path d="M82.5 47.0352L82.5 83.2852" stroke="black" stroke-width="20" stroke-linecap="round"/>
<path d="M155 83.2852L118.75 83.2852L118.75 47.0352" stroke="black" stroke-width="20" stroke-linecap="round" stroke-linejoin="round"/>
<path d="M118.75 155.785C138.769 155.785 155 139.555 155 119.535" stroke="black" stroke-width="20" stroke-linecap="round" stroke-linejoin="round"/>
</svg>
