<svg width="1020" height="1020" viewBox="0 0 1020 1020" fill="none" xmlns="http://www.w3.org/2000/svg">
<path d="M269.988 750L510.01 510.008L269.988 269.987" stroke="#193718" stroke-width="60" stroke-linecap="round" stroke-linejoin="round"/>
<path d="M510.013 30V269.992" stroke="#193718" stroke-width="60" stroke-linecap="round" stroke-linejoin="round"/>
<path d="M510.013 990V750.008" stroke="#193718" stroke-width="60" stroke-linecap="round" stroke-linejoin="round"/>
<path d="M990.001 510.009H750.008" stroke="#193718" stroke-width="60" stroke-linecap="round" stroke-linejoin="round"/>
<path d="M30 510.009H269.993" stroke="#193718" stroke-width="60" stroke-linecap="round" stroke-linejoin="round"/>
<path d="M30 269.992C162.539 269.992 269.993 162.538 269.993 30" stroke="#193718" stroke-width="60" stroke-linecap="round" stroke-linejoin="round"/>
<path d="M750.008 30C750.008 162.538 857.462 269.992 990.001 269.992" stroke="#193718" stroke-width="60" stroke-linecap="round" stroke-linejoin="round"/>
<path d="M990.001 750.008C857.462 750.008 750.008 857.462 750.008 990" stroke="#193718" stroke-width="60" stroke-linecap="round" stroke-linejoin="round"/>
<path d="M269.993 990C269.993 857.462 162.539 750.008 30 750.008" stroke="#193718" stroke-width="60" stroke-linecap="round" stroke-linejoin="round"/>
<path d="M750.006 269.987L510.013 510.008L750.006 750" stroke="#193718" stroke-width="60" stroke-linecap="round" stroke-linejoin="round"/>
<path d="M989.998 30L820.307 199.719" stroke="#193718" stroke-width="60" stroke-linecap="round" stroke-linejoin="round"/>
<path d="M30 30L199.72 199.719" stroke="#193718" stroke-width="60" stroke-linecap="round" stroke-linejoin="round"/>
<path d="M989.998 30L820.307 199.719" stroke="#193718" stroke-width="60" stroke-linecap="round" stroke-linejoin="round"/>
<path d="M30 30L199.72 199.719" stroke="#193718" stroke-width="60" stroke-linecap="round" stroke-linejoin="round"/>
<path d="M30 989.999L199.72 820.309" stroke="#193718" stroke-width="60" stroke-linecap="round" stroke-linejoin="round"/>
<path d="M989.998 989.999L820.307 820.309" stroke="#193718" stroke-width="60" stroke-linecap="round" stroke-linejoin="round"/>
</svg>
