<svg width="374" height="374" viewBox="0 0 374 374" fill="none" xmlns="http://www.w3.org/2000/svg">
<path d="M98.5026 143.419C122.94 143.419 142.751 123.509 142.751 98.9479C142.751 74.3872 122.94 54.4768 98.5026 54.4768C74.0647 54.4768 54.2539 74.3872 54.2539 98.9479C54.2539 123.509 74.0647 143.419 98.5026 143.419Z" stroke="#D9FFD8" stroke-width="20" stroke-linecap="round" stroke-linejoin="round"/>
<path d="M54.248 54.4711L98.502 10H54.248" stroke="#D9FFD8" stroke-width="20" stroke-linecap="round" stroke-linejoin="round"/>
<path d="M10 10V54.4711" stroke="#D9FFD8" stroke-width="20" stroke-linecap="round" stroke-linejoin="round"/>
<path d="M142.751 54.4711L98.502 10H142.751" stroke="#D9FFD8" stroke-width="20" stroke-linecap="round" stroke-linejoin="round"/>
<path d="M187 10V54.4711" stroke="#D9FFD8" stroke-width="20" stroke-linecap="round" stroke-linejoin="round"/>
<path d="M142.751 143.418L98.502 187.889H142.751" stroke="#D9FFD8" stroke-width="20" stroke-linecap="round" stroke-linejoin="round"/>
<path d="M187 187.889V143.418" stroke="#D9FFD8" stroke-width="20" stroke-linecap="round" stroke-linejoin="round"/>
<path d="M54.248 143.418L98.502 187.889H54.248" stroke="#D9FFD8" stroke-width="20" stroke-linecap="round" stroke-linejoin="round"/>
<path d="M10 187.889V143.418" stroke="#D9FFD8" stroke-width="20" stroke-linecap="round" stroke-linejoin="round"/>
<path d="M98.5026 319.53C122.94 319.53 142.751 299.619 142.751 275.058C142.751 250.498 122.94 230.587 98.5026 230.587C74.0647 230.587 54.2539 250.498 54.2539 275.058C54.2539 299.619 74.0647 319.53 98.5026 319.53Z" stroke="#D9FFD8" stroke-width="20" stroke-linecap="round" stroke-linejoin="round"/>
<path d="M54.248 230.582L98.502 186.111H54.248" stroke="#D9FFD8" stroke-width="20" stroke-linecap="round" stroke-linejoin="round"/>
<path d="M10 186.111V230.582" stroke="#D9FFD8" stroke-width="20" stroke-linecap="round" stroke-linejoin="round"/>
<path d="M142.751 230.582L98.502 186.111H142.751" stroke="#D9FFD8" stroke-width="20" stroke-linecap="round" stroke-linejoin="round"/>
<path d="M187 186.111V230.582" stroke="#D9FFD8" stroke-width="20" stroke-linecap="round" stroke-linejoin="round"/>
<path d="M142.751 319.529L98.502 364H142.751" stroke="#D9FFD8" stroke-width="20" stroke-linecap="round" stroke-linejoin="round"/>
<path d="M187 364V319.529" stroke="#D9FFD8" stroke-width="20" stroke-linecap="round" stroke-linejoin="round"/>
<path d="M54.248 319.529L98.502 364H54.248" stroke="#D9FFD8" stroke-width="20" stroke-linecap="round" stroke-linejoin="round"/>
<path d="M10 364V319.529" stroke="#D9FFD8" stroke-width="20" stroke-linecap="round" stroke-linejoin="round"/>
<path d="M275.503 143.419C299.94 143.419 319.751 123.509 319.751 98.9479C319.751 74.3872 299.94 54.4768 275.503 54.4768C251.065 54.4768 231.254 74.3872 231.254 98.9479C231.254 123.509 251.065 143.419 275.503 143.419Z" stroke="#D9FFD8" stroke-width="20" stroke-linecap="round" stroke-linejoin="round"/>
<path d="M231.248 54.4711L275.502 10H231.248" stroke="#D9FFD8" stroke-width="20" stroke-linecap="round" stroke-linejoin="round"/>
<path d="M187 10V54.4711" stroke="#D9FFD8" stroke-width="20" stroke-linecap="round" stroke-linejoin="round"/>
<path d="M319.751 54.4711L275.502 10H319.751" stroke="#D9FFD8" stroke-width="20" stroke-linecap="round" stroke-linejoin="round"/>
<path d="M364 10V54.4711" stroke="#D9FFD8" stroke-width="20" stroke-linecap="round" stroke-linejoin="round"/>
<path d="M319.751 143.418L275.502 187.889H319.751" stroke="#D9FFD8" stroke-width="20" stroke-linecap="round" stroke-linejoin="round"/>
<path d="M364 187.889V143.418" stroke="#D9FFD8" stroke-width="20" stroke-linecap="round" stroke-linejoin="round"/>
<path d="M231.248 143.418L275.502 187.889H231.248" stroke="#D9FFD8" stroke-width="20" stroke-linecap="round" stroke-linejoin="round"/>
<path d="M187 187.889V143.418" stroke="#D9FFD8" stroke-width="20" stroke-linecap="round" stroke-linejoin="round"/>
<path d="M275.503 319.53C299.94 319.53 319.751 299.619 319.751 275.058C319.751 250.498 299.94 230.587 275.503 230.587C251.065 230.587 231.254 250.498 231.254 275.058C231.254 299.619 251.065 319.53 275.503 319.53Z" stroke="#D9FFD8" stroke-width="20" stroke-linecap="round" stroke-linejoin="round"/>
<path d="M231.248 230.582L275.502 186.111H231.248" stroke="#D9FFD8" stroke-width="20" stroke-linecap="round" stroke-linejoin="round"/>
<path d="M187 186.111V230.582" stroke="#D9FFD8" stroke-width="20" stroke-linecap="round" stroke-linejoin="round"/>
<path d="M319.751 230.582L275.502 186.111H319.751" stroke="#D9FFD8" stroke-width="20" stroke-linecap="round" stroke-linejoin="round"/>
<path d="M364 186.111V230.582" stroke="#D9FFD8" stroke-width="20" stroke-linecap="round" stroke-linejoin="round"/>
<path d="M319.751 319.529L275.502 364H319.751" stroke="#D9FFD8" stroke-width="20" stroke-linecap="round" stroke-linejoin="round"/>
<path d="M364 364V319.529" stroke="#D9FFD8" stroke-width="20" stroke-linecap="round" stroke-linejoin="round"/>
<path d="M231.248 319.529L275.502 364H231.248" stroke="#D9FFD8" stroke-width="20" stroke-linecap="round" stroke-linejoin="round"/>
<path d="M187 364V319.529" stroke="#D9FFD8" stroke-width="20" stroke-linecap="round" stroke-linejoin="round"/>
</svg>
