<svg width="1019" height="1019" viewBox="0 0 1019 1019" fill="none" xmlns="http://www.w3.org/2000/svg">
<path d="M269.75 629.375L269.75 749.25L149.875 749.25" stroke="#D9FFD8" stroke-width="60" stroke-linecap="round" stroke-linejoin="round"/>
<path d="M509.5 629.375L389.625 629.375L389.625 509.5" stroke="#D9FFD8" stroke-width="60" stroke-linecap="round" stroke-linejoin="round"/>
<path d="M149.875 989L30 989L30 869.125" stroke="#D9FFD8" stroke-width="60" stroke-linecap="round" stroke-linejoin="round"/>
<path d="M389.625 509.5L269.75 389.625" stroke="#D9FFD8" stroke-width="60" stroke-linecap="round"/>
<path d="M629.375 749.25L749.25 869.125" stroke="#D9FFD8" stroke-width="60" stroke-linecap="round"/>
<path d="M629.375 869.125L509.5 989" stroke="#D9FFD8" stroke-width="60" stroke-linecap="round"/>
<path d="M30 749.25L149.875 869.125" stroke="#D9FFD8" stroke-width="60" stroke-linecap="round"/>
<path d="M389.625 749.25L389.625 869.125" stroke="#D9FFD8" stroke-width="60" stroke-linecap="round"/>
<path d="M989 869.125L989 989" stroke="#D9FFD8" stroke-width="60" stroke-linecap="round"/>
<path d="M509.5 869.125H629.375" stroke="#D9FFD8" stroke-width="60" stroke-linecap="round"/>
<path d="M749.25 989H869.125" stroke="#D9FFD8" stroke-width="60" stroke-linecap="round"/>
<path d="M509.5 629.375L509.5 749.25" stroke="#D9FFD8" stroke-width="60" stroke-linecap="round"/>
<path d="M30 509.5L30 629.375" stroke="#D9FFD8" stroke-width="60" stroke-linecap="round"/>
<path d="M269.75 629.375L149.875 629.375" stroke="#D9FFD8" stroke-width="60" stroke-linecap="round"/>
<path d="M389.625 749.25L269.75 749.25" stroke="#D9FFD8" stroke-width="60" stroke-linecap="round"/>
<path d="M509.5 749.25L389.625 749.25" stroke="#D9FFD8" stroke-width="60" stroke-linecap="round"/>
<path d="M749.25 749.25C749.25 683.048 695.577 629.375 629.375 629.375" stroke="#D9FFD8" stroke-width="60" stroke-linecap="round" stroke-linejoin="round"/>
<path d="M30 389.625C30 455.827 83.6726 509.5 149.875 509.5" stroke="#D9FFD8" stroke-width="60" stroke-linecap="round" stroke-linejoin="round"/>
<path d="M869.125 389.625C935.327 389.625 989 335.952 989 269.75" stroke="#D9FFD8" stroke-width="60" stroke-linecap="round" stroke-linejoin="round"/>
<path d="M869.125 869.125C935.327 869.125 989 815.452 989 749.25" stroke="#D9FFD8" stroke-width="60" stroke-linecap="round" stroke-linejoin="round"/>
<path d="M269.75 869.125C269.75 935.327 323.423 989 389.625 989" stroke="#D9FFD8" stroke-width="60" stroke-linecap="round" stroke-linejoin="round"/>
<path d="M509.5 269.75L509.5 389.625" stroke="#D9FFD8" stroke-width="60" stroke-linecap="round"/>
<path d="M749.25 389.625L629.375 389.625L629.375 269.75" stroke="#D9FFD8" stroke-width="60" stroke-linecap="round" stroke-linejoin="round"/>
<path d="M30 389.625L149.875 389.625L149.875 269.75" stroke="#D9FFD8" stroke-width="60" stroke-linecap="round" stroke-linejoin="round"/>
<path d="M269.75 269.75L389.625 389.625" stroke="#D9FFD8" stroke-width="60" stroke-linecap="round"/>
<path d="M869.125 149.875L989 149.875L989 269.75" stroke="#D9FFD8" stroke-width="60" stroke-linecap="round" stroke-linejoin="round"/>
<path d="M509.5 149.875L389.625 269.75" stroke="#D9FFD8" stroke-width="60" stroke-linecap="round"/>
<path d="M509.5 149.875L629.375 149.875" stroke="#D9FFD8" stroke-width="60" stroke-linecap="round"/>
<path d="M749.25 149.875C749.25 216.077 802.923 269.75 869.125 269.75" stroke="#D9FFD8" stroke-width="60" stroke-linecap="round" stroke-linejoin="round"/>
<path d="M269.75 269.75L149.875 269.75" stroke="#D9FFD8" stroke-width="60" stroke-linecap="round"/>
<path d="M269.75 149.875L149.875 149.875" stroke="#D9FFD8" stroke-width="60" stroke-linecap="round"/>
<path d="M30 149.875L30 269.75" stroke="#D9FFD8" stroke-width="60" stroke-linecap="round"/>
<path d="M869.125 149.875C935.327 149.875 989 96.2024 989 30" stroke="#D9FFD8" stroke-width="60" stroke-linecap="round" stroke-linejoin="round"/>
<path d="M869.125 30L749.25 30" stroke="#D9FFD8" stroke-width="60" stroke-linecap="round"/>
<path d="M629.375 30L509.5 30" stroke="#D9FFD8" stroke-width="60" stroke-linecap="round"/>
<path d="M509.5 149.875L629.375 30" stroke="#D9FFD8" stroke-width="60" stroke-linecap="round"/>
<path d="M30 149.875L149.875 30" stroke="#D9FFD8" stroke-width="60" stroke-linecap="round"/>
<path d="M269.75 149.875L269.75 30" stroke="#D9FFD8" stroke-width="60" stroke-linecap="round"/>
<path d="M269.75 149.875L149.875 149.875" stroke="#D9FFD8" stroke-width="60" stroke-linecap="round"/>
<path d="M389.625 149.875L269.75 149.875" stroke="#D9FFD8" stroke-width="60" stroke-linecap="round"/>
<path d="M869.125 629.375L749.25 509.5" stroke="#D9FFD8" stroke-width="60" stroke-linecap="round"/>
<path d="M869.125 749.25L989 629.375" stroke="#D9FFD8" stroke-width="60" stroke-linecap="round"/>
<path d="M629.375 509.5L629.375 629.375" stroke="#D9FFD8" stroke-width="60" stroke-linecap="round"/>
<path d="M869.125 629.375L869.125 749.25" stroke="#D9FFD8" stroke-width="60" stroke-linecap="round"/>
</svg>
