<svg width="40" height="40" viewBox="0 0 40 40" fill="none" xmlns="http://www.w3.org/2000/svg">
<rect width="40" height="40" rx="20" fill="white"/>
<path d="M12 25.3333C12 26.8061 13.1939 28 14.6667 28V28C16.1394 28 17.3333 26.8061 17.3333 25.3333V14.6667C17.3333 13.1939 16.1394 12 14.6667 12V12C13.1939 12 12 13.1939 12 14.6667V25.3333ZM25.3333 12C23.8606 12 22.6667 13.1939 22.6667 14.6667V25.3333C22.6667 26.8061 23.8606 28 25.3333 28V28C26.8061 28 28 26.8061 28 25.3333V14.6667C28 13.1939 26.8061 12 25.3333 12V12Z" fill="#1C1C1E"/>
</svg>
