<svg width="113" height="25" viewBox="0 0 113 25" fill="none" xmlns="http://www.w3.org/2000/svg">
<g clip-path="url(#clip0_942_28)">
<path d="M35.9007 24.4997C34.9706 24.4997 34.1122 24.3547 33.3257 24.0675C32.5391 23.7802 31.8694 23.3812 31.3167 22.8706C30.7626 22.3612 30.3361 21.7734 30.0385 21.1085C29.7408 20.4435 29.5894 19.7347 29.5894 18.9807H32.28C32.28 19.9568 32.6454 20.7321 33.3761 21.308C34.0405 21.8399 34.8709 22.1059 35.8675 22.1059C36.775 22.1059 37.5124 21.8958 38.0757 21.4742C38.6404 21.0539 38.9235 20.5433 38.9235 19.9448C38.9235 19.2799 38.5687 18.704 37.8605 18.216C37.5722 18.0391 37.2068 17.8782 36.7643 17.7346C36.3205 17.5909 35.8781 17.4526 35.4356 17.3196C34.1734 16.9659 33.1822 16.6268 32.462 16.3063C31.7418 15.9858 31.1665 15.5416 30.7347 14.9764C30.3029 14.4112 30.0863 13.6625 30.0863 12.7316C30.0863 11.3139 30.6018 10.1888 31.6302 9.35631C32.6586 8.52381 33.9714 8.10889 35.5658 8.10889C37.3808 8.10889 38.8092 8.60759 39.8509 9.605C40.3159 10.0492 40.676 10.5519 40.9298 11.1184C41.1836 11.6836 41.3125 12.2541 41.3125 12.8313H38.6218C38.6218 12.2116 38.3282 11.6623 37.7422 11.1849C37.155 10.7088 36.4295 10.4694 35.5658 10.4694C34.7686 10.4694 34.1149 10.6742 33.606 11.0838C33.0958 11.4948 32.842 12.0307 32.842 12.6956C32.842 13.1398 32.9802 13.4989 33.2566 13.7755C33.5329 14.0535 33.8385 14.2529 34.1707 14.374C34.5029 14.4963 35.1221 14.6905 36.0309 14.9564C37.6692 15.3341 38.9208 15.8102 39.7845 16.3861C40.4036 16.8076 40.8753 17.317 41.1955 17.9154C41.5157 18.5139 41.6765 19.1456 41.6765 19.8105C41.6765 20.4754 41.5317 21.0739 41.2447 21.6723C40.9564 22.2708 40.5471 22.7815 40.0156 23.2017C38.9075 24.0661 37.535 24.4983 35.8967 24.4983L35.9007 24.4997Z" fill="white"/>
<path d="M47.8258 23.3694C46.6513 22.6167 45.7331 21.6126 45.0688 20.3612C44.4044 19.1098 44.0723 17.7733 44.0723 16.3556C44.0723 14.8489 44.3991 13.4684 45.0528 12.217C45.7052 10.9656 46.6247 9.9682 47.8099 9.22479C48.9938 8.48272 50.3291 8.11035 51.8119 8.11035C53.2948 8.11035 54.5863 8.47607 55.7475 9.2075C56.9088 9.93894 57.8176 10.931 58.4714 12.1838C59.1238 13.4365 59.4519 14.805 59.4519 16.2904C59.4519 17.7759 59.1251 19.05 58.4714 20.3133C57.8176 21.5767 56.9101 22.5901 55.7475 23.3561C54.5849 24.1221 53.2735 24.5025 51.8119 24.5025C50.3504 24.5025 48.9991 24.1261 47.8258 23.3721V23.3694ZM55.3994 20.2442C56.2631 19.1803 56.6949 17.8504 56.6949 16.2545C56.6949 14.6587 56.2631 13.3182 55.3994 12.2981C54.5358 11.2795 53.3399 10.7688 51.8119 10.7688C50.2839 10.7688 49.0164 11.2901 48.1421 12.3314C47.2665 13.374 46.8293 14.7145 46.8293 16.3543C46.8293 17.994 47.2718 19.2361 48.158 20.2774C49.0429 21.3201 50.2613 21.84 51.8119 21.84C53.3625 21.84 54.5358 21.3081 55.3994 20.2442Z" fill="white"/>
<path d="M72.4401 11.6174C71.7532 11.0309 70.7341 10.737 69.3841 10.737C68.3876 10.737 67.5345 10.9977 66.8264 11.519C66.1168 12.0403 65.5747 12.7278 65.1987 13.5803C64.8213 14.4341 64.634 15.3477 64.634 16.3225C64.634 17.8519 65.0605 19.1605 65.9122 20.2456C66.7639 21.3322 67.977 21.8748 69.5502 21.8748C70.6131 21.8748 71.51 21.6207 72.2408 21.1101C72.9716 20.6007 73.4579 19.8799 73.7024 18.949H76.4594C76.304 19.9916 75.916 20.9332 75.2968 21.775C74.6763 22.6182 73.8565 23.2831 72.8387 23.7698C71.8196 24.2566 70.657 24.5013 69.3509 24.5013C68.0448 24.5013 66.748 24.1183 65.5973 23.3549C64.4453 22.5902 63.5378 21.5755 62.8735 20.3121C62.2091 19.0488 61.877 17.7189 61.877 16.3225C61.877 14.9261 62.2038 13.5018 62.8575 12.2504C63.5099 10.999 64.4068 9.99493 65.5481 9.24221C66.6882 8.4895 67.9451 8.11182 69.319 8.11182C71.5778 8.11182 73.2891 8.67702 74.4504 9.80741C75.6117 10.9378 76.2721 12.3342 76.4275 13.9965H73.6705C73.5376 12.9991 73.127 12.2065 72.4414 11.6187L72.4401 11.6174Z" fill="white"/>
<path d="M78.949 4.05299C78.5504 3.65403 78.3511 3.16729 78.3511 2.59012C78.3511 2.01296 78.5504 1.52622 78.949 1.12725C79.3476 0.728291 79.8339 0.528809 80.4106 0.528809C80.9872 0.528809 81.4682 0.728291 81.8562 1.12725C82.2428 1.52622 82.4381 2.01429 82.4381 2.59012C82.4381 3.16596 82.2442 3.65403 81.8562 4.05299C81.4682 4.45196 80.9872 4.65144 80.4106 4.65144C79.8339 4.65144 79.3476 4.45196 78.949 4.05299ZM79.0154 8.47485H81.7725V24.1342H79.0154V8.47485Z" fill="white"/>
<path d="M97.6838 24.1343H94.96V21.4745C94.6717 22.1621 94.1243 22.8376 93.3151 23.5026C92.5059 24.1675 91.3606 24.5 89.8764 24.5C88.1039 24.5 86.738 23.8736 85.7734 22.6222C84.8101 21.3708 84.3291 19.747 84.3291 17.7522V8.50817H87.0861V17.0859C87.0861 18.461 87.3904 19.5967 88.0003 20.4931C88.6088 21.3907 89.523 21.8389 90.7401 21.8389C92.09 21.8389 93.1317 21.3575 93.8625 20.392C94.5933 19.4265 94.9587 18.1365 94.9587 16.5194V8.50684H97.6825V24.1329L97.6838 24.1343Z" fill="white"/>
<path d="M106.585 24.4997C105.655 24.4997 104.796 24.3547 104.01 24.0675C103.223 23.7802 102.553 23.3812 102.001 22.8706C101.447 22.3612 101.02 21.7734 100.723 21.1085C100.425 20.4435 100.273 19.7347 100.273 18.9807H102.964C102.964 19.9568 103.329 20.7321 104.06 21.308C104.725 21.8399 105.555 22.1059 106.552 22.1059C107.459 22.1059 108.196 21.8958 108.76 21.4742C109.325 21.0539 109.608 20.5433 109.608 19.9448C109.608 19.2799 109.253 18.704 108.545 18.216C108.256 18.0391 107.891 17.8782 107.448 17.7346C107.005 17.5909 106.562 17.4526 106.12 17.3196C104.857 16.9659 103.866 16.6268 103.146 16.3063C102.426 15.9858 101.851 15.5416 101.419 14.9764C100.987 14.4112 100.77 13.6625 100.77 12.7316C100.77 11.3139 101.286 10.1888 102.314 9.35631C103.343 8.52381 104.655 8.10889 106.25 8.10889C108.065 8.10889 109.493 8.60759 110.535 9.605C111 10.0492 111.36 10.5519 111.614 11.1184C111.868 11.6836 111.997 12.2541 111.997 12.8313H109.306C109.306 12.2116 109.012 11.6623 108.426 11.1849C107.839 10.7088 107.114 10.4694 106.25 10.4694C105.453 10.4694 104.799 10.6742 104.29 11.0838C103.78 11.4948 103.526 12.0307 103.526 12.6956C103.526 13.1398 103.664 13.4989 103.941 13.7755C104.217 14.0535 104.523 14.2529 104.855 14.374C105.187 14.4963 105.806 14.6905 106.715 14.9564C108.353 15.3341 109.605 15.8102 110.469 16.3861C111.088 16.8076 111.559 17.317 111.88 17.9154C112.2 18.5139 112.361 19.1456 112.361 19.8105C112.361 20.4754 112.216 21.0739 111.929 21.6723C111.64 22.2708 111.231 22.7815 110.7 23.2017C109.592 24.0661 108.219 24.4983 106.581 24.4983L106.585 24.4997Z" fill="white"/>
</g>
<path fill-rule="evenodd" clip-rule="evenodd" d="M15.8218 1.76965C15.8218 1.06844 16.3902 0.5 17.0914 0.5L22.3653 0.500001C23.0665 0.500001 23.635 1.06844 23.635 1.76965C23.635 2.47085 23.0665 3.03929 22.3653 3.03929L17.0914 3.03929C16.3902 3.03929 15.8218 2.47085 15.8218 1.76965Z" fill="white"/>
<path fill-rule="evenodd" clip-rule="evenodd" d="M1.26965 8.31321C0.56844 8.31321 -4.53782e-08 7.74477 1.59232e-08 7.04356L4.76984e-07 1.76965C5.38285e-07 1.06844 0.568441 0.5 1.26965 0.5C1.97085 0.5 2.53929 1.06844 2.53929 1.76965L2.53929 7.04356C2.53929 7.74477 1.97085 8.31321 1.26965 8.31321Z" fill="white"/>
<path fill-rule="evenodd" clip-rule="evenodd" d="M22.3653 16.3218C23.0665 16.3218 23.635 16.8902 23.635 17.5914L23.635 22.8653C23.635 23.5665 23.0665 24.135 22.3653 24.135C21.6641 24.135 21.0957 23.5665 21.0957 22.8653L21.0957 17.5914C21.0957 16.8902 21.6641 16.3218 22.3653 16.3218Z" fill="white"/>
<path fill-rule="evenodd" clip-rule="evenodd" d="M7.81321 22.8653C7.81321 23.5665 7.24477 24.135 6.54356 24.135L1.26965 24.135C0.56844 24.135 -1.53254e-07 23.5665 0 22.8653C1.53254e-07 22.1641 0.56844 21.5957 1.26965 21.5957L6.54356 21.5957C7.24477 21.5957 7.81321 22.1641 7.81321 22.8653Z" fill="white"/>
<path fill-rule="evenodd" clip-rule="evenodd" d="M1.59232e-08 7.04356C1.07875e-07 6.34236 0.56844 5.77392 1.26965 5.77392L6.54356 5.77392C7.24477 5.77392 7.81321 6.34236 7.81321 7.04357C7.81321 7.74477 7.24477 8.31321 6.54356 8.31321L1.26965 8.31321C0.56844 8.31321 -4.53782e-08 7.74477 1.59232e-08 7.04356Z" fill="white"/>
<path fill-rule="evenodd" clip-rule="evenodd" d="M17.0914 5.77392C17.7926 5.77392 18.361 6.34236 18.361 7.04356L18.361 12.3175C18.361 13.0187 17.7926 13.5871 17.0914 13.5871C16.3902 13.5871 15.8217 13.0187 15.8217 12.3175L15.8218 7.04356C15.8218 6.34236 16.3902 5.77392 17.0914 5.77392Z" fill="white"/>
<path fill-rule="evenodd" clip-rule="evenodd" d="M23.635 17.5914C23.635 18.2926 23.0665 18.861 22.3653 18.861L17.0914 18.861C16.3902 18.861 15.8218 18.2926 15.8218 17.5914C15.8218 16.8902 16.3902 16.3217 17.0914 16.3217L22.3653 16.3218C23.0665 16.3218 23.635 16.8902 23.635 17.5914Z" fill="white"/>
<path fill-rule="evenodd" clip-rule="evenodd" d="M6.54356 18.861C5.84236 18.861 5.27392 18.2926 5.27392 17.5914L5.27392 12.3175C5.27392 11.6163 5.84236 11.0478 6.54357 11.0478C7.24477 11.0478 7.81321 11.6163 7.81321 12.3175L7.81321 17.5914C7.81321 18.2926 7.24477 18.861 6.54356 18.861Z" fill="white"/>
<path fill-rule="evenodd" clip-rule="evenodd" d="M22.3653 5.77392C23.0665 5.77392 23.635 6.34236 23.635 7.04356C23.635 10.6574 20.7052 13.5871 17.0914 13.5871C16.3902 13.5871 15.8217 13.0187 15.8217 12.3175C15.8217 11.6163 16.3902 11.0478 17.0914 11.0478C19.3028 11.0478 21.0957 9.25494 21.0957 7.04356C21.0957 6.34236 21.6641 5.77392 22.3653 5.77392Z" fill="white"/>
<path fill-rule="evenodd" clip-rule="evenodd" d="M5.27392 1.76965C5.27392 1.06844 5.84236 0.5 6.54356 0.5C10.1574 0.5 13.0871 3.42977 13.0871 7.04356C13.0871 7.74477 12.5187 8.31321 11.8175 8.31321C11.1163 8.31321 10.5478 7.74477 10.5478 7.04356C10.5478 4.83219 8.75494 3.03929 6.54356 3.03929C5.84236 3.03929 5.27392 2.47085 5.27392 1.76965Z" fill="white"/>
<path fill-rule="evenodd" clip-rule="evenodd" d="M18.361 22.8653C18.361 23.5665 17.7926 24.135 17.0914 24.135C13.4776 24.135 10.5478 21.2052 10.5478 17.5914C10.5478 16.8902 11.1163 16.3218 11.8175 16.3218C12.5187 16.3218 13.0871 16.8902 13.0871 17.5914C13.0871 19.8028 14.88 21.5957 17.0914 21.5957C17.7926 21.5957 18.361 22.1641 18.361 22.8653Z" fill="white"/>
<path fill-rule="evenodd" clip-rule="evenodd" d="M1.26965 18.861C0.56844 18.861 -2.43951e-08 18.2926 6.75571e-08 17.5914C5.41449e-07 13.9776 2.92977 11.0478 6.54357 11.0478C7.24477 11.0478 7.81321 11.6163 7.81321 12.3175C7.81321 13.0187 7.24477 13.5871 6.54356 13.5871C4.33219 13.5871 2.53929 15.38 2.53929 17.5914C2.53929 18.2926 1.97085 18.861 1.26965 18.861Z" fill="white"/>
<defs>
<clipPath id="clip0_942_28">
<rect width="82.7752" height="23.9711" fill="white" transform="translate(29.5894 0.528809)"/>
</clipPath>
</defs>
</svg>
