<svg width="72" height="19" viewBox="0 0 72 19"   
 fill="none" xmlns="http://www.w3.org/2000/svg">
<path d="M7.96776 18.3843C5.64776 18.3843 3.84776 17.8963 2.56776 16.9203C1.28776 15.9283 0.615758 14.5203 0.551758 12.6963H3.95976C4.07176 13.7203 4.43176 14.4563 5.03976 14.9043C5.66376 15.3523 6.59176 15.5763 7.82376 15.5763C8.79976 15.5763 9.59976 15.4003 10.2238 15.0483C10.8478 14.6803 11.1598 14.1203 11.1598 13.3683C11.1598 13.0963 11.1198 12.8563 11.0398 12.6483C10.9758 12.4243 10.8318 12.2323 10.6078 12.0723C10.3838 11.8963 10.1918 11.7603 10.0318 11.6643C9.87176 11.5523 9.57576 11.4403 9.14376 11.3283C8.71176 11.2003 8.38376 11.1123 8.15976 11.0643C7.93576 11.0003 7.51976 10.8963 6.91176 10.7523C6.17576 10.5763 5.56776 10.4243 5.08776 10.2963C4.62376 10.1683 4.10376 9.96832 3.52776 9.69632C2.96776 9.42432 2.51976 9.12832 2.18376 8.80832C1.86376 8.47232 1.59176 8.04032 1.36776 7.51232C1.14376 6.96832 1.03176 6.35232 1.03176 5.66432C1.03176 4.01632 1.63176 2.75232 2.83176 1.87232C4.04776 0.97632 5.63976 0.52832 7.60776 0.52832C9.55976 0.52832 11.1198 0.992321 12.2878 1.92032C13.4558 2.84832 14.1038 4.16832 14.2318 5.88032H10.8958C10.7998 5.04832 10.4478 4.40832 9.83976 3.96032C9.24776 3.51232 8.49576 3.28832 7.58376 3.28832C6.63976 3.28832 5.88776 3.47232 5.32776 3.84032C4.76776 4.20832 4.48776 4.69632 4.48776 5.30432C4.48776 5.96032 4.75976 6.44032 5.30376 6.74432C5.86376 7.04832 6.83976 7.35232 8.23176 7.65632C9.06376 7.83232 9.74376 8.00032 10.2718 8.16032C10.7998 8.30432 11.3678 8.52032 11.9758 8.80832C12.5998 9.08032 13.0798 9.38432 13.4158 9.72032C13.7678 10.0563 14.0558 10.5043 14.2798 11.0643C14.5198 11.6083 14.6398 12.2403 14.6398 12.9603C14.6398 14.6563 14.0238 15.9843 12.7918 16.9443C11.5598 17.9043 9.95176 18.3843 7.96776 18.3843Z" fill="white"/>
<path d="M26.9182 16.5123C25.7182 17.7443 24.1742 18.3603 22.2862 18.3603C20.3982 18.3603 18.8542 17.7443 17.6542 16.5123C16.4542 15.2643 15.8542 13.7123 15.8542 11.8563C15.8542 10.0003 16.4542 8.45632 17.6542 7.22432C18.8542 5.97632 20.3982 5.35232 22.2862 5.35232C24.1742 5.35232 25.7182 5.97632 26.9182 7.22432C28.1182 8.45632 28.7182 10.0003 28.7182 11.8563C28.7182 13.7123 28.1182 15.2643 26.9182 16.5123ZM22.2862 15.8643C23.2622 15.8643 24.0222 15.5043 24.5662 14.7843C25.1262 14.0483 25.4062 13.0723 25.4062 11.8563C25.4062 10.6403 25.1262 9.66432 24.5662 8.92832C24.0222 8.19232 23.2622 7.82432 22.2862 7.82432C21.2942 7.82432 20.5262 8.19232 19.9822 8.92832C19.4382 9.64832 19.1662 10.6243 19.1662 11.8563C19.1662 13.0723 19.4382 14.0483 19.9822 14.7843C20.5262 15.5043 21.2942 15.8643 22.2862 15.8643Z" fill="white"/>
<path d="M35.9474 18.3603C34.0434 18.3603 32.5154 17.7443 31.3634 16.5123C30.2114 15.2803 29.6354 13.7283 29.6354 11.8563C29.6354 9.98432 30.1954 8.43232 31.3154 7.20032C32.4514 5.96832 33.9394 5.35232 35.7794 5.35232C37.3314 5.35232 38.5954 5.76032 39.5714 6.57632C40.5474 7.39232 41.1474 8.48832 41.3714 9.86432H38.1794C38.0674 9.30432 37.8114 8.84832 37.4114 8.49632C37.0114 8.14432 36.5154 7.96832 35.9234 7.96832C34.9634 7.96832 34.2274 8.31232 33.7154 9.00032C33.2034 9.68832 32.9474 10.6403 32.9474 11.8563C32.9474 13.0563 33.1954 14.0083 33.6914 14.7123C34.1874 15.4003 34.9154 15.7443 35.8754 15.7443C37.2994 15.7443 38.1234 15.0483 38.3474 13.6563H41.4914C41.3794 15.0163 40.8274 16.1443 39.8354 17.0403C38.8434 17.9203 37.5474 18.3603 35.9474 18.3603Z" fill="white"/>
<path d="M42.9151 18.0003V5.68832H46.1791V18.0003H42.9151ZM42.9151 3.76832V0.840321H46.1791V3.76832H42.9151Z" fill="white"/>
<path d="M59.2023 18.0003H56.0583V16.5603H55.9863C55.5383 17.1683 55.0423 17.6163 54.4983 17.9043C53.9703 18.1923 53.2903 18.3363 52.4583 18.3363C51.1143 18.3363 50.0663 17.9363 49.3143 17.1363C48.5623 16.3363 48.1863 15.2563 48.1863 13.8963V5.68832H51.4263V13.3443C51.4263 14.8323 52.1063 15.5763 53.4663 15.5763C54.2183 15.5763 54.8183 15.3203 55.2663 14.8083C55.7143 14.2963 55.9383 13.6243 55.9383 12.7923V5.68832H59.2023V18.0003Z" fill="white"/>
<path d="M66.3056 18.3603C64.5456 18.3603 63.1696 17.9763 62.1776 17.2083C61.1856 16.4243 60.6416 15.3603 60.5456 14.0163H63.5696C63.7776 15.3763 64.6736 16.0563 66.2576 16.0563C66.9776 16.0563 67.5296 15.9283 67.9136 15.6723C68.3136 15.4163 68.5136 15.0723 68.5136 14.6403C68.5136 14.4803 68.4816 14.3363 68.4176 14.2083C68.3696 14.0803 68.2736 13.9683 68.1296 13.8723C68.0016 13.7603 67.8816 13.6723 67.7696 13.6083C67.6736 13.5443 67.4976 13.4803 67.2416 13.4163C66.9856 13.3523 66.7856 13.3043 66.6416 13.2723C66.5136 13.2403 66.2816 13.2003 65.9456 13.1523C65.6256 13.0883 65.4016 13.0403 65.2736 13.0083C64.6016 12.8803 64.0496 12.7523 63.6176 12.6243C63.2016 12.4803 62.7616 12.2803 62.2976 12.0243C61.8336 11.7523 61.4816 11.3923 61.2416 10.9443C61.0176 10.4803 60.9056 9.92832 60.9056 9.28832C60.9056 8.00832 61.3696 7.03232 62.2976 6.36032C63.2416 5.68832 64.4496 5.35232 65.9216 5.35232C67.5056 5.35232 68.7456 5.72032 69.6416 6.45632C70.5536 7.17632 71.0736 8.16832 71.2016 9.43232H68.2496C68.1216 8.23232 67.3296 7.63232 65.8736 7.63232C65.2176 7.63232 64.6976 7.75232 64.3136 7.99232C63.9456 8.23232 63.7616 8.56832 63.7616 9.00032C63.7616 9.14432 63.7856 9.28032 63.8336 9.40832C63.8976 9.52032 63.9936 9.62432 64.1216 9.72032C64.2656 9.80032 64.4016 9.87232 64.5296 9.93632C64.6576 9.98432 64.8416 10.0403 65.0816 10.1043C65.3216 10.1523 65.5296 10.2003 65.7056 10.2483C65.8816 10.2803 66.1216 10.3283 66.4256 10.3923C66.7296 10.4403 66.9696 10.4803 67.1456 10.5123C67.6576 10.6243 68.0736 10.7283 68.3936 10.8243C68.7296 10.9043 69.1136 11.0483 69.5456 11.2563C69.9776 11.4483 70.3136 11.6723 70.5536 11.9283C70.8096 12.1683 71.0256 12.5043 71.2016 12.9363C71.3936 13.3523 71.4896 13.8403 71.4896 14.4003C71.4896 15.6163 71.0096 16.5843 70.0496 17.3043C69.1056 18.0083 67.8576 18.3603 66.3056 18.3603Z" fill="white"/>
</svg>
